<?xml version="1.0" standalone="no"?>
<!DOCTYPE svg PUBLIC "-//W3C//DTD SVG 20010904//EN"
 "http://www.w3.org/TR/2001/REC-SVG-20010904/DTD/svg10.dtd">
<svg version="1.0" xmlns="http://www.w3.org/2000/svg"
 width="454.000000pt" height="138.000000pt" viewBox="0 0 454.000000 138.000000"
 preserveAspectRatio="xMidYMid meet">
<metadata>
Created by potrace 1.11, written by Peter Selinger 2001-2013
</metadata>
<g transform="translate(0.000000,138.000000) scale(0.100000,-0.100000)"
fill="#000000" stroke="none">
<path d="M2957 1255 c-37 15 -37 15 -37 -10 0 -25 2 -26 50 -24 39 2 49 6 45
17 -3 7 -5 17 -5 20 0 4 -4 1 -8 -6 -7 -10 -16 -9 -45 3z"/>
<path d="M2560 1243 c-74 1 -150 1 -168 -1 -28 -3 -33 -8 -43 -45 -5 -23 -9
-46 -7 -51 2 -5 -8 -13 -21 -17 -20 -8 -23 -15 -19 -44 3 -27 1 -34 -10 -30
-7 3 -18 5 -23 5 -5 0 -9 9 -9 20 0 10 7 23 15 28 9 4 17 18 18 30 1 12 5 22
9 22 3 0 6 9 5 20 -1 11 -5 20 -10 20 -4 0 -5 4 -2 10 3 5 0 7 -9 4 -8 -3 -13
-11 -10 -19 3 -7 -3 -15 -12 -19 -10 -4 -21 -3 -27 3 -5 5 -18 6 -29 3 -15 -4
-17 -7 -6 -14 9 -7 7 -8 -9 -5 -15 3 -20 1 -17 -8 3 -7 0 -16 -6 -20 -6 -3 -9
-1 -8 6 2 6 -3 14 -11 17 -8 3 -11 0 -7 -7 5 -7 -2 -11 -21 -10 -23 0 -25 2
-9 8 19 7 19 8 -2 13 -12 3 -21 3 -20 -1 0 -3 0 -10 -1 -15 0 -5 -9 -2 -18 5
-14 12 -16 12 -8 0 6 -11 3 -13 -13 -9 -12 4 -22 2 -22 -2 0 -5 6 -11 13 -13
8 -4 7 -6 -4 -6 -8 -1 -20 4 -27 11 -9 9 -12 9 -12 0 0 -7 5 -12 10 -12 6 0
10 -7 10 -16 0 -12 -6 -15 -24 -10 -20 5 -24 2 -25 -19 -1 -14 -1 -36 -2 -50
-1 -14 -7 -25 -15 -25 -7 0 -18 8 -23 18 -8 13 -10 3 -11 -42 0 -46 3 -57 14
-53 8 3 32 -3 53 -13 38 -19 38 -19 5 -13 -27 5 -31 3 -26 -11 5 -13 14 -16
38 -12 31 6 31 6 2 -5 -21 -9 -25 -14 -15 -20 8 -5 33 -9 56 -9 36 0 42 3 37
18 -4 10 -2 13 3 7 4 -6 21 -15 38 -20 16 -6 31 -18 33 -28 3 -15 -6 -17 -67
-17 -38 0 -73 -4 -76 -10 -3 -5 -25 -9 -48 -9 -42 2 -42 2 -7 8 34 6 33 7 -19
14 -30 3 -57 10 -60 15 -3 5 -23 12 -43 15 -29 4 -37 2 -40 -11 -2 -10 6 -22
22 -29 21 -10 22 -12 5 -12 -11 1 -30 1 -43 0 -13 0 -21 -5 -17 -10 3 -5 0
-13 -6 -17 -7 -4 -9 -3 -5 4 3 6 -3 13 -14 17 -11 3 -20 11 -20 16 0 5 5 9 12
9 9 0 8 3 -1 13 -11 10 -14 10 -18 0 -3 -7 -16 -13 -31 -13 -14 0 -22 -3 -19
-7 4 -3 -10 -12 -30 -20 -21 -7 -46 -13 -56 -13 -10 0 -29 -11 -43 -25 -14
-14 -23 -29 -20 -33 3 -4 -11 -9 -31 -10 -35 -3 -36 -2 -30 31 3 19 1 40 -4
48 -7 12 -9 12 -9 -1 0 -13 -1 -13 -10 0 -9 13 -12 12 -25 -4 -13 -17 -13 -22
0 -42 12 -18 12 -25 2 -31 -6 -4 -20 -6 -29 -5 -10 2 -18 -2 -18 -7 0 -6 13
-11 30 -11 19 0 33 -7 40 -19 8 -16 6 -22 -7 -30 -11 -6 -13 -11 -5 -11 7 0
10 -5 7 -10 -3 -6 -20 -10 -36 -10 -18 0 -28 -4 -24 -10 3 -6 -6 -15 -20 -20
-14 -6 -29 -10 -33 -9 -4 0 7 7 23 14 23 11 26 14 10 15 -17 0 -18 2 -5 11 12
9 12 10 -3 5 -10 -3 -21 -6 -23 -6 -3 0 -2 -5 2 -12 5 -8 0 -9 -14 -6 -12 4
-20 2 -16 -3 3 -5 -1 -9 -9 -9 -11 0 -14 -9 -10 -35 4 -29 1 -35 -14 -36 -12
-1 -10 -3 7 -8 25 -7 25 -7 -3 -13 -26 -5 -28 -3 -23 18 3 12 1 26 -4 29 -8 5
-7 11 1 21 6 7 16 11 22 7 6 -3 7 -1 3 6 -4 6 -2 19 5 27 10 12 9 13 -3 9 -9
-4 -24 -24 -34 -45 -11 -22 -23 -40 -28 -40 -5 0 -3 -7 4 -15 10 -12 8 -16
-11 -24 -13 -5 -18 -10 -11 -10 6 -1 12 -8 12 -16 0 -9 -7 -18 -15 -21 -8 -4
-15 -10 -15 -15 0 -6 10 -4 23 3 12 7 25 13 30 14 4 1 10 3 15 4 4 1 12 2 17
0 6 -1 4 4 -3 12 -11 11 -14 10 -21 -1 -6 -8 -11 -9 -15 -3 -3 6 -3 13 1 15 5
2 21 7 37 11 25 6 27 5 20 -11 -5 -10 -9 -48 -9 -84 1 -54 5 -73 25 -103 15
-21 64 -62 120 -98 52 -34 127 -83 165 -108 70 -45 70 -45 985 -47 915 -3 915
-3 1095 49 117 34 195 62 223 80 25 18 49 44 58 66 11 25 14 54 11 90 -3 29
-11 60 -18 68 -9 11 -8 14 4 14 8 0 28 7 43 15 16 8 23 15 16 15 -7 0 -10 5
-7 11 4 6 14 8 22 4 13 -4 14 -3 4 9 -9 11 -9 16 0 22 9 5 31 -13 66 -51 28
-33 55 -57 58 -54 3 3 -4 14 -15 24 -11 10 -20 22 -20 26 0 4 -16 24 -35 43
-19 20 -35 39 -35 43 0 4 21 -13 46 -37 26 -25 44 -39 40 -33 -4 8 -1 13 9 13
8 0 19 10 24 22 5 14 5 28 -1 35 -6 7 -5 14 2 18 5 3 10 15 10 26 0 14 -7 19
-28 19 -16 0 -41 10 -56 23 -23 20 -25 25 -13 42 9 12 20 16 32 11 15 -5 16
-4 6 8 -7 8 -10 24 -6 36 3 11 11 20 16 20 6 0 7 -5 3 -11 -4 -8 0 -8 15 0 11
7 21 17 21 23 0 6 3 8 7 5 3 -4 8 -20 9 -36 3 -22 -1 -30 -18 -34 -21 -6 -21
-6 3 -25 21 -18 24 -18 36 -3 6 9 7 17 2 19 -5 2 -8 20 -8 40 2 37 2 37 8 2 6
-33 7 -34 14 -10 4 14 7 35 7 48 0 14 6 22 17 22 14 0 13 3 -5 16 -14 10 -30
13 -40 8 -9 -4 -26 -8 -36 -8 -11 -1 -21 -6 -23 -13 -2 -6 4 -10 14 -9 10 2
12 1 5 -1 -8 -3 -11 -11 -8 -19 3 -8 3 -14 1 -14 -2 0 -12 14 -21 31 -8 17
-11 28 -6 25 6 -4 14 -1 19 6 4 7 8 18 9 24 1 6 -12 11 -28 12 -17 0 -36 6
-41 11 -6 6 -22 11 -35 11 -13 0 -20 4 -17 10 4 6 -14 10 -45 10 -44 0 -53 -3
-57 -21 -5 -18 -12 -20 -69 -17 -52 3 -64 1 -65 -12 0 -10 -4 -7 -11 8 -9 18
-19 22 -54 22 -23 0 -44 -5 -46 -10 -2 -6 -17 -11 -33 -11 -17 0 -46 2 -65 6
-19 4 -65 8 -102 10 -64 3 -68 2 -69 -18 0 -12 -3 -16 -6 -9 -2 6 -9 12 -14
12 -6 0 -7 -5 -3 -11 4 -8 0 -8 -15 0 -11 7 -21 17 -21 23 0 6 11 8 24 6 16
-3 27 0 30 9 3 8 2 12 -3 9 -5 -3 -6 15 -3 41 3 29 1 44 -5 40 -6 -4 -9 9 -7
33 1 22 -1 38 -5 36 -4 -3 -8 13 -8 36 -1 22 -7 46 -14 54 -9 10 -9 14 0 14 6
0 16 -10 21 -22 5 -13 9 -16 9 -8 0 8 -3 21 -8 29 -5 8 -18 12 -30 8 -12 -3
-21 -1 -21 4 0 5 12 9 28 10 27 0 27 0 2 11 -19 8 -22 12 -10 17 8 3 15 16 15
28 0 12 -4 25 -8 30 -5 4 -13 1 -18 -7 -9 -12 -10 -11 -6 6 3 13 -3 26 -14 35
-14 10 -15 15 -6 21 8 5 7 8 -5 8 -10 0 -18 -4 -18 -10 0 -5 -7 -10 -16 -10
-8 0 -12 5 -9 10 4 6 -9 10 -32 9 -38 -1 -38 -1 -8 -10 26 -7 24 -7 -10 -3
-22 2 -67 6 -100 8 -59 4 -59 4 -10 -3 50 -8 50 -8 -7 -9 -31 -1 -60 -6 -63
-12 -3 -5 -23 -10 -44 -10 -23 0 -45 7 -58 19 -17 16 -36 19 -119 20 -55 1
-160 2 -234 4z m-127 -15 c40 -1 44 -2 17 -5 -19 -3 -39 -9 -44 -14 -6 -5 -14
-9 -18 -9 -4 0 -8 7 -8 15 0 12 12 15 53 13z m381 -1 c10 -4 29 -7 42 -7 13 0
24 -5 24 -11 0 -6 -16 -9 -37 -7 -20 2 -39 9 -41 17 -3 10 0 12 12 8z m-79 -7
c8 0 15 -2 15 -4 0 -2 -7 -6 -15 -10 -8 -3 -15 -1 -15 4 0 6 7 10 15 10z m90
-30 c14 0 25 -2 25 -4 0 -2 -11 -6 -25 -8 -14 -3 -25 -1 -25 3 0 5 11 9 25 9z
m125 0 c6 0 10 -4 10 -10 0 -5 -4 -10 -10 -10 -5 0 -10 5 -10 10 0 6 5 10 10
10z m376 -40 c2 0 4 -4 4 -10 0 -5 -5 -10 -11 -10 -5 0 -7 5 -4 10 3 6 8 10
11 10z m-356 -30 c6 0 10 -2 10 -4 0 -3 -4 -8 -10 -11 -5 -3 -10 -1 -10 4 0 6
5 11 10 11z m304 0 c2 0 7 -7 10 -16 3 -8 2 -12 -4 -9 -6 3 -10 10 -10 16 0 5
2 9 4 9z m-1272 -40 c9 0 20 -4 23 -10 3 -5 3 -10 -2 -10 -4 0 -15 5 -23 10
-13 8 -13 10 2 10z m114 -20 c7 0 16 -10 18 -22 3 -13 7 -44 10 -70 5 -42 3
-48 -13 -48 -10 0 -21 3 -24 7 -4 3 -2 12 4 20 7 8 8 13 1 13 -5 0 -12 14 -14
32 -3 18 -3 40 0 50 2 10 10 18 18 18z m145 -20 c5 0 9 -13 9 -30 0 -18 -5
-30 -13 -30 -9 0 -12 10 -9 30 2 17 8 30 13 30z m893 -40 c3 0 8 -4 11 -10 3
-5 1 -10 -4 -10 -6 0 -11 5 -11 10 0 6 2 10 4 10z m-933 -67 c10 -3 19 -9 19
-13 0 -5 -10 -12 -21 -15 -13 -5 -25 -2 -30 6 -4 8 -3 16 3 20 5 4 19 4 29 2z
m713 -24 c11 1 17 -2 13 -5 -3 -3 -12 -4 -19 -1 -8 3 -5 6 6 6z m-709 -27 c14
-2 25 -8 25 -13 0 -5 -11 -9 -24 -9 -14 0 -27 4 -30 9 -3 4 -3 10 0 13 2 3 16
3 29 0z m1049 -63 c11 1 17 -2 13 -5 -3 -3 -12 -4 -19 -1 -8 3 -5 6 6 6z m-68
-19 c2 0 4 -4 4 -10 0 -5 -5 -10 -11 -10 -5 0 -7 5 -4 10 3 6 8 10 11 10z m75
0 c11 0 17 -4 14 -10 -3 -5 -15 -10 -26 -10 -11 0 -17 5 -14 10 3 6 15 10 26
10z m-1395 -10 c21 0 34 -3 31 -6 -3 -4 -18 -8 -32 -9 -14 -2 -27 1 -31 6 -3
5 12 9 32 9z m172 -1 c24 0 25 -1 7 -9 -11 -5 -23 -9 -27 -9 -5 -1 -8 4 -8 9
0 6 12 10 28 9z m412 -3 c52 0 74 -1 48 -3 -27 -2 -69 -2 -95 0 -27 2 -5 3 47
3z m450 2 c19 0 27 -2 18 -5 -10 -2 -26 -2 -35 0 -10 3 -2 5 17 5z m165 0 c17
0 24 -2 18 -5 -7 -2 -21 -2 -30 0 -10 3 -4 5 12 5z m410 0 c17 0 24 -2 18 -5
-7 -2 -21 -2 -30 0 -10 3 -4 5 12 5z m460 -1 c22 1 32 -1 23 -4 -10 -2 -28 -2
-40 0 -13 2 -5 4 17 4z m-2147 -17 c3 0 -1 -7 -8 -15 -7 -8 -18 -15 -24 -15
-6 0 -2 7 8 15 11 8 22 15 24 15z m382 -2 c14 0 19 -2 13 -5 -7 -2 -19 -2 -25
0 -7 3 -2 5 12 5z m285 -1 c22 1 32 -1 23 -4 -10 -2 -28 -2 -40 0 -13 2 -5 4
17 4z m1095 1 c14 0 19 -2 13 -5 -7 -2 -19 -2 -25 0 -7 3 -2 5 12 5z m-1875
-46 c14 -2 25 -6 25 -8 0 -2 -11 -4 -25 -4 -14 0 -25 4 -25 9 0 4 11 6 25 3z
m169 -13 c11 1 17 -2 13 -5 -3 -3 -12 -4 -19 -1 -8 3 -5 6 6 6z m-179 -11 c17
0 24 -2 18 -5 -7 -2 -21 -2 -30 0 -10 3 -4 5 12 5z m1349 -8 c2 0 9 -7 16 -15
7 -9 8 -15 2 -15 -5 0 -12 7 -16 15 -3 8 -4 15 -2 15z m-1284 -12 c8 0 6 -3
-5 -8 -11 -5 -45 -8 -75 -8 -55 1 -55 1 5 8 33 4 67 7 75 8z m321 2 c5 0 9 -4
9 -10 0 -5 -7 -10 -16 -10 -8 0 -12 5 -9 10 3 6 10 10 16 10z m-621 -10 c6 0
10 -2 10 -4 0 -3 -4 -8 -10 -11 -5 -3 -10 -1 -10 4 0 6 5 11 10 11z m1819 -3
c11 0 18 -5 15 -9 -3 -4 -11 -5 -19 -1 -8 3 -15 7 -15 8 0 2 9 3 19 2z m-1059
-9 c14 0 19 -2 13 -5 -7 -2 -19 -2 -25 0 -7 3 -2 5 12 5z m274 -4 c9 -3 16
-10 16 -15 0 -5 -10 -9 -22 -8 -13 0 -17 3 -10 6 6 2 10 9 7 14 -4 5 1 6 9 3z
m-594 -4 c5 0 7 -7 4 -15 -4 -8 -8 -15 -10 -15 -2 0 -4 7 -4 15 0 8 4 15 10
15z m46 -3 c3 -3 4 -12 1 -19 -3 -8 -6 -5 -6 6 -1 11 2 17 5 13z m40 3 c13 0
25 -4 29 -9 3 -5 0 -13 -6 -17 -8 -4 -9 -3 -5 4 4 7 3 12 -3 12 -5 0 -13 -4
-16 -10 -3 -5 -10 -10 -14 -10 -4 0 -8 7 -8 15 0 9 10 15 23 15z m-451 -12
c17 0 24 -2 18 -5 -7 -2 -21 -2 -30 0 -10 3 -4 5 12 5z m1015 0 c14 0 19 -2
13 -5 -7 -2 -19 -2 -25 0 -7 3 -2 5 12 5z m143 -1 c26 0 47 -4 47 -9 0 -4 -10
-8 -22 -7 -13 1 -34 5 -48 9 -20 7 -15 8 23 7z m-423 -10 c58 1 94 -2 80 -6
-14 -4 -61 -4 -105 -1 -80 7 -80 7 25 7z m608 -3 c26 -4 49 -8 51 -10 2 -2
-21 -4 -53 -4 -37 0 -55 4 -51 10 4 7 24 8 53 4z m-1372 -4 c7 0 18 -9 24 -20
9 -18 8 -19 -12 -11 -13 4 -30 6 -38 3 -13 -5 -13 -3 -1 11 7 10 19 17 27 17z
m214 -3 c25 0 35 -2 23 -4 -13 -2 -33 -2 -45 0 -13 2 -3 4 22 4z m807 -4 c26
-1 57 -3 68 -4 11 -1 -9 -5 -45 -8 -36 -4 -68 -5 -73 -3 -4 2 -5 7 -3 11 3 4
26 6 53 4z m-295 -8 c31 0 59 -3 62 -6 3 -3 -38 -6 -91 -6 -57 -1 -83 2 -63 6
19 3 60 6 92 6z m518 2 c36 0 50 -2 33 -4 -18 -2 -48 -2 -65 0 -18 2 -4 4 32
4z m-405 -7 c8 0 15 -4 15 -10 0 -5 -7 -7 -15 -4 -8 4 -15 8 -15 10 0 2 7 4
15 4z m545 0 c6 0 10 -7 10 -16 0 -8 -4 -12 -10 -9 -5 3 -10 10 -10 16 0 5 5
9 10 9z m57 -7 c2 -7 2 -19 0 -25 -3 -7 -5 -2 -5 12 0 14 2 19 5 13z m357 6
c11 1 17 -2 13 -5 -3 -3 -12 -4 -19 -1 -8 3 -5 6 6 6z m-1516 -17 c6 -2 12 -6
12 -8 0 -2 -30 -3 -67 -2 -68 1 -68 1 -13 7 30 4 61 5 68 3z m946 -4 c8 -7 12
-15 11 -17 -2 -1 -8 0 -14 4 -6 3 -11 11 -11 16 0 5 6 4 14 -3z m120 11 c11 1
17 -2 13 -5 -3 -3 -12 -4 -19 -1 -8 3 -5 6 6 6z m74 -8 c2 -7 1 -15 -2 -18 -3
-4 -9 -4 -12 0 -3 3 -2 11 2 18 6 11 8 11 12 0z m52 -1 c11 -6 20 -15 20 -20
0 -6 -5 -10 -11 -10 -5 0 -7 5 -4 10 3 6 -1 10 -9 10 -9 0 -16 5 -16 10 0 7 6
7 20 0z m-1522 -39 c2 -23 1 -46 -2 -49 -3 -3 -8 -3 -9 -1 -2 2 -1 24 2 49 6
45 6 45 9 1z m69 31 c13 -2 21 -8 18 -11 -2 -4 -18 -6 -36 -3 -27 4 -30 2 -25
-14 3 -11 1 -26 -4 -34 -7 -11 -10 -6 -10 22 0 27 5 37 18 40 9 2 27 2 39 0z
m764 3 c23 -2 44 -6 47 -9 3 -3 -11 -6 -30 -6 -20 0 -48 -2 -64 -4 -16 -2 -21
-1 -11 1 9 2 17 8 17 13 0 5 18 7 41 5z m233 4 c11 1 17 -2 13 -5 -3 -3 -12
-4 -19 -1 -8 3 -5 6 6 6z m100 0 c11 1 17 -2 13 -5 -3 -3 -12 -4 -19 -1 -8 3
-5 6 6 6z m1041 -1 c17 0 24 -2 18 -5 -7 -2 -21 -2 -30 0 -10 3 -4 5 12 5z
m80 -1 c22 1 32 -1 23 -4 -10 -2 -28 -2 -40 0 -13 2 -5 4 17 4z m-2314 -14 c7
-7 8 -24 4 -42 -6 -28 -9 -30 -23 -19 -13 11 -15 11 -7 -2 6 -11 5 -12 -4 -4
-6 6 -9 18 -5 27 3 9 10 14 15 11 5 -3 9 5 9 17 0 17 3 20 11 12z m206 7 c12
0 25 -5 28 -10 3 -6 18 -8 33 -5 22 4 24 4 7 -4 -11 -5 -31 -7 -45 -4 -14 3
-29 10 -34 14 -6 5 -1 9 11 9z m481 -9 c34 -5 35 -6 8 -9 -16 -2 -32 0 -37 5
-5 5 7 7 29 4z m308 6 c3 -3 4 -12 1 -19 -3 -8 -6 -5 -6 6 -1 11 2 17 5 13z
m983 3 c6 0 11 -4 11 -10 0 -5 -2 -10 -4 -10 -3 0 -8 5 -11 10 -3 6 -1 10 4
10z m-751 -10 c2 0 0 -4 -3 -10 -3 -5 -12 -10 -18 -10 -7 0 -6 4 3 10 8 5 16
10 18 10z m779 -4 c3 -3 3 -13 -1 -22 -4 -9 -9 -15 -11 -12 -3 3 -3 13 1 22 4
9 9 15 11 12z m19 1 c3 -3 4 -12 1 -19 -3 -8 -6 -5 -6 6 -1 11 2 17 5 13z m77
-6 c31 -4 31 -5 7 -11 -14 -4 -28 -5 -32 -3 -5 2 -8 8 -8 12 0 4 15 5 33 2z
m-2233 -1 c6 0 10 -2 10 -4 0 -3 -4 -8 -10 -11 -5 -3 -10 -1 -10 4 0 6 5 11
10 11z m617 -55 c2 -34 -1 -72 -7 -85 -9 -20 -10 -15 -5 30 3 30 6 69 7 85 1
17 3 3 5 -30z m762 55 c6 0 11 -4 11 -10 0 -5 -2 -10 -4 -10 -3 0 -8 5 -11 10
-3 6 -1 10 4 10z m71 -2 c14 0 19 -2 13 -5 -7 -2 -19 -2 -25 0 -7 3 -2 5 12 5z
m94 1 c11 1 17 -2 13 -5 -3 -3 -12 -4 -19 -1 -8 3 -5 6 6 6z m297 -12 c7 -12
19 -17 37 -14 15 2 20 2 12 -1 -12 -4 -11 -6 5 -13 12 -5 -20 -6 -75 -3 -52 4
-97 8 -98 9 -2 2 21 6 52 10 31 4 56 12 56 19 0 6 5 3 11 -7z m166 5 c13 -2
23 -6 23 -7 0 -1 -10 -5 -23 -7 -14 -3 -24 0 -24 7 0 7 10 10 24 7z m633 5
c41 0 58 -2 38 -4 -21 -2 -55 -2 -75 0 -21 2 -4 4 37 4z m-2396 -8 c11 1 17
-2 13 -5 -3 -3 -12 -4 -19 -1 -8 3 -5 6 6 6z m348 -7 c6 -6 7 -16 3 -22 -6 -9
-9 -9 -16 1 -4 7 -5 17 -2 22 3 5 10 4 15 -1z m1048 8 c6 0 10 -4 10 -10 0 -5
-4 -10 -10 -10 -5 0 -10 5 -10 10 0 6 5 10 10 10z m445 -2 c17 0 24 -2 18 -5
-7 -2 -21 -2 -30 0 -10 3 -4 5 12 5z m-936 -8 c5 0 13 -4 16 -10 3 -5 2 -10
-4 -10 -5 0 -13 5 -16 10 -3 6 -2 10 4 10z m1503 -2 c9 1 19 -2 23 -7 3 -5 1
-12 -5 -16 -5 -3 -15 -3 -22 1 -7 4 -33 7 -58 7 -45 -1 -45 -1 0 7 25 4 53 8
62 8z m-2398 -24 c8 -10 13 -20 12 -21 -1 -1 -15 2 -32 6 -16 5 -21 10 -11 10
9 1 17 6 17 13 0 6 6 3 14 -8z m1850 16 c2 0 11 -3 20 -6 9 -3 16 -9 16 -14 0
-4 -53 -11 -117 -15 -65 -5 -149 -8 -188 -6 -38 1 -74 7 -80 13 -7 7 5 9 40 5
28 -2 55 -6 60 -8 6 -1 65 1 132 5 68 5 120 12 117 17 -3 5 -3 9 0 9z m52 -3
c3 -3 4 -12 1 -19 -3 -8 -6 -5 -6 6 -1 11 2 17 5 13z m39 0 c8 0 11 -5 8 -11
-4 -6 -1 -6 8 1 9 7 20 8 29 3 11 -7 8 -10 -12 -15 -15 -4 -32 -4 -37 0 -6 3
-11 10 -11 14 0 4 7 8 15 8z m149 -8 c11 1 17 -2 13 -5 -3 -3 -12 -4 -19 -1
-8 3 -5 6 6 6z m-2309 -13 c24 -1 46 -4 50 -8 4 -4 -1 -7 -11 -6 -11 0 -28 -3
-38 -7 -14 -6 -17 -5 -12 3 4 7 3 12 -3 12 -5 0 -11 -5 -13 -12 -3 -8 -6 -7
-10 3 -5 12 3 15 37 15z m431 4 c2 0 4 -4 4 -10 0 -5 -5 -10 -11 -10 -5 0 -7
5 -4 10 3 6 8 10 11 10z m1170 0 c2 0 4 -25 4 -56 0 -30 -3 -53 -7 -51 -5 3
-6 28 -5 56 2 28 6 51 8 51z m841 0 c2 0 2 -4 -2 -9 -3 -5 9 -12 27 -14 18 -2
0 -5 -41 -5 -41 -1 -72 0 -69 3 2 3 19 7 37 9 17 2 35 6 38 10 4 3 8 6 10 6z
m141 -1 c23 1 32 -3 30 -11 -3 -7 -15 -15 -27 -16 -14 -2 -21 0 -17 6 3 6 0
13 -6 15 -7 3 2 6 20 6z m76 -11 c17 0 23 -5 19 -15 -4 -10 -8 -11 -19 -2 -12
9 -19 7 -37 -10 -13 -11 -35 -21 -50 -21 -15 0 -27 5 -27 10 0 6 15 10 34 10
18 0 39 6 45 14 6 7 22 14 35 14z m-2586 -8 c6 0 12 -7 12 -15 0 -8 5 -15 10
-15 6 0 10 5 10 10 0 6 4 10 8 10 5 0 9 -7 9 -16 0 -11 -7 -14 -24 -11 -16 3
-31 -3 -44 -16 -10 -11 -21 -18 -24 -16 -3 3 4 15 15 27 19 20 19 22 3 22 -15
0 -16 2 -3 10 8 5 21 10 28 10z m84 -6 c12 -3 28 -13 36 -20 7 -8 9 -14 3 -14
-5 0 -13 5 -17 11 -3 6 -15 9 -25 6 -12 -3 -19 0 -19 10 0 10 6 12 22 7z m394
6 c2 0 3 -20 2 -45 -1 -45 -1 -45 -70 -45 -37 0 -76 4 -86 9 -9 5 -30 15 -45
22 -17 8 -23 15 -16 18 7 2 15 -1 17 -7 2 -7 12 -12 22 -12 10 0 22 -4 25 -10
3 -5 34 -10 69 -10 63 0 63 0 64 30 0 16 3 34 7 40 3 5 8 10 11 10z m1031 -22
c2 -15 -1 -35 -6 -45 -9 -14 -10 -10 -7 22 3 22 6 42 7 45 1 3 4 -7 6 -22z
m581 21 c15 0 36 -4 47 -9 14 -7 9 -8 -17 -4 -31 5 -38 3 -38 -10 0 -9 -4 -16
-10 -16 -5 0 -10 9 -10 20 0 15 6 20 28 19z m-1562 -9 c3 0 4 -16 2 -36 -4
-31 -2 -35 16 -31 12 3 53 2 91 -3 70 -7 70 -7 -28 -7 -95 0 -98 1 -93 21 3
12 6 29 6 39 0 9 3 17 6 17z m1501 -23 c2 -15 9 -25 14 -22 5 4 9 -1 9 -9 0
-8 -4 -18 -10 -21 -5 -3 -10 1 -10 10 0 9 -4 14 -8 11 -4 -2 -7 7 -6 22 1 15
3 29 4 32 2 3 5 -7 7 -23z m-422 3 c8 -7 15 -16 15 -21 0 -5 -7 -9 -15 -9 -9
0 -15 9 -15 21 0 18 2 19 15 9z m359 10 c9 0 16 -4 16 -10 0 -5 -4 -10 -9 -10
-6 0 -13 5 -16 10 -3 6 1 10 9 10z m425 0 c6 0 11 -4 11 -10 0 -5 -2 -10 -4
-10 -3 0 -8 5 -11 10 -3 6 -1 10 4 10z m-2437 -16 c6 -4 4 -13 -6 -22 -8 -9
-19 -13 -22 -9 -4 4 -1 13 6 22 7 8 17 12 22 9z m237 4 c3 -2 35 -16 71 -33
65 -30 65 -30 20 -36 -25 -3 -52 -9 -61 -13 -12 -5 -18 3 -26 39 -6 25 -8 44
-4 43z m829 -17 c3 -12 5 -12 14 0 7 11 9 11 6 1 -2 -8 -8 -13 -13 -13 -6 0
-10 6 -11 13 -1 9 1 8 4 -1z m526 18 c3 -2 7 -17 10 -32 2 -15 0 -27 -5 -27
-5 0 -9 14 -9 32 0 17 2 29 4 27z m890 1 c9 0 16 -2 16 -4 0 -3 -4 -7 -9 -11
-5 -3 -12 -1 -16 5 -3 5 1 10 9 10z m130 0 c12 0 12 -6 3 -29 -6 -16 -16 -28
-23 -27 -8 1 -17 6 -21 10 -4 4 -1 6 7 4 8 -1 15 4 16 12 0 8 2 18 2 23 1 4 8
7 16 7z m-1595 -10 c5 0 13 -4 16 -10 3 -5 2 -10 -4 -10 -5 0 -13 5 -16 10 -3
6 -2 10 4 10z m-843 -18 c17 -3 22 -7 13 -12 -7 -5 -18 -6 -26 -3 -7 3 -13 9
-13 13 0 4 12 5 26 2z m1127 2 c10 -3 15 -9 12 -12 -3 -3 -11 0 -18 7 -9 10
-8 11 6 5z m-1251 -4 c7 0 6 -6 -2 -15 -11 -13 -8 -14 20 -8 22 4 31 3 27 -4
-4 -6 1 -17 11 -24 15 -13 16 -12 3 4 -10 13 -10 17 -1 17 10 0 10 3 0 15 -7
8 -9 15 -4 15 5 0 16 -5 24 -10 11 -8 12 -12 3 -18 -7 -4 -10 -19 -8 -33 4
-20 -1 -29 -21 -39 -18 -10 -30 -11 -42 -4 -8 6 -17 16 -18 22 -1 7 0 8 3 2 2
-5 9 -7 14 -4 6 3 17 0 26 -8 14 -11 16 -11 8 1 -5 10 -4 12 3 7 7 -4 12 -3
12 3 0 5 -4 12 -9 15 -5 4 -11 3 -14 -1 -2 -5 -3 -3 -1 3 1 6 -2 17 -7 25 -5
8 -9 9 -9 3 0 -7 -8 -15 -17 -18 -10 -4 -14 -4 -10 0 4 4 2 13 -4 20 -6 7 -8
18 -4 24 3 5 11 10 17 10z m163 0 c3 0 5 -12 5 -27 0 -19 -3 -24 -9 -15 -7 11
-11 11 -24 -2 -8 -9 -18 -16 -21 -16 -3 0 -6 5 -6 10 0 6 11 15 25 20 14 5 25
14 25 20 0 5 2 10 5 10z m650 -9 c17 -5 37 -12 45 -14 8 -3 4 -6 -11 -6 -14
-1 -34 6 -45 14 -18 14 -17 14 11 6z m1071 9 c0 0 1 -6 1 -14 0 -8 -6 -12 -15
-9 -11 5 -11 7 0 14 7 5 13 9 14 9z m184 -5 c6 -3 10 -11 10 -16 0 -6 -4 -7
-10 -4 -5 3 -10 11 -10 16 0 6 5 7 10 4z m60 5 c4 0 13 -7 20 -15 11 -13 8
-15 -14 -15 -14 0 -26 4 -26 8 0 5 3 12 7 15 3 4 10 7 13 7z m106 -2 c13 0 24
-4 24 -8 0 -5 -5 -10 -12 -12 -7 -3 -23 -2 -36 0 -15 3 -20 7 -12 12 7 4 23 8
36 8z m101 2 c2 0 2 -4 -1 -8 -3 -5 13 -9 36 -10 23 -1 44 -4 46 -7 3 -3 -18
-4 -46 -4 -29 1 -52 5 -52 9 0 4 3 10 7 13 3 4 8 7 10 7z m-2428 -17 c3 -5 17
-13 30 -19 24 -10 24 -10 -1 -38 -22 -26 -24 -26 -25 -8 -1 14 3 19 13 15 8
-3 14 0 14 6 0 6 -6 12 -12 12 -7 1 -19 1 -25 0 -7 -1 -13 0 -13 3 0 2 3 12 6
21 4 9 10 13 13 8z m1893 -2 c28 -4 29 -6 9 -9 -13 -2 -27 0 -32 5 -6 6 3 7
23 4z m643 3 c8 -4 15 -8 15 -10 0 -2 -7 -4 -15 -4 -8 0 -15 4 -15 10 0 5 7 7
15 4z m-1695 -7 c25 0 35 -2 23 -4 -13 -2 -33 -2 -45 0 -13 2 -3 4 22 4z m304
2 c11 1 17 -2 13 -5 -3 -3 -12 -4 -19 -1 -8 3 -5 6 6 6z m200 0 c11 1 17 -2
13 -5 -3 -3 -12 -4 -19 -1 -8 3 -5 6 6 6z m160 0 c11 1 17 -2 13 -5 -3 -3 -12
-4 -19 -1 -8 3 -5 6 6 6z m880 0 c11 1 17 -2 13 -5 -3 -3 -12 -4 -19 -1 -8 3
-5 6 6 6z m-1894 -30 c42 -1 43 -1 18 -10 -18 -7 -33 -7 -45 0 -14 8 -9 10 27
10z m218 1 c47 -1 47 -1 19 -16 -20 -11 -32 -12 -47 -4 -11 6 -20 13 -20 15 0
3 21 5 48 5z m210 0 c28 0 52 -2 52 -5 0 -3 -12 -10 -26 -15 -18 -7 -32 -6
-52 5 -27 14 -26 14 26 15z m232 0 c43 0 44 0 22 -16 -20 -14 -24 -14 -44 0
-22 16 -21 16 22 16z m225 -1 c47 0 48 -1 26 -13 -15 -8 -20 -16 -13 -20 7 -4
20 -2 31 4 11 5 42 10 68 10 27 0 57 -6 68 -13 10 -8 14 -17 8 -20 -5 -3 -27
-2 -47 4 -21 6 -44 8 -51 6 -7 -3 -18 0 -24 6 -10 9 -12 9 -9 -1 2 -8 -7 -18
-20 -23 -13 -5 -21 -5 -18 0 3 5 -1 14 -9 21 -12 10 -18 10 -30 0 -8 -7 -12
-17 -8 -23 4 -6 1 -7 -8 -1 -8 4 -23 10 -34 11 -10 2 -22 7 -25 11 -3 5 -15 8
-27 8 -13 0 -23 -2 -23 -3 0 -2 10 -8 23 -13 16 -6 17 -9 5 -9 -9 -1 -20 4
-23 9 -4 6 -11 8 -16 5 -5 -3 -6 1 -3 9 4 11 19 16 46 16 22 0 48 -5 59 -10
11 -6 24 -8 30 -5 6 4 3 12 -8 21 -16 12 -12 13 32 13z m220 1 c45 0 47 -1 29
-15 -10 -8 -23 -14 -29 -14 -5 0 -19 6 -29 14 -18 14 -16 15 29 15z m218 0
c27 0 46 -4 43 -9 -3 -5 -14 -11 -24 -13 -11 -3 -30 1 -43 8 -23 13 -21 13 24
14z m222 0 c45 0 47 -1 29 -15 -10 -8 -23 -14 -29 -14 -5 0 -19 6 -29 14 -18
14 -16 15 29 15z m196 0 c11 0 18 -4 14 -10 -3 -5 -12 -7 -20 -3 -8 3 -15 7
-15 9 0 2 9 4 21 4z m172 0 c1 0 15 -13 30 -29 19 -21 24 -32 16 -37 -8 -5 -9
-3 -4 6 6 10 4 12 -9 7 -9 -4 -15 -3 -12 2 3 5 -1 14 -9 21 -8 7 -15 16 -15
21 0 5 1 9 3 9z m69 0 c30 0 31 -1 16 -16 -9 -9 -24 -14 -32 -11 -9 4 -16 11
-16 17 0 5 14 10 32 10z m59 0 c6 0 3 -10 -5 -22 -11 -16 -12 -26 -5 -41 7
-12 7 -23 1 -29 -6 -6 -12 -6 -16 1 -4 6 -3 11 3 11 6 0 8 7 5 15 -4 8 -14 16
-23 16 -14 1 -14 2 1 6 9 2 20 13 23 24 4 10 11 19 16 19z m-2465 -20 c2 0 4
-7 4 -16 0 -8 -5 -12 -10 -9 -6 4 -8 11 -5 16 4 5 8 9 11 9z m120 -3 c3 -3 4
-12 1 -19 -3 -8 -6 -5 -6 6 -1 11 2 17 5 13z m55 3 c5 0 9 -11 9 -25 0 -13 -8
-29 -19 -34 -10 -6 -21 -7 -25 -4 -4 4 -5 -8 -4 -26 3 -34 3 -34 -49 -37 -29
-1 -53 1 -53 6 0 5 5 12 10 15 6 3 10 2 10 -3 0 -6 9 -8 20 -5 11 3 20 10 20
15 0 6 -15 8 -34 6 -19 -2 -32 0 -30 4 3 4 24 8 46 8 23 0 39 3 35 6 -3 3 2
14 11 25 9 10 20 19 25 19 4 0 5 -5 1 -11 -4 -7 -1 -10 7 -7 8 3 13 15 13 26
-1 12 3 22 7 22z m97 -1 c4 0 16 -4 27 -9 15 -6 16 -9 5 -11 -8 -1 -19 -3 -25
-4 -5 -2 -16 -3 -22 -4 -7 0 -13 -6 -13 -12 0 -6 9 -8 23 -4 20 6 21 5 4 -8
-15 -13 -12 -14 28 -11 28 2 44 0 40 -6 -4 -6 -17 -8 -31 -6 -13 3 -24 0 -24
-5 0 -6 -5 -7 -12 -3 -7 4 -8 3 -4 -4 4 -6 13 -9 21 -5 8 3 15 3 15 1 0 -3
-12 -15 -26 -29 -26 -24 -26 -24 -19 1 7 23 6 24 -7 6 -10 -12 -13 -30 -9 -49
4 -17 12 -32 20 -35 10 -3 11 0 1 18 -12 22 -12 22 13 4 18 -13 21 -20 11 -22
-8 -2 -12 -8 -9 -13 4 -5 17 -9 30 -9 13 0 27 5 30 10 4 6 11 8 16 5 5 -4 9
-1 9 5 0 7 -8 9 -22 4 -23 -6 -23 -6 -3 13 14 14 21 16 23 7 2 -7 9 -11 17 -8
8 3 11 12 8 20 -3 8 0 14 5 14 6 0 9 -12 6 -26 -3 -16 -1 -23 6 -19 5 3 10 2
10 -4 0 -5 -4 -12 -9 -15 -5 -4 -11 0 -14 6 -4 10 -7 10 -18 0 -12 -11 -12
-14 0 -21 7 -5 11 -13 7 -19 -3 -6 -3 -13 2 -16 4 -2 14 -1 22 4 8 5 15 15 15
22 0 7 5 15 10 17 6 3 11 -2 13 -10 1 -8 -12 -24 -29 -36 -29 -20 -32 -20 -48
-5 -11 11 -13 19 -7 24 7 5 7 11 -2 20 -7 7 -12 8 -12 2 0 -6 -15 -10 -32 -9
-19 0 -45 11 -60 25 -21 18 -28 33 -28 61 0 20 7 42 15 49 8 7 15 16 15 21 0
4 -7 15 -16 23 -8 9 -12 16 -8 16 3 0 0 8 -7 18 -13 15 -12 16 4 3 12 -9 17
-10 17 -2 0 7 5 9 10 6 6 -3 10 -1 10 4 0 6 3 11 8 10z m703 -1 c27 0 50 -5
52 -12 3 -8 -12 -12 -48 -12 -30 0 -51 4 -49 8 3 4 -2 5 -11 2 -14 -6 -14 -8
1 -19 9 -6 14 -17 10 -23 -4 -7 8 -10 36 -9 24 1 45 7 48 14 4 9 9 9 20 2 11
-8 12 -12 2 -16 -6 -2 -10 -8 -7 -13 3 -4 -2 -13 -11 -20 -12 -10 -17 -11 -27
-1 -9 10 -8 11 8 5 15 -5 17 -4 9 5 -6 7 -20 12 -30 12 -10 -1 -27 -2 -36 -3
-10 -1 -18 -5 -18 -10 0 -4 7 -8 15 -8 13 0 14 -2 3 -14 -11 -12 -15 -8 -25
21 -7 20 -10 39 -7 44 3 5 2 9 -3 9 -4 0 -13 -4 -20 -8 -7 -4 -10 -16 -8 -27
2 -11 4 -20 6 -20 1 0 3 -20 4 -44 3 -44 3 -44 -21 15 -13 32 -24 60 -24 62 0
2 6 0 13 -3 6 -4 1 2 -13 13 -14 12 -22 23 -19 27 4 3 14 -1 23 -10 12 -12 20
-14 33 -6 10 6 14 11 8 11 -5 0 1 7 14 14 14 8 46 14 72 14z m659 2 c28 0 63
-6 79 -14 15 -8 33 -21 40 -30 10 -12 9 -14 -9 -9 -12 3 -24 12 -27 20 -5 12
-7 12 -14 1 -7 -10 -9 -9 -9 3 0 13 -10 16 -44 15 -24 0 -42 -4 -40 -7 2 -4
-8 -6 -21 -6 -14 0 -25 4 -25 9 0 5 5 6 10 3 6 -3 10 -1 10 4 0 6 22 11 50 11z
m223 0 c27 0 57 -5 68 -10 10 -6 19 -15 19 -20 0 -6 -5 -10 -11 -10 -5 0 -7 5
-3 12 5 8 2 9 -9 5 -9 -3 -19 -2 -22 3 -4 6 -15 10 -25 10 -10 0 -22 -5 -26
-12 -5 -8 0 -9 16 -5 21 6 22 5 7 -10 -15 -15 -18 -14 -36 8 -17 20 -22 22
-33 10 -11 -12 -10 -13 4 -8 12 4 16 1 13 -14 -3 -14 2 -19 18 -20 12 -1 29 0
37 1 8 1 16 6 18 10 2 5 10 6 18 3 8 -3 14 -9 14 -14 0 -4 -8 -5 -17 -2 -16 6
-16 5 -5 -10 8 -10 10 -22 5 -31 -7 -13 -10 -13 -28 1 -16 12 -16 14 -3 10 10
-3 20 -1 24 5 4 7 3 8 -4 4 -7 -4 -12 -2 -12 4 0 6 -4 9 -8 6 -5 -3 -26 -1
-47 5 -28 8 -35 13 -24 20 11 7 9 9 -8 9 -13 0 -23 3 -23 6 0 4 8 13 18 20 9
7 39 14 65 14z m223 0 c30 0 54 -4 54 -9 0 -6 -4 -13 -10 -16 -5 -3 -15 -3
-22 1 -6 4 -24 8 -39 8 -15 1 -25 -2 -22 -6 2 -5 -3 -8 -11 -8 -9 0 -16 -5
-16 -11 0 -6 7 -8 16 -5 15 6 15 4 3 -10 -12 -14 -14 -14 -25 0 -6 9 -14 16
-18 16 -4 0 -4 -4 -1 -10 3 -5 -1 -10 -9 -10 -9 0 -16 7 -16 15 0 9 9 15 25
15 14 0 28 7 31 15 5 11 21 15 60 15z m-1747 -10 c6 0 13 -4 16 -10 3 -6 -1
-7 -9 -4 -9 3 -16 8 -16 10 0 2 4 4 9 4z m146 -6 c7 -3 12 -14 10 -25 -3 -15
2 -19 23 -20 15 -1 31 -1 36 0 4 1 14 -4 22 -10 8 -6 14 -17 14 -23 0 -6 -4
-6 -9 2 -4 8 -23 15 -40 16 -21 1 -30 -2 -27 -10 3 -7 -2 -11 -12 -9 -10 1
-16 10 -14 19 2 9 -1 16 -7 16 -5 0 -7 10 -5 23 2 12 2 16 -2 10 -3 -7 -10
-13 -16 -13 -7 0 -6 5 2 14 6 8 18 12 25 10z m333 1 c3 -3 -1 -12 -9 -22 -12
-15 -12 -16 3 -10 10 3 20 2 23 -3 4 -6 0 -11 -7 -11 -7 -1 -20 -1 -28 0 -11
1 -10 -2 4 -13 10 -9 23 -13 29 -9 5 3 13 -1 18 -8 4 -7 4 -16 0 -19 -5 -3
-12 -16 -16 -29 -4 -15 -3 -21 3 -17 6 4 8 -2 4 -16 -3 -13 -1 -19 5 -15 6 4
14 0 17 -9 3 -8 2 -12 -4 -9 -6 3 -10 1 -10 -4 0 -6 -4 -11 -10 -11 -5 0 -7 7
-4 15 5 11 2 13 -10 9 -9 -3 -16 -1 -16 4 0 6 4 13 8 16 4 2 7 17 6 33 -1 15
-3 30 -4 33 -1 3 -2 8 -2 11 1 3 -5 6 -13 6 -10 0 -11 -5 -4 -19 5 -10 7 -18
4 -18 -4 0 -13 7 -21 15 -9 8 -12 19 -9 25 3 5 0 10 -9 10 -8 0 -21 3 -29 6
-10 3 -20 -3 -27 -16 -11 -20 -10 -21 10 -10 12 6 23 10 24 8 1 -2 -8 -13 -21
-25 -13 -12 -23 -17 -23 -11 0 6 -6 5 -17 -3 -15 -13 -15 -12 -3 11 7 14 20
34 29 44 15 18 15 19 -1 13 -10 -3 -20 -2 -23 2 -2 5 4 11 15 14 11 3 20 2 20
-3 0 -4 14 -10 30 -12 26 -4 34 0 47 23 9 16 19 26 21 24z m235 2 c6 -2 11
-10 13 -19 1 -10 -3 -15 -10 -12 -7 3 -13 12 -13 20 0 8 5 13 10 11z m82 3 c3
0 5 -4 5 -10 0 -5 -10 -20 -22 -32 -13 -13 -17 -23 -10 -26 6 -2 8 -11 5 -20
-5 -14 -2 -14 17 3 15 14 24 16 27 8 2 -7 12 -9 21 -6 11 4 8 -2 -8 -18 -14
-13 -27 -20 -29 -15 -2 4 2 12 9 16 7 4 8 10 3 13 -6 4 -16 -6 -23 -21 -11
-22 -14 -24 -17 -9 -3 9 -8 17 -13 17 -5 0 -7 6 -4 14 3 7 -1 16 -8 19 -10 3
-14 -3 -13 -21 0 -14 6 -27 13 -30 6 -2 12 -10 12 -18 0 -8 -4 -14 -10 -14 -5
0 -10 7 -10 15 0 8 -6 12 -13 9 -7 -2 -13 4 -14 16 -1 11 3 22 8 25 5 4 7 11
4 16 -4 5 1 12 9 15 9 3 14 10 11 15 -3 4 3 13 13 18 11 6 22 7 26 4 3 -3 6
-1 6 5 0 7 2 12 5 12z m1195 0 c6 0 10 -9 10 -20 0 -11 -7 -23 -15 -27 -9 -3
-18 -3 -21 0 -3 3 -1 15 6 26 6 12 15 21 20 21z m165 -10 c8 -7 15 -19 15 -26
0 -8 -6 -14 -14 -14 -8 0 -18 5 -21 10 -4 6 -4 18 -1 27 5 12 9 13 21 3z
m-2511 -20 c8 -14 15 -21 16 -15 0 5 4 5 10 -1 6 -6 13 -22 15 -36 3 -16 0
-28 -9 -31 -7 -3 -25 3 -41 13 -19 12 -23 20 -15 25 8 5 20 -1 31 -16 18 -24
18 -24 16 -2 0 12 -5 19 -9 17 -4 -3 -8 2 -8 11 0 11 -5 15 -15 12 -8 -4 -17
-2 -20 3 -4 6 1 10 9 10 10 0 13 6 10 18 -3 9 2 6 10 -8z m233 10 c2 0 1 -10
-2 -21 -5 -16 -4 -19 5 -14 9 5 11 4 6 -3 -4 -7 -3 -12 3 -12 6 0 8 -7 5 -15
-4 -8 -11 -15 -16 -15 -6 0 -8 7 -4 15 3 8 1 15 -4 15 -6 0 -10 -9 -10 -21 0
-11 -4 -18 -8 -15 -5 3 -8 -3 -7 -12 1 -9 5 -29 9 -43 4 -15 14 -26 23 -25 9
0 18 -6 21 -14 4 -12 2 -13 -10 -3 -11 10 -17 10 -27 0 -9 -9 -14 -9 -20 2 -5
7 -9 32 -10 55 0 22 5 55 11 71 6 17 16 36 21 43 5 6 11 12 14 12z m97 0 c9 0
16 -4 16 -10 0 -5 -4 -10 -9 -10 -6 0 -13 5 -16 10 -3 6 1 10 9 10z m62 0 c3
0 3 -4 0 -9 -4 -5 0 -11 6 -14 7 -2 11 -7 8 -10 -3 -3 -12 -2 -19 2 -7 5 -10
14 -7 20 4 6 9 11 12 11z m37 -2 c17 -2 23 -7 19 -17 -3 -8 -1 -12 4 -8 6 3
16 -10 23 -30 8 -22 10 -38 4 -42 -6 -3 -13 -13 -16 -21 -4 -8 -6 2 -4 22 2
21 1 35 -2 33 -2 -3 -10 4 -18 15 -8 11 -11 25 -7 32 4 6 3 8 -4 4 -6 -3 -13
-2 -17 4 -4 6 4 9 18 8z m116 2 c6 0 13 -4 16 -10 3 -5 -1 -10 -9 -10 -9 0
-16 5 -16 10 0 6 4 10 9 10z m57 0 c3 0 3 -4 0 -9 -3 -4 8 -8 24 -7 17 1 30 4
30 8 0 4 7 5 15 2 8 -4 15 -10 15 -14 0 -4 -16 -6 -35 -3 -22 2 -35 -1 -35 -8
0 -8 -4 -8 -15 1 -8 7 -12 16 -9 21 3 5 7 9 10 9z m169 0 c8 0 15 -4 15 -10 0
-5 -7 -10 -15 -10 -8 0 -15 5 -15 10 0 6 7 10 15 10z m219 0 c9 0 16 -4 16
-10 0 -5 -4 -10 -9 -10 -6 0 -13 5 -16 10 -3 6 1 10 9 10z m451 0 c8 0 15 -4
15 -8 0 -5 -7 -9 -15 -9 -8 0 -15 4 -15 9 0 4 7 8 15 8z m219 0 c9 0 16 -2 16
-4 0 -3 -4 -7 -9 -11 -5 -3 -12 -1 -16 5 -3 5 1 10 9 10z m441 0 c8 0 15 -4
15 -10 0 -5 -7 -10 -15 -10 -8 0 -15 5 -15 10 0 6 7 10 15 10z m96 -7 c7 -7
10 -15 7 -18 -3 -3 -9 2 -12 12 -6 14 -5 15 5 6z m-1029 -3 c5 0 6 -4 3 -10
-3 -5 -3 -10 2 -11 4 0 18 -2 30 -3 13 -2 26 -6 29 -9 4 -4 -9 -4 -27 -1 -19
3 -40 6 -46 6 -7 1 -13 4 -13 8 0 4 3 10 7 13 3 4 10 7 15 7z m231 0 c5 0 5
-4 2 -10 -3 -5 3 -10 14 -10 12 0 21 -5 21 -11 0 -5 -4 -8 -9 -5 -5 3 -12 -1
-15 -10 -3 -8 -2 -12 4 -9 6 3 10 -1 10 -9 0 -8 9 -18 20 -21 11 -3 20 -15 20
-26 0 -10 -4 -19 -10 -19 -5 0 -9 5 -7 11 1 6 -4 14 -12 17 -10 3 -12 0 -8
-12 4 -10 3 -15 -3 -11 -6 4 -10 12 -9 18 1 7 1 18 0 25 0 7 -5 11 -9 8 -4 -2
-13 4 -20 15 -7 11 -8 19 -2 19 5 0 10 5 10 10 0 6 -8 10 -17 10 -15 0 -16 2
-3 10 8 5 19 10 23 10z m90 -6 c10 -3 15 -9 12 -12 -3 -3 -11 0 -18 7 -9 10
-8 11 6 5z m220 0 c10 -3 15 -9 12 -12 -3 -3 -11 0 -18 7 -9 10 -8 11 6 5z
m440 0 c10 -3 15 -9 12 -12 -3 -3 -11 0 -18 7 -9 10 -8 11 6 5z m125 -7 c2
-10 1 -21 -2 -24 -3 -4 -8 -4 -11 -1 -3 3 -2 14 2 24 7 18 8 18 11 1z m-2198
-1 c11 0 20 -4 20 -8 0 -4 -9 -8 -20 -8 -11 0 -20 4 -20 8 0 4 9 8 20 8z
m2301 -1 c5 -4 9 -12 8 -18 0 -9 -2 -8 -6 1 -2 6 -10 9 -15 6 -7 -4 -8 -2 -4
5 4 6 12 9 17 6z m-1725 -8 c8 0 14 -5 14 -11 0 -6 -5 -18 -10 -26 -7 -11 -10
-11 -10 -2 0 7 -4 11 -9 8 -5 -4 -7 2 -4 12 2 10 11 19 19 19z m692 -1 c7 -4
11 -17 10 -29 0 -12 1 -29 4 -37 3 -8 3 -12 1 -7 -3 4 -9 5 -14 1 -5 -3 -9 1
-9 9 0 8 -9 17 -21 20 -16 4 -19 2 -14 -11 4 -11 -2 -9 -19 7 -15 14 -26 29
-25 35 0 7 2 6 5 -1 3 -6 16 -9 30 -7 14 3 24 0 24 -7 0 -8 4 -8 15 1 8 7 12
17 8 23 -3 6 -1 7 5 3z m133 -6 c10 -6 19 -14 19 -18 0 -4 -4 -11 -8 -17 -4
-5 -14 -11 -23 -13 -9 -1 -16 5 -16 13 0 10 6 14 15 10 8 -3 12 0 9 7 -2 7
-10 12 -16 10 -7 -1 -10 2 -6 8 4 7 12 7 26 0z m70 -4 c9 -15 13 -16 20 -5 7
11 9 11 9 -2 0 -9 -3 -19 -7 -22 -3 -4 -12 1 -19 11 -7 9 -13 22 -13 27 0 6 4
2 10 -9z m137 12 c9 -2 17 -11 17 -20 0 -9 4 -20 8 -24 4 -4 7 -11 7 -16 0 -5
-11 -1 -24 9 -21 16 -22 19 -7 31 15 12 14 13 -1 8 -10 -3 -18 -1 -18 5 0 6 8
9 18 7z m420 1 c34 -2 35 -2 7 -6 -16 -3 -34 -9 -39 -14 -6 -6 -6 -9 2 -9 7 0
12 -9 12 -20 0 -13 5 -18 16 -13 8 3 13 12 9 20 -4 12 0 14 15 10 11 -3 23 -1
26 5 4 6 10 5 16 -3 7 -11 11 -11 15 -1 2 6 9 10 14 6 5 -3 9 -10 9 -15 0 -6
-4 -8 -9 -4 -6 3 -7 -9 -4 -31 4 -27 3 -35 -5 -30 -7 4 -12 5 -12 2 0 -2 3
-12 6 -21 5 -13 8 -14 15 -3 7 10 9 9 9 -4 0 -9 -4 -19 -9 -22 -5 -3 -12 1
-15 10 -4 11 -15 14 -37 10 -30 -4 -30 -4 -12 13 10 10 21 17 26 14 4 -2 8 -1
8 4 1 4 3 18 4 30 2 18 -2 22 -19 18 -11 -2 -24 -4 -27 -4 -3 -1 -5 -11 -5
-23 1 -16 -5 -23 -19 -23 -14 0 -21 9 -26 33 -4 18 -9 36 -12 39 -4 3 -13 3
-22 -1 -9 -3 -13 -11 -9 -17 5 -8 9 -8 14 1 5 8 10 9 14 2 3 -6 -1 -18 -10
-26 -8 -9 -19 -14 -24 -11 -4 3 -7 16 -5 30 2 22 0 23 -13 13 -13 -11 -15 -10
-9 5 3 9 3 17 -2 17 -5 0 -11 -10 -15 -22 -5 -18 -8 -20 -15 -9 -5 8 -7 21 -4
28 4 10 14 13 32 8 14 -3 35 -6 46 -6 11 0 21 5 23 11 2 5 20 9 40 9z m316
-18 c7 -12 15 -18 19 -15 4 4 7 2 7 -4 0 -7 -9 -12 -21 -12 -15 0 -19 5 -15
15 3 8 1 15 -5 15 -6 0 -7 5 -3 11 4 8 11 4 18 -10z m15 19 c6 0 11 -4 11 -10
0 -5 -2 -10 -4 -10 -3 0 -8 5 -11 10 -3 6 -1 10 4 10z m-2042 -17 c7 -3 13 -7
13 -10 0 -2 -6 -3 -14 -1 -8 2 -14 -1 -14 -7 0 -5 3 -16 5 -22 3 -7 10 -10 16
-6 6 3 7 1 3 -6 -5 -8 -14 -5 -31 11 -21 20 -21 23 -7 34 9 6 22 10 29 7z
m294 2 c4 -3 6 -12 2 -20 -3 -8 -9 -15 -14 -15 -5 0 -9 2 -9 4 0 2 3 11 6 20
3 9 10 14 15 11z m939 5 c6 0 10 -2 10 -4 0 -3 -4 -8 -10 -11 -5 -3 -10 -1
-10 4 0 6 5 11 10 11z m151 0 c10 0 19 -5 19 -11 0 -5 -4 -8 -9 -4 -6 3 -14
-2 -19 -11 -6 -11 -11 -13 -16 -5 -4 6 -4 16 -1 21 3 6 15 10 26 10z m-1352
-10 c5 0 11 -7 15 -15 3 -8 1 -15 -3 -15 -5 0 -11 7 -15 15 -3 8 -1 15 3 15z
m1185 -9 c7 -6 22 -8 31 -4 14 5 17 3 12 -10 -3 -9 -2 -17 3 -17 6 0 10 -5 10
-11 0 -8 -5 -8 -15 1 -8 7 -22 10 -30 6 -8 -3 -15 0 -15 7 0 8 -4 7 -10 -3 -8
-11 -9 -9 -6 10 3 14 5 27 5 29 1 2 7 -2 15 -8z m117 3 c5 -3 7 -10 4 -15 -4
-5 -2 -9 3 -9 6 0 12 -7 16 -15 3 -8 0 -14 -7 -12 -6 1 -16 11 -23 22 -6 11
-9 23 -7 28 3 4 9 5 14 1z m783 5 c11 1 17 -2 13 -5 -3 -3 -12 -4 -19 -1 -8 3
-5 6 6 6z m-1283 -10 c9 1 24 -8 33 -18 11 -12 14 -21 7 -26 -6 -3 -11 0 -11
8 0 8 -10 19 -22 25 -16 7 -18 11 -7 11z m297 -1 c8 -2 13 -7 13 -11 -1 -4 -1
-23 -1 -43 0 -31 -2 -35 -15 -24 -8 7 -15 19 -15 26 0 8 5 14 11 14 5 0 7 5 4
10 -3 6 0 10 7 10 10 0 9 3 -2 11 -10 7 -11 9 -2 7z m343 2 c5 0 9 -2 9 -4 0
-2 -7 -7 -16 -10 -8 -3 -12 -2 -9 4 3 6 10 10 16 10z m502 -13 c7 0 13 -12 14
-26 1 -14 -3 -36 -9 -48 -6 -12 -15 -20 -20 -17 -5 3 -2 15 8 25 14 15 15 24
7 42 -8 17 -8 24 0 24z m101 2 c11 1 17 -2 13 -5 -3 -3 -12 -4 -19 -1 -8 3 -5
6 6 6z m-139 -9 c9 0 18 -7 21 -15 3 -8 2 -19 -2 -26 -5 -9 -11 -7 -21 6 -7
11 -13 22 -13 27 0 4 7 8 15 8z m180 0 c8 0 15 -6 15 -14 0 -7 -6 -19 -14 -25
-10 -9 -16 -9 -21 -1 -4 6 -4 17 -1 25 3 8 12 15 21 15z m-2167 -10 c6 0 12
-5 12 -11 0 -5 -4 -7 -10 -4 -5 3 -10 1 -10 -4 0 -6 -10 -11 -22 -11 -21 0
-21 0 -2 15 10 8 25 15 32 15z m189 0 c3 0 3 -7 0 -14 -4 -10 -1 -13 9 -9 7 3
14 10 14 17 0 6 4 5 9 -3 5 -8 7 -20 4 -28 -3 -7 -13 -13 -23 -13 -11 0 -21 4
-24 9 -4 5 -3 16 0 25 3 9 8 16 11 16z m242 -1 c13 -1 13 -2 -1 -6 -10 -2 -18
-11 -18 -19 0 -8 4 -13 9 -9 5 3 12 1 16 -5 3 -5 -3 -10 -14 -10 -14 0 -21 6
-21 18 0 10 3 22 7 25 3 4 13 6 22 6z m221 1 c11 0 20 -4 20 -10 0 -5 -5 -9
-11 -7 -6 1 -14 -4 -16 -11 -3 -8 1 -10 11 -6 10 4 16 1 16 -8 0 -7 -9 -14
-20 -14 -15 0 -20 7 -20 28 0 21 5 28 20 28z m217 -2 c10 -2 19 -13 21 -26 3
-16 -2 -22 -17 -22 -11 0 -23 5 -26 10 -4 6 -4 18 -1 26 3 9 14 14 23 12z
m669 2 c1 0 7 -6 13 -14 10 -12 9 -14 -6 -11 -10 2 -22 4 -28 4 -5 1 -3 6 5
11 8 5 16 10 16 10z m561 -8 c4 -10 8 -10 19 -1 10 8 14 8 14 0 0 -6 -4 -11
-10 -11 -5 0 -1 -9 10 -20 11 -11 20 -26 20 -32 -1 -7 -14 3 -30 22 -17 19
-30 39 -29 45 0 5 3 4 6 -3z m-1808 -7 c2 -3 -1 -11 -7 -17 -7 -7 -12 -8 -12
-2 0 6 3 14 7 17 3 4 9 5 12 2z m687 2 c3 -3 4 -12 1 -19 -3 -8 -6 -5 -6 6 -1
11 2 17 5 13z m230 0 c3 -3 4 -12 1 -19 -3 -8 -6 -5 -6 6 -1 11 2 17 5 13z
m220 0 c3 -3 4 -12 1 -19 -3 -8 -6 -5 -6 6 -1 11 2 17 5 13z m220 0 c3 -3 4
-12 1 -19 -3 -8 -6 -5 -6 6 -1 11 2 17 5 13z m220 0 c3 -3 4 -12 1 -19 -3 -8
-6 -5 -6 6 -1 11 2 17 5 13z m-2059 -7 c7 0 13 -8 13 -17 0 -10 9 -37 20 -60
14 -33 16 -43 6 -43 -8 0 -19 7 -26 15 -7 8 -37 29 -66 46 -30 17 -54 34 -54
39 0 4 18 8 41 8 23 1 44 3 47 6 3 3 11 6 19 6z m198 -13 c8 0 12 -4 9 -9 -3
-4 -15 -8 -27 -8 -15 0 -18 3 -9 8 7 5 19 9 27 9z m473 -2 c1 -1 0 -9 -4 -18
-3 -8 -12 -18 -20 -21 -11 -4 -10 0 3 18 10 13 19 23 21 21z m313 5 c5 0 9 -7
9 -15 0 -8 8 -15 19 -15 10 0 24 -6 30 -13 6 -8 8 -17 4 -20 -3 -4 5 -7 18 -7
14 0 35 7 47 16 12 8 20 18 18 22 -2 4 3 13 12 21 13 13 14 12 8 -12 -5 -20
-3 -25 8 -21 8 3 17 0 21 -5 3 -6 11 -9 16 -6 5 4 4 -6 -3 -20 -12 -26 -12
-26 -23 -5 -6 11 -14 17 -18 14 -4 -4 -7 -1 -7 6 0 9 -6 8 -20 -5 -12 -11 -37
-18 -64 -19 -36 -1 -44 -4 -43 -18 1 -10 8 -21 17 -24 8 -4 21 -8 28 -10 6 -1
12 2 12 7 0 5 14 9 30 9 17 0 30 -5 30 -11 0 -6 -7 -8 -16 -5 -8 3 -12 2 -9
-4 4 -6 -16 -10 -53 -10 -52 0 -60 3 -70 24 -10 21 -8 23 11 19 18 -4 19 -3 7
6 -13 10 -13 12 0 21 8 5 11 10 7 10 -5 0 -5 5 -1 11 5 8 9 8 14 -1 5 -8 10
-8 14 -2 3 5 -1 12 -9 16 -8 3 -27 -7 -44 -24 -16 -17 -32 -30 -35 -30 -3 0
-12 13 -20 28 -8 16 -11 34 -7 41 6 9 11 10 15 2 4 -6 1 -11 -6 -11 -9 0 -9
-3 2 -10 8 -5 19 -10 24 -10 4 0 5 8 1 18 -5 14 -4 15 6 5 7 -7 17 -13 22 -13
4 0 5 6 0 13 -4 6 -8 18 -9 25 -1 6 2 12 7 12z m740 -7 c13 -4 18 -8 10 -11
-7 -2 -18 1 -23 6 -8 8 -4 9 13 5z m-1147 -17 c14 -17 14 -20 1 -30 -12 -9 -7
-11 22 -10 21 1 46 5 55 9 11 4 20 0 27 -14 9 -16 8 -22 -8 -30 -14 -8 -20 -7
-24 4 -4 9 -15 12 -31 9 -15 -2 -26 0 -26 5 0 6 -7 8 -15 5 -12 -5 -13 -10 -4
-20 6 -8 7 -14 2 -14 -5 0 -14 5 -20 11 -6 6 -9 18 -6 25 3 8 0 21 -6 28 -8
10 -9 16 -1 21 5 3 10 1 10 -4 0 -6 4 -11 10 -11 5 0 7 8 4 18 -5 15 -4 15 10
-2z m899 -14 c18 -26 27 -31 46 -26 14 3 30 13 37 22 9 13 9 19 1 24 -7 4 -7
8 -2 8 6 0 16 -4 24 -9 10 -7 11 -13 2 -30 -7 -12 -9 -26 -5 -32 4 -6 0 -15
-7 -20 -8 -5 -18 -9 -23 -9 -5 0 -3 6 3 14 9 11 8 15 -4 20 -9 3 -14 2 -11 -3
3 -5 -15 -7 -41 -5 -42 4 -45 3 -32 -13 12 -15 12 -16 -3 -10 -12 4 -15 2 -12
-7 3 -8 11 -13 17 -13 7 0 20 -1 30 -1 9 -1 17 -6 17 -12 0 -5 -15 -10 -34
-10 -24 0 -35 5 -38 18 -3 10 -14 18 -26 19 -19 2 -20 -1 -9 -18 7 -11 26 -24
42 -28 22 -7 25 -10 10 -11 -11 -1 -40 -3 -65 -4 -25 -2 -51 -1 -59 2 -9 4 -2
10 20 17 22 8 34 18 34 31 1 10 -5 33 -12 51 -11 28 -11 31 5 28 9 -1 25 2 35
7 12 6 22 4 33 -7 8 -8 20 -15 26 -15 6 0 4 8 -5 18 -10 10 -17 23 -17 28 0 5
10 -6 23 -24z m662 28 c8 0 18 -6 22 -14 4 -8 28 -26 53 -40 30 -17 39 -27 30
-31 -8 -3 -54 -16 -102 -29 -49 -13 -90 -21 -93 -17 -2 5 -19 8 -37 9 -18 0
-27 -2 -20 -7 7 -4 -12 -8 -41 -9 -41 -1 -54 2 -54 13 0 8 4 15 8 15 4 0 10
-4 13 -9 4 -5 26 -4 54 3 26 7 58 17 72 21 22 7 23 6 11 -9 -8 -9 -9 -16 -3
-16 6 0 20 12 31 27 12 14 24 38 28 52 3 14 8 29 10 34 2 4 10 7 18 7z m130 0
c7 0 18 -6 24 -14 10 -11 8 -16 -7 -20 -11 -4 -27 -4 -36 0 -13 5 -14 9 -5 20
6 8 17 14 24 14z m-1826 -10 c2 0 0 -7 -3 -16 -3 -8 -2 -12 3 -9 5 3 12 1 16
-5 3 -6 -8 -18 -24 -28 -17 -9 -29 -23 -26 -29 2 -7 -3 -13 -11 -13 -10 0 -14
6 -10 15 3 9 0 15 -10 15 -8 0 -12 4 -9 10 4 6 -1 7 -11 3 -14 -5 -16 -3 -11
11 4 10 7 22 7 27 0 4 7 6 16 2 12 -4 12 -8 4 -13 -9 -5 -6 -10 10 -15 12 -4
27 -2 33 4 8 8 7 11 -3 11 -9 0 -8 5 6 15 10 8 21 15 23 15z m355 0 c2 0 9 -7
16 -15 11 -13 10 -14 -4 -9 -9 3 -16 10 -16 15 0 5 2 9 4 9z m316 -7 c3 -2 -4
-11 -14 -19 -11 -7 -22 -12 -25 -9 -2 3 4 12 15 19 10 8 21 12 24 9z m537 -6
c3 -10 2 -21 -1 -24 -3 -4 -9 -4 -12 0 -4 3 -3 14 1 24 8 17 8 17 12 0z m168
13 c3 0 1 -7 -2 -17 -4 -10 -2 -14 4 -10 6 4 20 -8 32 -26 11 -17 21 -27 21
-21 0 7 8 15 17 18 10 4 14 4 10 0 -4 -4 -1 -14 6 -22 10 -13 9 -15 -5 -9 -13
4 -16 1 -13 -14 2 -10 0 -19 -6 -19 -5 0 -9 5 -9 11 0 5 -4 8 -8 5 -4 -2 -13
-2 -19 2 -6 4 -18 24 -27 46 -9 21 -13 42 -10 47 3 5 7 9 9 9z m264 -4 c6 -4
9 -12 6 -17 -4 -5 -12 -9 -18 -8 -9 0 -8 2 1 6 6 2 9 10 6 15 -4 7 -2 8 5 4z
m-1588 -6 c5 0 9 -6 9 -12 0 -10 2 -10 9 0 6 10 11 10 21 -3 10 -12 11 -18 2
-24 -8 -5 -6 -14 6 -31 13 -19 28 -26 60 -28 24 -2 49 2 57 8 8 7 20 8 26 4 7
-4 10 -3 7 2 -3 5 0 14 6 20 10 9 16 7 25 -8 7 -11 8 -17 3 -14 -5 3 -15 -1
-22 -10 -7 -8 -19 -13 -27 -10 -8 3 -12 2 -9 -3 3 -4 -17 -9 -44 -10 -27 -1
-59 4 -70 11 -11 7 -20 19 -20 26 0 9 -6 12 -16 8 -10 -4 -13 -2 -7 7 4 6 8
18 9 25 1 6 -2 12 -6 12 -5 0 -10 -8 -13 -17 -3 -15 -6 -13 -14 7 -6 14 -9 28
-6 33 2 4 8 7 14 7z m396 -16 c9 -8 13 -18 10 -21 -3 -3 -13 1 -21 10 -8 8
-12 17 -9 20 3 3 12 -1 20 -9z m363 16 c5 0 12 -4 15 -10 3 -6 -1 -7 -9 -4 -9
3 -16 3 -16 -1 0 -3 6 -12 13 -18 6 -7 19 -12 27 -12 8 0 20 4 27 8 7 4 10 14
6 22 -3 8 -1 15 5 15 5 0 13 -7 16 -16 4 -9 1 -23 -5 -30 -6 -8 -25 -14 -41
-14 -16 0 -38 5 -49 10 -15 9 -17 15 -9 30 6 11 15 20 20 20z m357 0 c2 0 1
-9 -2 -20 -5 -15 -2 -20 13 -20 13 0 19 -6 18 -17 0 -10 6 -19 14 -20 10 -2
15 5 16 22 1 15 4 28 7 31 2 3 16 0 30 -7 18 -8 30 -8 43 0 11 6 14 11 6 11
-7 0 -10 5 -7 10 3 6 10 10 15 10 4 0 11 -7 14 -16 4 -9 1 -23 -5 -30 -6 -8
-16 -14 -21 -14 -5 0 -6 5 -2 12 4 7 3 8 -5 4 -6 -4 -9 -16 -6 -27 5 -14 2
-19 -10 -19 -11 0 -15 5 -11 15 3 8 1 15 -3 15 -5 0 -18 3 -28 7 -16 6 -16 5
-4 -10 7 -9 10 -17 5 -17 -5 0 -1 -5 9 -11 10 -6 31 -12 47 -14 24 -3 28 -1
25 15 -2 10 3 24 11 31 10 8 14 8 14 0 0 -6 -5 -11 -10 -11 -7 0 -7 -7 0 -20
9 -16 8 -22 -5 -26 -8 -4 -39 -4 -67 -1 -38 4 -57 12 -69 28 -10 14 -22 20
-33 16 -9 -4 -16 -2 -16 3 0 6 5 10 11 10 8 0 8 4 0 14 -6 7 -9 21 -5 30 3 9
8 16 11 16z m86 -6 c10 -3 15 -9 12 -12 -3 -3 -11 0 -18 7 -9 10 -8 11 6 5z
m162 -4 c8 0 15 -4 15 -9 0 -6 -4 -12 -9 -15 -5 -3 -11 1 -15 9 -3 9 0 15 9
15z m-1787 -30 c5 0 14 -10 19 -22 11 -23 11 -23 19 -2 9 21 9 21 29 1 20 -20
20 -20 -2 -15 -15 4 -20 2 -17 -7 3 -7 14 -11 25 -8 10 3 19 1 19 -4 0 -5 9
-9 20 -9 11 0 20 4 20 8 0 4 7 8 15 8 8 0 15 -7 15 -15 0 -11 -13 -15 -55 -15
-39 0 -56 4 -63 16 -5 9 -12 15 -15 15 -4 -1 -11 -1 -17 -1 -5 0 -7 7 -4 15 4
8 1 15 -5 15 -6 0 -11 5 -11 10 0 6 4 10 8 10z m688 -27 c20 -15 44 -29 53
-30 9 -2 30 -5 47 -8 22 -3 31 -1 31 10 0 8 -4 15 -9 15 -5 0 -3 6 4 14 7 8
17 12 22 9 4 -3 4 -8 0 -12 -5 -3 -9 -15 -9 -26 0 -17 -7 -20 -53 -21 -34 -1
-58 4 -68 13 -8 8 -14 11 -15 6 0 -4 -4 2 -10 15 -5 13 -13 20 -19 17 -5 -3
-10 1 -10 10 0 13 8 10 36 -12z m39 26 c1 1 1 -7 1 -18 0 -11 -5 -17 -13 -14
-7 3 -13 9 -13 13 0 5 6 11 13 13 6 3 12 6 12 6z m1148 0 c21 0 21 -1 2 -9
-11 -5 -24 -9 -28 -9 -5 -1 -5 4 -2 9 3 6 16 10 28 9z m-1491 -9 c6 0 8 -7 5
-14 -4 -10 -1 -13 9 -9 7 3 14 1 14 -3 0 -5 -5 -16 -10 -24 -8 -13 -11 -12
-23 5 -8 10 -13 25 -10 32 3 7 10 13 15 13z m671 0 c4 0 7 -5 7 -11 0 -5 5 -7
10 -4 6 3 11 0 11 -7 1 -7 1 -16 0 -20 0 -5 4 -8 9 -8 6 0 13 0 18 -1 4 0 14
-6 22 -13 8 -8 22 -16 30 -19 10 -3 6 -6 -10 -7 -14 -1 -45 -2 -70 -2 -25 0
-49 1 -55 2 -5 1 4 6 22 11 23 7 31 15 30 29 -1 11 -6 21 -12 21 -5 1 -18 0
-29 -1 -16 -1 -16 0 -5 14 8 8 17 15 22 16z m96 0 c5 0 14 -7 21 -15 7 -8 10
-15 7 -15 -3 0 -12 3 -21 6 -9 3 -16 10 -16 15 0 5 4 9 9 9z m123 0 c6 0 8 -7
4 -15 -3 -9 0 -15 8 -15 8 0 16 -6 19 -13 3 -8 0 -15 -6 -16 -7 -1 -34 -4 -61
-7 -35 -5 -51 -2 -57 7 -6 10 -9 10 -9 2 0 -10 -6 -10 -25 -1 -14 6 -25 14
-25 18 0 4 3 9 6 13 3 3 12 3 20 0 8 -3 11 -10 8 -15 -4 -6 2 -8 15 -3 11 3
21 3 21 -2 0 -5 9 -9 20 -10 11 -1 22 2 25 8 4 5 11 9 16 9 6 0 7 -4 4 -10 -4
-6 1 -7 11 -3 14 5 15 7 1 15 -9 5 -14 15 -11 23 4 8 11 15 16 15z m667 -5 c1
-2 0 -8 -4 -14 -3 -6 -11 -11 -16 -11 -5 0 -4 6 3 14 7 8 15 12 17 11z m-1666
-11 c10 -3 15 -9 12 -12 -3 -3 -11 0 -18 7 -9 10 -8 11 6 5z m-163 -4 c6 0 10
-4 10 -10 0 -5 -4 -10 -10 -10 -5 0 -10 5 -10 10 0 6 5 10 10 10z m429 0 c6 0
13 -4 16 -10 3 -5 -1 -10 -9 -10 -9 0 -16 5 -16 10 0 6 4 10 9 10z m237 0 c8
0 14 -4 14 -10 0 -5 -9 -10 -21 -10 -11 0 -17 5 -14 10 3 6 13 10 21 10z m215
0 c5 0 9 -4 9 -10 0 -5 -7 -10 -16 -10 -8 0 -12 5 -9 10 3 6 10 10 16 10z
m224 0 c8 0 15 -4 15 -10 0 -5 -7 -10 -15 -10 -8 0 -15 5 -15 10 0 6 7 10 15
10z m220 0 c8 0 15 -4 15 -10 0 -5 -7 -10 -15 -10 -8 0 -15 5 -15 10 0 6 7 10
15 10z m303 -9 c2 -7 1 -15 -2 -18 -3 -4 -9 -4 -12 0 -3 3 -2 11 2 18 6 11 8
11 12 0z m138 9 c8 0 14 -4 14 -9 0 -5 -9 -11 -19 -14 -14 -3 -18 -1 -14 9 3
8 11 14 19 14z m-1607 -15 c9 -4 28 -11 43 -15 16 -5 30 -5 33 1 4 5 10 9 16
9 5 0 9 -7 9 -15 0 -11 -12 -14 -61 -11 -33 2 -63 6 -66 9 -3 3 -2 11 2 17 4
6 14 8 24 5z m1276 -20 c23 -14 50 -25 60 -25 10 0 15 -3 12 -7 -4 -3 -39 -6
-78 -5 -39 1 -74 3 -77 7 -3 3 6 5 20 5 14 0 31 6 37 14 9 11 6 14 -14 14 -13
0 -22 -4 -19 -9 3 -5 -4 -9 -15 -9 -12 0 -21 5 -21 12 0 6 3 8 6 5 4 -3 16 0
27 8 18 12 25 11 62 -10z m-1092 -1 c5 -9 18 -19 30 -24 16 -6 2 -9 -48 -9
-70 -1 -70 -1 -30 23 34 21 41 22 48 10z m397 16 c6 0 10 -2 10 -4 0 -3 -4 -8
-10 -11 -5 -3 -10 -1 -10 4 0 6 5 11 10 11z m-196 -10 c6 0 20 -7 30 -15 11
-8 29 -15 40 -16 19 0 19 -1 3 -7 -10 -4 -35 -7 -55 -6 -20 1 -50 3 -67 4 -23
2 -25 4 -8 7 12 2 27 11 33 19 7 8 18 14 24 14z m1117 -1 c4 1 12 -5 19 -13 6
-8 21 -17 33 -19 12 -2 -14 -5 -58 -5 -80 -1 -80 -1 -40 17 22 11 43 20 46 20z
m-1560 -10 c4 1 22 -6 40 -14 21 -9 27 -15 17 -15 -10 -1 -36 -2 -58 -2 -22 0
-46 1 -52 2 -7 0 1 7 17 15 17 7 33 14 36 14z m665 0 c7 0 27 -5 45 -13 33
-14 33 -14 -28 -18 -33 -1 -69 -1 -79 1 -14 2 -10 7 16 16 19 7 40 13 46 14z"/>
<path d="M1493 260 c-9 0 -12 -3 -7 -7 5 -5 12 -12 16 -18 4 -6 8 -2 8 8 0 9
-7 17 -17 17z"/>
<path d="M2206 260 c-3 0 -8 -4 -11 -10 -3 -5 -1 -10 4 -10 6 0 11 5 11 10 0
6 -2 10 -4 10z"/>
<path d="M3449 210 c-5 0 -9 -2 -9 -4 0 -2 7 -7 16 -10 8 -3 12 -2 9 4 -3 6
-10 10 -16 10z"/>
<path d="M2572 220 c-5 0 -12 -3 -15 -6 -4 -4 -4 -11 -1 -15 3 -5 9 -9 15 -9
5 0 9 7 9 15 0 8 -4 15 -8 15z"/>
<path d="M2681 143 c-10 9 -11 8 -5 -6 3 -10 9 -15 12 -12 3 3 0 11 -7 18z"/>
<path d="M2459 130 c-5 0 -7 -4 -4 -10 3 -5 8 -10 11 -10 2 0 4 5 4 10 0 6 -5
10 -11 10z"/>
<path d="M2513 74 c-14 6 -15 5 -6 -5 7 -7 15 -10 18 -7 3 3 -2 9 -12 12z"/>
<path d="M2164 130 c-8 0 -12 -5 -9 -10 4 -6 11 -8 16 -5 5 4 9 8 9 11 0 2 -7
4 -16 4z"/>
<path d="M2937 153 c-3 6 -6 3 -6 -8 -1 -11 -5 -16 -9 -10 -4 6 -13 11 -19 13
-7 1 -13 -1 -13 -5 0 -5 7 -17 15 -27 11 -14 15 -16 15 -5 0 9 3 10 8 3 5 -8
13 -5 26 7 16 16 17 19 4 19 -9 0 -19 6 -21 13z"/>
<path d="M3378 1095 c-7 7 -9 2 -4 -15 3 -14 6 -33 6 -42 0 -10 5 -18 11 -18
7 0 8 12 4 33 -4 17 -12 37 -17 42z"/>
<path d="M1789 1080 c-10 0 -19 -4 -19 -8 0 -5 -13 -7 -28 -4 -23 3 -32 -2
-47 -25 -11 -15 -19 -30 -18 -33 1 -4 -14 -6 -33 -6 -20 0 -39 -6 -43 -13 -6
-9 -11 -10 -15 -2 -4 6 -4 16 -1 21 4 7 -94 10 -299 10 -189 -1 -308 -5 -312
-11 -4 -7 -10 -7 -18 0 -7 6 -85 10 -184 10 -95 0 -184 -4 -198 -9 -14 -6 -23
-6 -20 -1 3 4 -86 8 -199 7 -124 -1 -208 -5 -214 -11 -6 -6 -7 -22 -3 -40 8
-29 8 -29 478 -26 258 1 483 3 499 4 17 1 57 0 90 -2 54 -3 57 -4 25 -11 -20
-4 61 -8 183 -9 205 -1 218 0 237 19 11 11 22 20 25 20 3 0 5 -4 5 -9 0 -5 6
-22 12 -38 12 -26 13 -20 18 62 6 90 6 90 8 -2 2 -85 4 -93 21 -93 11 0 23 5
27 12 5 7 3 8 -6 3 -8 -5 -11 -3 -8 6 3 8 11 13 17 11 8 -2 11 16 10 58 -1 33
1 63 4 67 4 3 9 4 12 1 3 -3 6 -33 6 -67 1 -38 5 -61 13 -61 7 0 7 -3 -1 -8
-10 -6 -10 -12 2 -28 10 -13 14 -14 15 -5 0 10 3 11 14 2 10 -8 16 -9 21 -1 3
5 3 15 0 20 -3 6 1 10 9 10 8 0 20 9 26 21 8 14 8 24 1 33 -7 8 -7 16 -1 22 5
5 7 19 4 32 -4 12 -10 22 -15 22 -5 0 -9 7 -9 15 0 9 -9 15 -22 15 -19 0 -20
2 -8 10 8 5 10 10 5 10 -6 0 -16 -5 -22 -11 -8 -8 -13 -8 -17 0 -4 6 -16 11
-27 11z m-1635 -80 c8 0 16 -6 19 -14 3 -8 21 -16 39 -19 24 -3 20 -4 -17 -5
-36 -1 -46 1 -35 8 8 5 11 10 5 11 -5 1 -13 1 -17 0 -5 0 -8 4 -8 9 0 6 6 10
14 10z m1175 0 c22 0 43 -4 46 -10 4 -6 -12 -10 -39 -10 -25 0 -46 5 -46 10 0
6 18 10 39 10z m-125 -31 c11 1 17 -2 13 -5 -3 -3 -12 -4 -19 -1 -8 3 -5 6 6
6z m392 1 c2 0 4 -4 4 -10 0 -5 -5 -10 -11 -10 -5 0 -7 5 -4 10 3 6 8 10 11
10z m22 0 c5 0 9 -7 9 -15 0 -8 -4 -15 -9 -15 -4 0 -8 7 -8 15 0 8 4 15 8 15z
m-1198 -12 c14 0 19 -2 13 -5 -7 -2 -19 -2 -25 0 -7 3 -2 5 12 5z"/>
<path d="M1934 1079 c-11 0 -14 -3 -6 -6 7 -3 16 -2 19 1 4 3 -2 6 -13 5z"/>
<path d="M3396 1007 c-3 4 -6 -2 -5 -13 0 -11 3 -14 6 -6 3 7 2 16 -1 19z"/>
<path d="M3404 961 c-7 6 -10 -4 -8 -32 1 -22 4 -43 7 -46 4 -3 2 -15 -4 -25
-9 -16 -8 -19 3 -16 9 3 13 22 13 57 0 29 -5 57 -11 62z"/>
<path d="M1884 880 c-2 0 -4 -4 -4 -10 0 -5 5 -10 11 -10 5 0 7 5 4 10 -3 6
-8 10 -11 10z"/>
<path d="M3694 830 c-30 0 -54 -4 -54 -10 0 -5 -20 -10 -45 -10 -25 0 -45 -5
-45 -11 0 -6 8 -8 19 -4 11 3 22 1 26 -5 5 -8 14 -6 31 4 14 10 45 16 79 16
35 0 54 4 50 10 -3 6 -31 10 -61 10z"/>
<path d="M1590 778 c-14 0 -19 -2 -12 -5 6 -2 18 -2 25 0 6 3 1 5 -13 5z"/>
<path d="M1506 740 c-2 0 -10 -8 -17 -17 -13 -16 -12 -17 4 -4 9 7 17 15 17
17 0 2 -2 4 -4 4z"/>
<path d="M1315 610 c-5 0 -17 -5 -25 -10 -8 -5 -10 -10 -5 -10 6 0 17 5 25 10
8 5 11 10 5 10z"/>
<path d="M4090 598 c-17 0 -30 -3 -30 -7 0 -5 6 -13 13 -19 7 -6 32 -14 55
-18 26 -4 42 -3 42 4 0 5 -6 10 -12 9 -7 0 -26 1 -43 2 -27 1 -28 3 -13 15 16
12 15 13 -12 14z"/>
<path d="M1253 531 c-7 7 -13 7 -17 1 -3 -6 -1 -14 5 -17 5 -4 13 -4 16 -1 4
4 2 11 -4 17z"/>
<path d="M4024 410 c-1 0 -5 -4 -8 -9 -3 -5 3 -11 15 -14 16 -4 18 -3 8 9 -6
8 -13 14 -15 14z"/>
</g>
</svg>
