<?xml version="1.0" standalone="no"?>
<!DOCTYPE svg PUBLIC "-//W3C//DTD SVG 20010904//EN"
 "http://www.w3.org/TR/2001/REC-SVG-20010904/DTD/svg10.dtd">
<svg version="1.0" xmlns="http://www.w3.org/2000/svg"
 width="573.000000pt" height="186.000000pt" viewBox="0 0 573.000000 186.000000"
 preserveAspectRatio="xMidYMid meet">
<metadata>
Created by potrace 1.11, written by Peter Selinger 2001-2013
</metadata>
<g transform="translate(0.000000,186.000000) scale(0.100000,-0.100000)"
fill="#000000" stroke="none">
<path d="M3560 1700 l-20 0 0 -10 0 -10 20 0 20 0 0 10 0 10 -20 0z"/>
<path d="M3630 1690 l-9 0 2 -29 2 -29 8 5 7 4 0 25 0 24 -10 0z"/>
<path d="M3725 1674 l-15 20 0 -17 0 -17 10 0 9 0 -5 -15 -6 -15 11 0 11 0 0
13 -1 12 -14 19z"/>
<path d="M3749 1690 l-20 0 6 -10 6 -10 15 0 14 0 0 10 0 10 -21 0z"/>
<path d="M3800 1688 l-25 0 13 -5 12 -5 13 5 12 5 -25 0z"/>
<path d="M3570 1665 l-10 6 0 -10 0 -10 10 -6 10 -6 0 10 0 10 -10 6z"/>
<path d="M3795 1653 l-30 6 30 -13 30 -14 4 4 4 4 -4 4 -4 3 -30 6z"/>
<path d="M3705 1620 l-5 0 0 -9 0 -9 -27 -10 -28 -9 58 -1 59 -2 8 -5 9 -5 5
9 6 9 -40 16 -40 16 -5 0z"/>
<path d="M3940 1578 l-25 0 13 -5 12 -5 13 5 12 5 -25 0z"/>
<path d="M3399 1505 l-16 17 -7 -17 -6 -17 0 -19 0 -19 10 0 9 0 -5 -14 -6
-15 19 5 18 5 0 29 0 29 -16 16z"/>
<path d="M3504 1507 l-12 12 -6 -22 -6 -22 0 -22 0 -23 10 0 10 0 0 10 0 10
14 0 14 0 -6 23 -6 22 -12 12z"/>
<path d="M3960 1497 l-20 26 -1 -34 -1 -34 -3 -17 -3 -18 8 0 8 0 6 16 6 15
10 -6 10 -6 0 16 0 17 -20 25z"/>
<path d="M3257 1503 l-5 12 0 -25 0 -25 5 13 5 12 -5 13z"/>
<path d="M3758 1499 l-3 10 -17 -10 -18 -10 0 -14 0 -15 15 0 16 0 5 15 6 14
-4 10z"/>
<path d="M3830 1510 l-8 0 -4 -30 -5 -30 9 0 8 0 0 -15 0 -15 18 0 17 0 -1 30
-1 29 -13 16 -12 15 -8 0z"/>
<path d="M4042 1502 l-9 9 -11 -26 -12 -25 14 0 14 0 6 17 7 16 -9 9z"/>
<path d="M3592 1500 l-8 0 -20 -14 -19 -14 7 -7 6 -7 21 12 21 11 0 9 0 10 -8
0z"/>
<path d="M3297 1490 l-14 0 -6 -7 -7 -6 0 -8 0 -7 20 -5 20 -5 0 19 0 19 -13
0z"/>
<path d="M4176 1490 l-5 0 -6 -9 -5 -10 10 -6 10 -6 0 15 0 16 -4 0z"/>
<path d="M4299 1485 l-9 9 0 -31 0 -31 16 -6 16 -6 -7 27 -6 28 -10 10z"/>
<path d="M4130 1450 l-8 35 -2 -55 -2 -55 1 -11 1 -12 -17 -6 -17 -7 -13 17
-13 18 0 -16 0 -15 -55 -1 -55 0 0 19 0 19 -14 0 -15 0 -6 -10 -6 -10 18 0 18
-1 -18 -10 -18 -11 -101 5 -100 5 9 -9 9 -9 204 2 203 3 3 40 3 40 -9 35z"/>
<path d="M4406 1480 l-4 0 -4 -25 -5 -24 11 2 10 2 2 -12 2 -13 1 -7 1 -7 11
11 11 11 -16 31 -17 31 -3 0z"/>
<path d="M2924 1470 l-4 0 0 -10 0 -10 11 0 10 0 -6 10 -6 10 -5 0z"/>
<path d="M3670 1420 l-7 45 -3 -20 -2 -20 1 -9 2 -9 -6 -28 -7 -29 -13 0 -13
0 -5 13 -5 12 -1 -12 -1 -13 -47 0 -46 0 4 -4 4 -4 71 -6 72 -7 5 23 5 23 -8
45z"/>
<path d="M2991 1444 l-9 6 -5 -22 -6 -22 12 -8 12 -8 -15 -9 -14 -10 6 -6 7
-7 10 7 11 6 0 34 0 34 -9 5z"/>
<path d="M3101 1450 l-7 0 -12 -32 -12 -32 5 -5 5 -4 0 11 0 12 14 0 15 0 5 9
6 9 -6 16 -6 16 -7 0z"/>
<path d="M3516 1437 l-6 6 1 -19 1 -19 5 13 5 13 -6 6z"/>
<path d="M3571 1440 l-10 0 -6 -10 -6 -10 15 0 16 0 0 10 0 10 -9 0z"/>
<path d="M3211 1430 l-9 0 -5 -14 -6 -14 6 -6 6 -5 8 5 9 5 0 15 0 14 -9 0z"/>
<path d="M3978 1421 l-4 13 -8 -13 -8 -12 6 -6 6 -6 6 6 6 6 -4 12z"/>
<path d="M2778 1420 l-3 0 -15 -10 -15 -9 3 -64 4 -64 -23 -53 -22 -52 14 -8
14 -9 6 12 6 12 8 55 8 55 2 26 3 27 7 41 7 41 -4 0z"/>
<path d="M3290 1390 l-11 0 -6 -17 -7 -18 -10 -7 -11 -8 130 2 130 1 -35 4
-35 5 -8 14 -8 14 -11 0 -10 0 12 -15 12 -15 -31 0 -31 0 0 8 0 9 -15 0 -15 0
0 -9 0 -8 -15 0 -15 0 0 20 0 20 -10 0z"/>
<path d="M4566 1382 l-6 13 4 -22 4 -23 -9 -6 -9 -5 5 -10 6 -9 19 0 18 0 7
-27 7 -28 5 12 4 11 -20 38 -20 37 6 10 6 10 -11 -7 -10 -6 -6 12z"/>
<path d="M3475 1380 l-15 0 0 -10 0 -10 15 0 15 0 0 10 0 10 -15 0z"/>
<path d="M3558 1380 l-21 0 7 -7 7 -7 14 -2 15 -2 0 9 0 9 -22 0z"/>
<path d="M3740 1380 l-20 0 0 -10 0 -10 20 0 20 0 0 10 0 10 -20 0z"/>
<path d="M3801 1380 l-10 0 -6 -10 -6 -10 15 0 16 0 0 10 0 10 -9 0z"/>
<path d="M3855 1380 l-15 0 0 -10 0 -9 15 5 15 6 0 4 0 4 -15 0z"/>
<path d="M4014 1380 l-15 0 6 -10 6 -10 10 0 9 0 0 10 0 10 -16 0z"/>
<path d="M3230 1370 l-10 0 0 -10 0 -10 10 0 10 0 0 10 0 10 -10 0z"/>
<path d="M3190 1360 l-10 0 -6 -25 -6 -26 6 -7 7 -6 9 14 10 15 0 18 0 17 -10
0z"/>
<path d="M4250 1338 l-25 0 13 -5 12 -5 13 5 12 5 -25 0z"/>
<path d="M4528 1338 l-3 -1 -55 -7 -55 -7 58 -1 57 -2 0 10 0 10 -2 -2z"/>
<path d="M3017 1323 l-5 12 -1 -12 -1 -12 -17 -4 -18 -5 55 -1 55 -2 38 -5 37
-6 0 11 0 11 -14 0 -14 0 -5 13 -5 12 -1 -12 -1 -13 -31 0 -30 0 6 10 6 10
-10 0 -11 0 0 -10 0 -10 -14 0 -14 0 -5 13z"/>
<path d="M2821 1308 l-7 12 -7 -7 -7 -6 0 -9 0 -8 45 0 45 0 0 10 0 11 -15 5
-15 6 -16 -13 -16 -13 -7 12z"/>
<path d="M2957 1308 l-14 12 -14 -13 -14 -12 4 2 4 3 14 -12 14 -11 10 10 10
10 -14 11z"/>
<path d="M453 1309 l-42 1 -6 -11 -7 -10 3 -3 4 -2 45 12 45 12 -42 1z"/>
<path d="M4331 1287 l-18 11 6 -31 6 -32 12 -20 11 -20 7 7 6 6 -6 34 -6 34
-18 11z"/>
<path d="M4442 1272 l-25 23 11 -21 11 -20 -9 -13 -8 -13 17 -18 16 -17 8 4 7
4 0 20 0 19 11 0 10 0 -6 11 -7 10 -6 -5 -6 -6 -24 22z"/>
<path d="M1035 1278 l-30 0 18 -5 17 -5 13 5 12 5 -30 0z"/>
<path d="M4218 1275 l-6 6 -6 -18 -7 -18 12 12 13 13 -6 5z"/>
<path d="M1801 1254 l-51 2 0 -8 0 -8 57 0 56 0 -6 6 -5 6 -51 2z"/>
<path d="M1927 1259 l-2 -1 -25 -8 -25 -8 33 -1 33 -1 -6 10 -6 10 -2 -1z"/>
<path d="M3042 1252 l-10 10 -6 -10 -5 -9 -10 -26 -10 -27 22 4 22 3 3 23 4
22 -10 10z"/>
<path d="M4629 1256 l-9 5 0 -19 0 -20 14 -11 13 -11 -5 25 -4 25 -9 6z"/>
<path d="M2126 1248 l-166 -1 -6 -8 -5 -9 155 0 154 0 16 -6 16 -6 0 -15 0
-14 9 6 10 5 6 -10 6 -10 9 5 9 6 36 1 35 1 0 9 0 8 -42 1 -43 1 -11 -1 -12
-1 -5 19 -5 20 -166 -1z"/>
<path d="M2917 1246 l-5 5 -6 -16 -6 -17 0 -6 1 -7 10 18 11 19 -5 4z"/>
<path d="M3150 1240 l-9 15 -15 -35 -14 -35 5 -5 6 -5 4 13 5 12 14 0 14 0 0
13 0 12 -10 15z"/>
<path d="M3243 1241 l-22 8 6 -15 5 -14 8 0 7 0 11 -22 12 -23 -3 29 -2 29
-22 8z"/>
<path d="M2949 1235 l-6 5 -6 -7 -7 -6 0 -11 0 -10 12 12 12 12 -5 5z"/>
<path d="M4600 1230 l-9 0 5 -15 6 -15 4 0 4 0 0 15 0 15 -10 0z"/>
<path d="M2485 1198 l-30 0 18 -5 17 -5 13 5 12 5 -30 0z"/>
<path d="M2584 1188 l-42 9 -13 -8 -14 -9 23 0 23 0 49 -25 49 -25 21 0 20 0
0 29 0 28 -37 -4 -38 -4 -41 9z"/>
<path d="M3246 1170 l-14 0 -7 -29 -6 -29 -16 -7 -16 -6 -7 11 -7 11 -25 -10
-25 -10 -11 11 -11 11 -15 -13 -16 -12 -6 16 -6 16 -10 0 -11 0 -13 -17 -14
-18 -14 18 -13 17 -13 -15 -12 -15 -14 0 -14 0 0 9 0 10 -32 -10 -33 -9 -2 0
-2 0 -3 18 -4 17 -6 -22 -6 -23 189 0 189 0 20 33 20 32 0 8 0 7 -14 0z"/>
<path d="M4188 1163 l-8 12 0 -12 0 -12 22 -15 22 -16 21 0 20 1 -35 15 -34
15 -8 12z"/>
<path d="M4616 1167 l-6 6 1 -19 1 -19 5 13 5 13 -6 6z"/>
<path d="M2776 1147 l-6 6 1 -19 1 -19 5 13 5 13 -6 6z"/>
<path d="M4318 1140 l-3 9 -14 -8 -13 -8 11 -7 11 -7 0 5 0 6 23 -9 22 -8 45
7 45 7 -62 2 -61 1 -4 10z"/>
<path d="M4488 1149 l-13 -1 13 -5 12 -5 -6 -9 -5 -9 21 0 21 0 -15 15 -15 15
-13 -1z"/>
<path d="M4027 1123 l-5 12 -1 -12 -1 -13 -25 0 -25 0 0 -10 0 -10 26 0 26 0
-5 -20 -5 -20 9 0 9 0 0 25 0 25 10 0 10 0 0 -25 0 -25 10 0 10 0 0 9 0 9 58
6 57 5 25 1 25 1 -22 11 -23 11 0 14 0 13 -11 0 -10 0 5 -8 5 -8 -10 -14 -9
-15 0 13 0 12 -64 0 -64 0 -5 13z"/>
<path d="M3930 1110 l-20 0 0 -11 0 -10 10 6 10 6 -6 -15 -6 -16 -9 0 -9 0 0
-10 0 -10 45 0 46 0 -21 22 -20 22 0 8 0 8 -20 0z"/>
<path d="M4530 1107 l-65 0 33 -4 32 -4 33 4 32 4 -65 0z"/>
<path d="M3565 1085 l-110 4 -64 -9 -63 -9 -6 -6 -5 -5 64 0 64 0 160 -5 160
-5 -45 15 -45 16 -110 4z"/>
<path d="M4396 1090 l-5 0 -6 -10 -6 -10 10 0 11 0 0 10 0 10 -4 0z"/>
<path d="M5227 1080 l-2 -1 -18 -10 -17 -10 5 -10 6 -9 8 0 9 0 5 20 5 20 -1
0z"/>
<path d="M4906 1070 l-5 0 -6 -10 -6 -10 10 0 11 0 0 10 0 10 -4 0z"/>
<path d="M4930 1065 l-10 6 0 -15 0 -16 10 0 10 0 0 9 0 10 -10 6z"/>
<path d="M4990 1060 l-20 0 0 -9 0 -9 20 5 20 5 0 4 0 4 -20 0z"/>
<path d="M5555 1030 l-11 0 -22 -16 -22 -15 0 -12 1 -12 12 16 12 15 20 12 20
11 -10 1z"/>
<path d="M2650 1010 l-10 0 0 -11 0 -10 10 6 10 6 0 5 0 4 -10 0z"/>
<path d="M2734 1009 l-19 -1 13 -5 13 -5 6 6 6 6 -19 -1z"/>
<path d="M2604 999 l-19 -1 13 -5 13 -5 6 6 6 6 -19 -1z"/>
<path d="M3001 990 l-9 0 -6 -15 -5 -15 8 0 9 0 6 15 5 15 -8 0z"/>
<path d="M3452 983 l-7 3 -42 -15 -43 -15 0 -8 0 -8 19 0 20 0 6 11 7 10 12
-4 11 -4 12 13 13 13 -8 4z"/>
<path d="M2435 964 l-15 5 0 -14 0 -15 15 0 15 0 0 9 0 9 -15 6z"/>
<path d="M3070 970 l-9 0 5 -15 6 -15 4 0 4 0 0 15 0 15 -10 0z"/>
<path d="M3496 968 l-25 -2 5 -8 5 -8 20 0 19 0 0 10 0 10 -24 -2z"/>
<path d="M3653 967 l-18 -1 -25 -7 -25 -7 37 -1 37 -1 6 9 5 10 -17 -2z"/>
<path d="M3555 958 l-30 0 18 -5 17 -5 13 5 12 5 -30 0z"/>
<path d="M5432 958 l-12 4 6 -16 6 -16 10 0 10 0 -4 12 -4 12 -12 4z"/>
<path d="M1989 940 l-9 0 0 -10 0 -10 16 0 15 0 -6 10 -6 10 -10 0z"/>
<path d="M3039 940 l-24 0 -15 -10 -15 -10 35 6 35 7 4 3 4 4 -24 0z"/>
<path d="M3119 920 l-9 0 0 -9 0 -9 31 -7 30 -7 6 6 6 5 -27 11 -27 10 -10 0z"/>
<path d="M4761 897 l-20 -1 5 -8 5 -8 15 0 14 0 0 9 0 10 -19 -2z"/>
<path d="M5429 899 l-24 -1 17 -5 17 -4 -21 -35 -20 -34 9 0 8 0 13 28 14 27
5 13 5 12 -23 -1z"/>
<path d="M3240 883 l-45 6 44 -15 45 -14 4 5 5 5 -4 4 -4 3 -45 6z"/>
<path d="M4489 890 l-10 0 6 -10 6 -10 -13 0 -13 0 15 -10 15 -9 9 9 8 8 -6
11 -7 11 -10 0z"/>
<path d="M3813 880 l-16 0 9 -7 9 -8 7 -10 8 -10 0 18 0 17 -17 0z"/>
<path d="M3380 870 l-10 0 0 -11 0 -10 10 6 10 6 0 5 0 4 -10 0z"/>
<path d="M3685 853 l-14 6 -6 -9 -6 -10 20 0 21 0 0 4 0 4 -15 5z"/>
<path d="M5298 849 l-3 9 -18 -24 -18 -24 9 0 10 0 12 15 12 14 -4 10z"/>
<path d="M4578 840 l-8 0 0 -8 0 -8 22 -1 23 -2 -15 9 -15 10 -7 0z"/>
<path d="M4654 829 l-19 -1 13 -5 13 -5 6 6 6 6 -19 -1z"/>
<path d="M5310 809 l-5 0 -30 -20 -30 -19 11 0 12 0 23 20 24 19 -5 0z"/>
<path d="M5392 810 l-8 0 5 -42 5 -43 6 35 6 35 -4 8 -3 7 -7 0z"/>
<path d="M5339 767 l-27 11 -11 -11 -11 -11 0 -13 0 -13 -7 0 -8 0 -17 -30
-17 -30 23 -23 22 -22 19 -15 18 -15 -6 38 -6 37 22 21 22 20 -23 5 -22 6 5 9
6 8 24 -9 24 -9 7 10 6 11 -8 7 -9 7 -26 11z"/>
<path d="M2047 688 l-118 7 -2 -2 -2 -2 -45 -5 -45 -5 -80 -6 -80 -7 -15 -4
-15 -4 -19 -35 -19 -35 6 -7 7 -6 55 -3 55 -2 0 13 0 14 -22 3 -21 3 -4 10 -3
11 55 2 55 2 0 -4 0 -5 -10 -27 -10 -26 11 -14 11 -14 18 0 17 0 29 43 28 42
-3 25 -3 24 19 -14 18 -15 5 -5 5 -5 35 -13 35 -14 15 -4 15 -5 22 20 22 21
26 -10 25 -10 0 14 0 14 20 5 20 5 0 -13 0 -14 -10 -6 -10 -6 5 -22 6 -22 2
-23 1 -23 16 -14 16 -14 48 14 48 15 39 -9 38 -9 33 -19 33 -18 23 -45 22 -44
0 -50 0 -49 -21 -42 -21 -43 -37 -20 -36 -20 -40 -11 -39 -11 -38 11 -38 10
-37 32 -36 32 -13 32 -14 32 0 26 0 25 -25 0 -25 0 0 -11 0 -11 13 5 14 5 17
-54 17 -55 34 -34 35 -34 37 -10 38 -11 36 0 36 0 46 20 47 21 26 34 26 34 14
47 14 46 -6 27 -6 26 10 -14 10 -14 6 21 7 21 -17 26 -17 26 14 -3 14 -3 -2
12 -3 13 27 6 27 7 4 -13 4 -12 9 13 8 14 31 -19 31 -18 6 5 5 6 -6 10 -6 9
-33 7 -32 6 -18 5 -17 5 6 11 7 10 33 -5 34 -6 0 10 0 9 11 0 11 0 -5 -19 -5
-19 21 -6 22 -5 9 9 10 10 -22 0 -22 0 0 9 0 9 19 5 19 5 10 -10 10 -10 22 12
22 12 5 -5 5 -5 -22 -7 -21 -7 -29 -28 -29 -28 -16 -37 -15 -37 0 -50 0 -49
15 -36 16 -37 17 -19 17 -19 39 -20 39 -20 60 0 60 0 41 29 41 29 22 32 22 33
6 53 7 54 -22 48 -21 49 -26 27 -25 26 6 11 7 11 10 0 9 0 0 -16 0 -15 24 -32
24 -32 15 -50 15 -50 7 30 8 30 11 7 11 8 -22 0 -23 0 0 8 0 9 8 7 7 8 0 11 0
12 43 3 44 3 25 -16 25 -17 10 10 10 10 -28 16 -29 15 18 1 17 0 18 -11 18
-11 -23 -46 -23 -45 0 -52 0 -51 23 -44 22 -45 43 -30 44 -30 78 0 78 0 39 31
38 31 22 32 22 32 6 42 7 42 -22 58 -21 57 -9 0 -8 0 -6 15 -6 15 19 -9 18
-10 16 -33 15 -33 7 -33 7 -34 14 28 15 28 -14 13 -14 14 5 24 4 23 21 6 22 6
13 -17 12 -17 0 18 0 17 23 -6 22 -7 9 -9 10 -9 8 0 8 0 0 9 0 8 -45 18 -46
17 -14 -6 -15 -5 0 16 0 16 -20 -26 -21 -26 -16 6 -16 6 15 11 14 11 7 18 6
17 21 0 20 0 0 -11 0 -11 14 11 14 12 5 -13 5 -13 48 -14 49 -14 8 1 7 2 0 -7
0 -7 -27 -40 -28 -39 0 -73 0 -72 32 -45 33 -45 -25 -16 -24 -16 -11 0 -10 0
-1 -7 -1 -8 -3 -17 -3 -18 8 0 8 0 6 15 5 15 26 10 25 10 0 15 0 15 5 0 6 0
32 -17 32 -16 55 -1 55 0 35 18 35 18 23 22 24 21 14 27 14 26 6 54 6 53 -26
55 -26 55 20 -23 20 -24 12 -39 11 -40 8 13 8 13 -6 39 -6 38 14 9 14 9 35 0
36 0 22 -16 23 -16 7 7 7 7 -19 13 -19 14 -43 7 -44 6 0 9 0 9 29 0 30 0 6 10
6 9 14 -5 14 -6 -7 -16 -6 -16 24 21 23 22 9 -5 8 -5 0 -10 0 -9 -15 0 -15 0
0 -8 0 -9 6 -6 6 -5 46 29 46 29 15 0 16 -1 -35 -15 -35 -15 -23 -22 -24 -22
-21 -40 -21 -40 0 -55 1 -55 16 -30 16 -30 24 -28 25 -28 52 -18 51 -18 52 9
52 10 34 25 33 26 19 41 19 41 0 58 0 58 -21 41 -21 41 -29 24 -29 25 4 6 4 7
38 0 37 0 4 -12 5 -13 -21 0 -21 0 0 -6 0 -6 25 -30 24 -29 12 -42 11 -41 -7
-50 -6 -49 -15 -28 -14 -28 0 -8 1 -8 25 30 26 30 -6 -25 -6 -25 25 50 25 50
0 12 0 12 -17 9 -16 10 0 48 1 49 16 35 16 35 -6 -35 -5 -35 10 15 11 15 0
-18 0 -17 31 2 31 2 9 18 10 18 -11 19 -10 20 0 8 0 8 20 -25 20 -25 0 25 1
25 10 -17 10 -18 15 0 16 0 19 23 20 22 -11 -23 -12 -24 7 -6 6 -7 19 25 20
25 0 -8 0 -8 -10 -20 -11 -19 11 -20 11 -20 29 0 30 0 0 6 0 5 -10 20 -11 19
10 0 9 0 10 -27 10 -28 1 20 0 20 -14 25 -14 25 -1 8 0 8 9 -5 9 -6 6 16 6 16
0 4 0 4 -19 -12 -20 -12 -18 17 -19 16 -154 2 -155 1 -18 -7 -18 -8 -24 13
-24 13 -25 -21 -26 -20 12 -5 13 -6 -50 6 -50 5 -13 4 -13 4 5 9 6 9 -12 4
-13 5 -13 -14 -13 -13 -20 0 -19 0 0 15 0 15 -27 -1 -28 0 20 -8 20 -8 -24 -8
-24 -7 -15 18 -14 19 -5 -12 -5 -13 -14 0 -15 0 6 -10 6 -10 -22 0 -21 0 5 20
5 20 -18 0 -18 0 -4 -9 -3 -8 -22 -7 -23 -7 0 15 0 16 -21 0 -20 0 6 -10 6
-10 -25 0 -26 0 0 10 0 10 -25 0 -25 0 0 -16 0 -15 33 -14 34 -14 13 -16 13
-15 -44 25 -44 25 -27 0 -26 0 5 20 5 20 -12 0 -11 0 -15 -14 -14 -14 13 -5
12 -5 -22 -1 -23 -1 -1 13 -1 12 1 8 1 7 -20 0 -20 0 0 -10 0 -10 -30 0 -30 0
0 10 0 10 -15 0 -15 0 0 -10 0 -10 -27 1 -28 0 20 9 20 9 -32 0 -33 1 0 -10 0
-10 -20 0 -20 0 0 10 0 10 -20 0 -20 0 0 -10 0 -10 -26 0 -25 0 6 10 6 10 -16
0 -15 0 -20 -12 -21 -13 -7 11 -7 11 -15 5 -15 5 -15 -18 -15 -17 -60 -5 -60
-4 35 9 35 10 20 8 20 9 -23 0 -23 1 -20 -10 -19 -11 -26 17 -26 17 -7 -12 -8
-12 -27 11 -27 10 -20 0 -20 0 6 -10 6 -10 -15 0 -15 0 -6 10 -6 10 -20 0 -19
0 0 -14 0 -15 -21 -6 -21 -7 -5 6 -6 6 10 0 11 0 6 15 5 15 -42 0 -42 0 15
-10 15 -10 -22 0 -23 0 0 10 0 10 -21 0 -20 0 6 -10 6 -10 -21 0 -21 0 6 10 6
10 -46 0 -46 0 13 -14 14 -14 20 -5 19 -5 -30 -1 -30 -1 -14 9 -14 9 7 11 7
11 -20 0 -21 0 0 -10 0 -10 -16 0 -15 0 5 9 6 9 -66 4 -67 3 -4 -12 -5 -13
-24 0 -24 0 0 10 0 9 -35 -1 -34 -1 6 -11 7 -11 -17 13 -16 14 -31 -7 -30 -7
0 14 0 13 -43 18 -42 17 -18 0 -17 0 0 9 0 9 -28 7 -29 6 -24 -9 -24 -9 -12 4
-13 5 0 9 0 9 25 -6 25 -6 0 10 0 11 -33 6 -32 6 -118 7z m33 -18 l10 0 0 -4
0 -5 -10 -6 -10 -6 0 10 0 11 10 0z m200 -47 l20 -5 0 -9 0 -9 -4 0 -4 0 -16
6 -16 6 0 8 0 8 20 -5z m-121 -3 l9 0 16 -6 16 -6 0 -14 0 -14 -13 0 -13 0
-12 12 -12 12 0 8 0 8 9 0z m201 -20 l10 0 0 -10 0 -10 -10 0 -10 0 0 10 0 10
10 0z m-55 -30 l15 0 0 -11 0 -11 30 4 30 5 0 -14 0 -13 8 0 8 0 31 -27 30
-28 12 -25 12 -25 -35 41 -35 41 -47 18 -46 17 -57 -6 -56 -6 15 10 15 10 28
0 27 0 0 10 0 10 15 0z m380 -12 l30 0 -12 -5 -13 -5 -17 5 -18 5 30 0z m109
-19 l19 1 -6 -6 -6 -6 -13 5 -13 5 19 1z m2045 0 l4 1 -23 -25 -23 -25 -9 0
-8 0 0 19 0 20 28 4 27 4 4 2z m-2365 -9 l16 0 0 -9 0 -9 6 -16 6 -16 -16 0
-16 0 0 9 0 9 -6 16 -6 16 16 0z m30 0 l4 0 16 -6 16 -6 0 -8 0 -9 -20 2 -20
1 0 13 0 13 4 0z m415 0 l10 0 6 -10 6 -10 -15 6 -16 6 0 4 0 4 9 0z m95 -2
l21 -3 0 -10 0 -10 -21 -3 -21 -3 0 16 0 16 21 -3z m116 2 l10 0 0 -13 0 -13
-46 -12 -47 -13 -3 3 -3 4 7 11 8 12 32 3 32 2 0 8 0 8 10 0z m56 -3 l6 -6 -5
-13 -5 -13 -1 19 -1 19 6 -6z m105 3 l11 0 -4 -12 -4 -11 -25 -15 -24 -14 18
15 17 14 0 12 0 11 11 0z m-436 -14 l50 -6 40 -28 40 -28 17 -34 17 -35 1 -43
0 -43 -20 -47 -21 -47 -42 -30 -42 -30 -60 0 -60 0 -36 24 -36 25 -23 34 -24
33 0 62 -1 62 25 43 24 43 51 25 50 25 50 -5z m671 4 l14 0 0 -8 0 -9 -6 -6
-6 -6 -14 6 -14 5 6 9 5 9 15 0z m315 -3 l51 1 -33 -20 -32 -19 -7 11 -7 12
-9 -2 -8 -1 -3 8 -3 9 51 1z m323 -1 l36 0 0 -12 0 -12 -36 -4 -35 -4 -5 8 -5
8 5 8 5 8 35 0z m-765 -6 l44 0 43 -22 44 -21 27 -40 28 -40 0 -67 0 -66 -32
-41 -33 -41 -37 -18 -38 -18 -56 1 -56 1 -30 16 -31 15 -31 42 -30 42 -7 43
-6 42 7 32 7 31 31 36 32 36 40 18 40 19 44 0z m591 -7 l34 -5 37 -19 37 -19
24 -32 23 -33 0 -76 0 -76 -28 -36 -28 -37 -39 -20 -39 -20 -46 0 -46 0 -33
14 -33 14 -23 23 -22 24 -19 40 -19 40 0 34 0 35 21 43 21 44 35 26 34 26 37
8 37 7 35 -5z m529 -4 l45 1 42 -21 43 -20 21 -36 21 -35 5 -42 6 -41 -11 -43
-12 -43 -37 -37 -37 -37 -48 -13 -49 -12 -39 10 -39 11 -37 32 -36 32 -13 32
-14 32 0 46 0 46 19 37 19 37 24 21 23 21 30 11 30 10 44 1z m515 1 l4 0 13
-17 14 -18 -17 14 -18 13 0 4 0 4 4 0z m-234 -20 l9 0 -5 -15 -6 -15 -4 0 -4
0 0 15 0 15 10 0z"/>
<path d="M2830 488 l-35 1 -21 -9 -20 -8 -32 -36 -32 -37 0 -12 0 -12 33 37
32 36 22 11 22 11 41 0 41 0 21 -11 20 -11 -4 13 -4 13 -25 7 -24 7 -35 0z"/>
<path d="M2756 360 l-4 0 -6 -15 -5 -15 9 0 10 0 0 15 0 15 -4 0z"/>
<path d="M2907 328 l-4 27 -2 -19 -1 -19 -26 -34 -25 -33 9 0 8 0 23 26 22 26
-4 26z"/>
<path d="M2938 265 l-6 7 -9 -15 -8 -14 -20 -11 -20 -11 11 -1 12 0 23 19 24
19 -7 7z"/>
<path d="M3384 480 l-51 0 -27 -21 -26 -21 -16 -31 -15 -32 20 25 21 25 0 6 0
6 40 18 39 18 19 -5 20 -6 13 9 14 9 -51 0z"/>
<path d="M3469 460 l-9 0 0 -4 0 -4 16 -6 15 -6 -6 10 -6 10 -10 0z"/>
<path d="M3475 320 l-4 0 -23 -30 -22 -30 -18 0 -18 0 0 -10 0 -10 20 0 21 0
24 25 25 24 0 16 0 15 -5 0z"/>
<path d="M3979 475 l-44 4 -29 -7 -29 -7 -25 -35 -26 -35 24 21 25 22 21 10
21 11 44 2 44 2 25 -12 25 -13 -16 17 -17 17 -43 3z"/>
<path d="M4034 320 l-6 0 -5 -20 -5 -20 -17 12 -16 13 14 -18 15 -19 -14 -8
-13 -8 -14 5 -13 5 0 -11 0 -11 21 0 22 0 18 22 19 21 0 19 0 18 -6 0z"/>
<path d="M4522 467 l-67 2 -27 -17 -26 -16 -12 -24 -11 -25 4 -4 4 -4 17 26
16 25 36 15 35 15 42 -4 42 -3 20 -8 20 -8 -13 14 -13 14 -67 2z"/>
<path d="M4374 370 l-5 0 -6 -15 -5 -16 4 -5 5 -5 6 21 5 20 -4 0z"/>
<path d="M4592 310 l-8 0 -17 -30 -18 -30 -19 0 -19 0 -6 -10 -6 -10 18 0 19
0 24 17 25 17 7 10 8 11 0 13 0 12 -8 0z"/>
<path d="M4549 300 l-4 0 -15 -10 -14 -9 5 -6 6 -5 13 15 12 15 -3 0z"/>
<path d="M5254 598 l-30 33 -16 -18 -15 -18 -12 -22 -12 -23 -34 0 -35 0 0
-12 0 -13 6 -22 6 -23 7 0 6 0 17 30 17 30 16 0 15 0 0 12 0 12 11 -11 11 -11
-4 -41 -4 -41 8 0 8 0 0 25 0 24 11 25 12 25 20 3 21 3 -30 33z"/>
<path d="M1760 610 l-10 0 0 -11 0 -10 10 6 10 6 0 5 0 4 -10 0z"/>
<path d="M2093 590 l-18 -1 -16 -12 -16 -12 -5 -45 -5 -45 24 -19 25 -18 13
13 14 14 2 35 3 35 -2 28 -2 27 -17 0z"/>
<path d="M4536 550 l-15 0 -6 -10 -6 -10 20 0 21 0 0 10 0 10 -14 0z"/>
<path d="M1719 518 l-4 10 -14 -15 -13 -14 4 -4 4 -4 13 8 13 9 -3 10z"/>
<path d="M1956 527 l-6 6 1 -19 1 -19 5 13 5 13 -6 6z"/>
<path d="M1999 526 l-9 5 0 -18 0 -19 -12 -12 -12 -12 -23 0 -22 0 6 -16 6
-16 6 9 6 8 27 14 26 13 5 19 5 19 -9 6z"/>
<path d="M1798 510 l-28 0 0 -19 0 -19 15 -35 15 -36 19 -11 20 -10 11 0 10 0
10 25 9 24 -26 41 -27 40 -28 0z"/>
<path d="M2171 480 l-10 0 -7 -12 -7 -11 11 7 12 7 0 -10 0 -11 -10 0 -10 0 3
-12 2 -13 -11 2 -12 2 -5 -18 -4 -18 19 5 19 5 -6 5 -5 6 27 29 28 30 -12 -7
-13 -7 0 10 0 11 -9 0z"/>
<path d="M1731 444 l-9 6 -5 -14 -6 -14 6 -6 6 -6 9 0 8 0 0 14 0 15 -9 5z"/>
<path d="M5126 450 l-3 0 -7 -7 -6 -7 27 -12 28 -11 8 4 8 5 -26 14 -27 14 -2
0z"/>
<path d="M2000 440 l-6 0 -10 -10 -10 -10 -26 -2 -27 -2 -9 -22 -10 -21 8 -13
8 -13 47 5 47 6 21 20 20 21 -24 20 -24 20 -5 1z"/>
<path d="M2237 410 l-7 0 -20 -20 -20 -20 1 -17 1 -18 5 15 6 15 20 23 20 22
-6 0z"/>
<path d="M4810 400 l-40 0 0 -10 0 -10 9 0 9 0 6 -27 6 -28 15 -19 15 -20 15
20 15 19 -3 20 -2 20 -30 6 -30 7 28 1 27 1 0 10 0 10 -40 0z"/>
<path d="M5056 400 l-46 0 0 -10 0 -10 39 0 40 0 6 10 6 10 -45 0z"/>
<path d="M4980 390 l-10 0 0 -16 0 -16 -20 -5 -20 -5 0 -9 0 -8 22 8 21 8 8
21 8 22 -9 0z"/>
<path d="M1776 370 l-5 0 -6 -10 -6 -10 10 0 11 0 0 10 0 10 -4 0z"/>
<path d="M4774 370 l-4 0 0 -19 0 -20 9 -5 8 -5 -5 24 -4 25 -4 0z"/>
<path d="M5032 368 l-22 3 -7 -17 -6 -17 18 -33 18 -34 14 11 13 11 0 10 0 9
-8 -5 -9 -5 0 14 0 15 8 0 7 0 -2 18 -3 17 -21 3z"/>
<path d="M5086 363 l-4 12 -1 -12 -1 -11 -6 -19 -6 -18 12 18 11 18 -5 12z"/>
<path d="M2360 335 l-10 6 0 -15 0 -16 -21 -21 -21 -21 -14 6 -14 5 0 -14 0
-15 14 0 15 0 24 23 23 22 7 17 6 17 -9 6z"/>
<path d="M4880 325 l-9 6 -16 -30 -15 -30 0 -11 0 -10 8 0 8 0 17 35 16 34 -9
6z"/>
<path d="M4980 320 l-10 0 0 -5 0 -6 15 -29 16 -30 9 0 10 0 0 5 0 6 -15 29
-16 30 -9 0z"/>
<path d="M2526 309 l-1 -1 -12 -5 -13 -5 -10 -38 -11 -39 -26 -31 -25 -31 3
-2 4 -2 33 -12 32 -11 0 8 0 9 -17 10 -18 10 21 23 22 23 10 48 10 47 -2 -1z"/>
<path d="M2631 277 l-6 32 -22 -25 -23 -26 0 -4 0 -4 20 0 20 0 0 -15 0 -15
11 0 10 0 -5 -9 -6 -9 15 -6 15 -5 0 5 0 5 -12 22 -12 22 -5 32z"/>
<path d="M3065 304 l-14 5 -7 -32 -6 -32 -15 -28 -14 -28 -17 -20 -17 -21 -27
-14 -27 -14 2 -20 1 -20 9 0 9 0 -5 19 -5 19 27 7 26 6 27 32 28 32 0 8 0 7
11 0 10 0 -7 -12 -7 -11 11 7 12 7 -6 23 -5 23 55 0 56 0 0 -8 0 -8 -15 -8
-14 -8 34 -11 34 -11 -10 18 -9 18 -8 37 -7 37 -15 -15 -15 -15 -28 -7 -29 -7
-5 20 -5 20 -13 5z"/>
<path d="M4793 310 l-4 0 11 -20 11 -20 11 0 11 0 -18 20 -18 20 -4 0z"/>
<path d="M4929 310 l-28 0 -11 -19 -10 -20 0 -10 0 -11 23 -1 22 -1 -30 -8
-30 -8 23 -1 22 -1 18 9 17 10 17 5 18 5 -12 26 -11 25 -28 0z"/>
<path d="M3625 300 l-4 0 -11 -39 -10 -38 -24 -35 -24 -36 20 6 19 5 21 41 21
41 9 6 10 6 -11 22 -12 21 -4 0z"/>
<path d="M3736 290 l-11 0 -13 -20 -12 -20 0 -5 0 -5 20 0 20 0 0 -14 0 -14
17 -13 17 -14 -8 20 -8 20 -5 33 -6 32 -11 0z"/>
<path d="M4195 276 l-14 19 -1 -19 0 -18 -31 -59 -32 -59 -13 0 -14 0 0 -10 0
-10 15 0 15 0 0 11 0 10 20 -6 20 -6 0 26 0 26 15 5 15 6 0 22 0 22 10 10 10
10 -15 20z"/>
<path d="M4298 270 l-4 14 -7 -17 -6 -17 -26 0 -25 0 0 -10 0 -10 18 0 18 0
18 13 19 14 -5 13z"/>
<path d="M3680 260 l-10 0 0 -15 0 -15 4 0 4 0 6 15 5 15 -9 0z"/>
<path d="M5050 250 l-10 0 0 -11 0 -10 10 6 10 6 0 5 0 4 -10 0z"/>
<path d="M4965 238 l-30 0 18 -5 17 -5 13 5 12 5 -30 0z"/>
<path d="M2587 220 l-17 0 0 -17 0 -18 8 10 7 10 9 8 9 7 -16 0z"/>
<path d="M2051 200 l-9 0 -6 -15 -5 -15 14 0 15 0 0 15 0 15 -9 0z"/>
<path d="M2683 172 l-8 4 -33 -17 -34 -17 -6 -8 -7 -7 29 7 29 7 19 14 19 13
-8 4z"/>
<path d="M3217 180 l-9 0 5 -12 4 -13 12 0 12 0 9 -15 9 -14 7 7 7 6 -24 20
-24 20 -8 1z"/>
<path d="M3803 163 l-9 5 -24 -19 -25 -20 25 6 25 7 8 8 9 8 -9 5z"/>
<path d="M4346 160 l-15 0 -5 -9 -6 -8 -30 -6 -30 -6 0 -11 0 -10 20 0 20 0
20 20 21 21 9 -6 10 -6 0 10 0 11 -14 0z"/>
<path d="M3621 140 l-31 9 0 -9 0 -8 23 -6 22 -6 14 0 14 0 -5 5 -5 6 -32 9z"/>
<path d="M3125 140 l-35 0 0 -10 0 -10 -17 0 -17 0 13 -12 14 -13 4 13 5 12
34 0 34 0 0 10 0 10 -35 0z"/>
<path d="M2198 125 l-6 6 -6 -18 -7 -18 12 12 13 13 -6 5z"/>
<path d="M2560 129 l-15 0 20 -9 20 -9 10 0 10 -1 -15 10 -15 10 -15 -1z"/>
<path d="M2669 127 l-28 2 -6 -8 -5 -9 25 -4 25 -5 9 11 9 11 -29 2z"/>
<path d="M2428 120 l-10 0 11 -13 11 -14 -8 -8 -7 -8 12 7 12 7 -6 14 -5 15
-10 0z"/>
<path d="M3233 114 l-18 7 12 -12 13 -13 5 6 6 6 -18 6z"/>
<path d="M3335 110 l-4 0 2 -19 1 -20 8 5 7 5 -6 14 -5 15 -3 0z"/>
<path d="M2855 100 l-4 0 -6 -11 -7 -10 5 -5 5 -5 5 16 6 15 -4 0z"/>
<path d="M3429 95 l-4 3 -13 -14 -13 -14 10 0 10 0 6 11 7 10 -3 4z"/>
<path d="M4594 100 l-5 0 -6 -15 -5 -16 4 -5 5 -5 6 21 5 20 -4 0z"/>
<path d="M3010 90 l-10 0 0 -11 0 -10 10 6 10 6 0 5 0 4 -10 0z"/>
<path d="M3170 90 l-10 0 0 -11 0 -10 10 6 10 6 0 5 0 4 -10 0z"/>
<path d="M4506 87 l-6 6 1 -19 1 -19 5 13 5 13 -6 6z"/>
<path d="M3840 80 l-10 0 0 -11 0 -10 10 6 10 6 0 5 0 4 -10 0z"/>
</g>
</svg>
