<?xml version="1.0" standalone="no"?>
<!DOCTYPE svg PUBLIC "-//W3C//DTD SVG 20010904//EN"
 "http://www.w3.org/TR/2001/REC-SVG-20010904/DTD/svg10.dtd">
<svg version="1.0" xmlns="http://www.w3.org/2000/svg"
 width="146.000000pt" height="146.000000pt" viewBox="0 0 146.000000 146.000000"
 preserveAspectRatio="xMidYMid meet">
<metadata>
Created by potrace 1.11, written by Peter Selinger 2001-2013
</metadata>
<g transform="translate(0.000000,146.000000) scale(0.100000,-0.100000)"
fill="#000000" stroke="none">
<path d="M0 730 l0 -730 730 0 730 0 0 730 0 730 -730 0 -730 0 0 -730z m1450
0 l0 -720 -720 0 -720 0 0 720 0 720 720 0 720 0 0 -720z"/>
<path d="M740 923 c-19 -8 -69 -21 -110 -29 -68 -13 -95 -12 -283 8 -186 19
-232 20 -215 3 3 -3 97 -17 209 -31 112 -14 215 -31 229 -36 24 -10 24 -11 5
-18 -11 -5 -30 -9 -43 -9 -13 -1 -20 -5 -17 -11 3 -5 -10 -16 -30 -24 -37 -16
-41 -25 -26 -54 5 -9 12 -25 15 -35 3 -10 31 -29 63 -43 l57 -25 280 3 c313 4
336 8 336 60 0 28 2 29 32 23 26 -6 30 -5 25 9 -4 10 4 38 17 64 l24 47 -135
0 -134 0 6 23 c3 12 -1 35 -9 50 -14 27 -17 28 -103 30 -49 1 -105 4 -124 6
-19 2 -50 -3 -69 -11z"/>
</g>
</svg>
