<?xml version="1.0" standalone="no"?>
<!DOCTYPE svg PUBLIC "-//W3C//DTD SVG 20010904//EN"
 "http://www.w3.org/TR/2001/REC-SVG-20010904/DTD/svg10.dtd">
<svg version="1.0" xmlns="http://www.w3.org/2000/svg"
 width="1460.000000pt" height="1460.000000pt" viewBox="0 0 1460.000000 1460.000000"
 preserveAspectRatio="xMidYMid meet">
<metadata>
Created by potrace 1.11, written by Peter Selinger 2001-2013
</metadata>
<g transform="translate(0.000000,1460.000000) scale(0.100000,-0.100000)"
fill="#000000" stroke="none">
<path d="M7300 14600 l-7300 0 0 -7300 0 -7300 7300 0 7300 0 0 7300 0 7300
-7300 0z m-3 -91 l7142 1 25 -11 24 -11 11 -24 11 -25 0 -7139 0 -7139 -11
-25 -11 -24 -24 -11 -25 -11 -7139 0 -7139 0 -25 11 -24 11 -11 24 -11 25 0
7139 0 7139 11 25 11 24 22 10 21 11 7142 0z"/>
<path d="M7081 8869 l-6 0 -20 -9 -20 -8 -24 -33 -25 -34 -32 -35 -32 -35 -47
-52 -46 -51 -33 -16 -33 -15 -562 -1 -563 -2 -37 26 -37 26 -14 0 -14 0 -37
-26 -38 -26 -493 -4 -493 -4 -125 -5 -125 -4 -93 9 -94 9 -88 42 -89 42 -83
-8 -83 -7 -32 -13 -33 -14 -9 -23 -9 -23 -16 -52 -16 -52 0 -23 0 -24 33 -32
34 -33 26 -7 26 -7 98 6 98 5 75 34 75 33 85 5 85 5 575 -12 575 -13 36 -9 36
-9 18 -20 17 -19 0 -407 -1 -406 -18 -20 -18 -20 -55 -38 -55 -38 -84 -85 -84
-85 -13 -24 -13 -23 -1 -24 0 -23 48 -44 47 -43 0 -145 0 -144 33 -38 33 -39
23 -50 24 -50 19 -17 19 -18 100 -28 99 -29 56 -31 56 -32 15 0 16 0 93 -30
93 -31 32 -20 32 -20 54 -15 53 -16 56 -28 55 -28 65 -12 64 -11 60 -16 60
-15 1380 0 1380 0 124 26 124 26 36 0 37 0 72 36 73 35 57 10 57 10 35 8 35 9
50 20 50 19 85 28 85 27 47 25 46 25 41 41 41 40 35 70 35 70 0 66 0 66 -15
70 -15 70 0 22 0 23 25 16 25 16 37 -7 36 -7 63 -60 62 -60 23 4 22 3 10 16
10 16 -6 24 -6 24 -63 74 -63 75 -51 57 -52 57 -7 33 -8 34 -29 33 -29 34 3
15 3 16 60 36 60 36 9 28 10 28 -11 17 -11 17 -18 -2 -19 -1 -45 -17 -45 -16
-45 -6 -45 -5 -25 20 -25 20 -5 140 -5 140 -18 20 -18 20 -67 5 -67 6 -85 11
-85 11 -100 26 -100 25 -90 8 -90 8 -45 11 -45 11 -43 0 -43 0 -33 14 -33 14
-17 23 -16 23 0 36 -1 35 -12 27 -12 27 -44 33 -44 33 -30 22 -29 22 -39 6
-38 7 -56 34 -57 34 -37 10 -38 10 -61 39 -61 40 -39 10 -39 11 -61 39 -61 40
-39 10 -39 11 -61 40 -62 40 -28 6 -27 7 -80 38 -79 39 -411 0 -410 0 -49 15
-49 15 -6 -1z m-3308 -299 l12 0 12 -8 13 -8 6 -47 7 -46 -17 -26 -16 -25 -20
0 -20 0 -10 26 -10 26 6 37 7 36 9 18 9 17 12 0z m2098 -190 l225 0 20 -15 19
-15 -37 -31 -38 -31 0 -23 0 -23 36 -44 35 -43 17 -12 16 -13 113 0 114 0 32
-14 33 -13 17 -17 17 -17 0 -20 0 -20 -34 -45 -34 -45 -7 -42 -6 -42 -5 -28
-6 -27 -27 -28 -27 -27 -58 -73 -58 -73 -25 -10 -24 -9 -140 0 -140 0 -29 15
-28 15 -7 30 -7 30 7 30 6 29 -25 26 -26 26 -80 -3 -79 -3 -28 28 -28 27 -3
223 -3 222 13 40 13 39 25 13 25 13 226 0z m-230 -730 l10 0 6 -16 6 -15 -10
-10 -10 -10 -12 15 -13 15 7 11 6 10 10 0z m362 -1053 l48 -4 15 -15 15 -15 9
-38 8 -37 -5 -14 -5 -14 -26 -7 -26 -6 -43 23 -44 23 -25 30 -25 30 4 11 4 11
24 13 24 13 48 -4z m3630 -8 l39 1 29 -29 29 -29 0 -35 0 -35 -12 -9 -13 -10
-75 -7 -75 -6 -51 -6 -50 -6 -17 17 -17 16 0 24 0 24 23 25 22 25 65 20 65 20
38 0z m-2883 -39 l19 0 16 -30 15 -29 0 -14 0 -13 30 -48 31 -48 -12 -14 -11
-14 -72 0 -71 0 -15 10 -14 9 22 44 22 44 0 32 0 32 10 20 11 19 19 0z m701
-20 l18 0 11 -19 10 -20 0 -22 0 -22 25 -43 25 -42 -15 -12 -15 -12 -62 -5
-63 -5 -25 20 -24 20 26 38 27 39 15 35 14 35 8 8 7 7 18 0z m683 -52 l19 -3
30 -54 31 -54 -28 -23 -27 -24 -47 0 -48 0 -22 16 -22 15 0 20 0 20 10 19 10
20 38 25 37 26 19 -3z m665 2 l19 0 31 -35 31 -36 0 -29 0 -29 -22 -15 -22
-16 -46 0 -46 0 -22 16 -22 15 0 22 0 22 40 43 39 42 20 0z"/>
</g>
</svg>
