<?xml version="1.0" standalone="no"?>
<!DOCTYPE svg PUBLIC "-//W3C//DTD SVG 20010904//EN"
 "http://www.w3.org/TR/2001/REC-SVG-20010904/DTD/svg10.dtd">
<svg version="1.0" xmlns="http://www.w3.org/2000/svg"
 width="146.000000pt" height="146.000000pt" viewBox="0 0 146.000000 146.000000"
 preserveAspectRatio="xMidYMid meet">
<metadata>
Created by potrace 1.11, written by Peter Selinger 2001-2013
</metadata>
<g transform="translate(0.000000,146.000000) scale(0.100000,-0.100000)"
fill="#000000" stroke="none">
<path d="M0 730 l0 -730 730 0 730 0 0 730 0 730 -730 0 -730 0 0 -730z m1450
0 l0 -720 -720 0 -720 0 0 720 0 720 720 0 720 0 0 -720z"/>
<path d="M693 873 c-5 -12 -36 -14 -167 -12 -129 1 -161 -1 -161 -12 0 -10 20
-13 93 -10 l92 3 0 -44 c0 -30 -6 -48 -19 -60 -20 -17 -19 -60 3 -76 41 -31
106 -42 247 -42 199 0 273 23 252 77 -5 12 -2 15 10 10 16 -6 16 -4 2 17 -13
19 -13 25 -3 29 8 4 7 6 -4 6 -10 1 -18 7 -18 15 0 16 -21 26 -55 26 -13 0
-30 6 -37 14 -50 50 -222 93 -235 59z m-83 -48 c0 -8 9 -15 20 -15 17 0 18 -3
8 -25 -20 -45 -78 -23 -78 29 0 21 5 26 25 26 16 0 25 -6 25 -15z m360 -175
c0 -5 -7 -10 -16 -10 -8 0 -12 5 -9 10 3 6 10 10 16 10 5 0 9 -4 9 -10z m-150
-10 c0 -5 -5 -10 -11 -10 -5 0 -7 5 -4 10 3 6 8 10 11 10 2 0 4 -4 4 -10z"/>
</g>
</svg>
