<?xml version="1.0" encoding="UTF-8" standalone="no"?>
<svg
   xmlns:dc="http://purl.org/dc/elements/1.1/"
   xmlns:cc="http://creativecommons.org/ns#"
   xmlns:rdf="http://www.w3.org/1999/02/22-rdf-syntax-ns#"
   xmlns:svg="http://www.w3.org/2000/svg"
   xmlns="http://www.w3.org/2000/svg"
   xmlns:sodipodi="http://sodipodi.sourceforge.net/DTD/sodipodi-0.dtd"
   xmlns:inkscape="http://www.inkscape.org/namespaces/inkscape"
   width="15mm"
   height="15mm"
   viewBox="0 0 53.149606 53.149606"
   id="svg3360"
   version="1.1"
   inkscape:version="0.91 r13725"
   sodipodi:docname="de-tc.svg">
  <defs
     id="defs3362" />
  <sodipodi:namedview
     id="base"
     pagecolor="#ffffff"
     bordercolor="#666666"
     borderopacity="1.0"
     inkscape:pageopacity="0.0"
     inkscape:pageshadow="2"
     inkscape:zoom="8"
     inkscape:cx="23.45287"
     inkscape:cy="21.421011"
     inkscape:document-units="px"
     inkscape:current-layer="layer1"
     showgrid="false"
     inkscape:showpageshadow="false"
     inkscape:window-width="1920"
     inkscape:window-height="1005"
     inkscape:window-x="-9"
     inkscape:window-y="-9"
     inkscape:window-maximized="1" />
  <metadata
     id="metadata3365">
    <rdf:RDF>
      <cc:Work
         rdf:about="">
        <dc:format>image/svg+xml</dc:format>
        <dc:type
           rdf:resource="http://purl.org/dc/dcmitype/StillImage" />
        <dc:title />
      </cc:Work>
    </rdf:RDF>
  </metadata>
  <g
     inkscape:label="Layer 1"
     inkscape:groupmode="layer"
     id="layer1">
    <rect
       style="fill:#000000;fill-opacity:1;stroke:#000000;stroke-width:0.54189903"
       id="BACKGROUND"
       width="52.607708"
       height="52.607708"
       x="0.27094951"
       y="0.2709488"
       ry="0" />
    <rect
       style="opacity:1;fill:#ffffff;fill-opacity:1;fill-rule:nonzero;stroke:none;stroke-width:1;stroke-miterlimit:4;stroke-dasharray:none;stroke-opacity:1"
       id="rect4144"
       width="34.89233"
       height="34.970001"
       x="8.8567333"
       y="9.3407717" />
    <path
       style="fill:#000000"
       d="m 8.401335,37.579681 0.4375,-6.729227 0.17818,0.278342 c 0.4047736,0.63231 1.414636,0.887259 2.752113,0.694795 0.515526,-0.07418 0.942633,-0.09629 1.078907,-0.05583 0.325224,0.09654 1.867364,0.841575 4.523163,2.185208 l 2.319852,1.173668 -0.02478,0.311026 -0.02478,0.311026 -1.661946,0.874943 c -1.876676,0.987989 -3.148325,1.542042 -3.535965,1.540607 -0.144522,-5.24e-4 -0.45864,-0.05539 -0.698039,-0.121902 -1.450261,-0.402919 -2.690769,0.182071 -2.690769,1.268894 0,0.497222 0.237595,0.893669 0.940904,1.569973 l 0.631528,0.607279 0.09728,0.89824 c 0.126228,1.165522 0.353231,1.691335 0.880029,1.908893 0.136071,0.0562 -0.601207,0.192186 -2.314633,0.118585 L 8.838843,44.308916 Z m 6.064434,6.728077 c 0.363433,-0.108117 0.994382,-0.903831 1.456212,-1.691677 0.206914,-0.352979 0.443343,-0.730279 0.525397,-0.838445 0.08206,-0.108166 1.096062,-0.716476 2.253349,-1.351802 l 2.104158,-1.155135 0.614338,0.626556 c 0.693327,0.707116 1.326296,1.065717 2.456264,1.391567 0.616071,0.177657 0.822569,0.193984 2.453348,0.193984 1.622252,0 1.836978,-0.01677 2.413778,-0.188528 1.083748,-0.322713 1.855102,-0.761011 2.525701,-1.435156 l 0.597047,-0.600203 2.039509,1.099236 c 1.121729,0.604579 2.154578,1.21288 2.295218,1.35178 0.140639,0.138899 0.397407,0.534461 0.570596,0.879025 0.351282,0.698893 1.028682,1.46569 1.559782,1.715236 0.332011,0.156 0.119853,0.03232 -11.962061,0.02678 -8.083163,-0.0037 -12.08127,0.02993 -11.902636,-0.02322 z m 24.742296,-0.09302 c 0.283527,-0.118854 0.566309,-0.628685 0.686694,-1.073494 0.06396,-0.23633 0.140262,-0.714721 0.169555,-1.063088 l 0.05326,-0.633396 0.657355,-0.617724 c 0.648904,-0.609783 0.986258,-1.124222 0.986258,-1.503972 0,-0.234147 -0.213116,-0.663381 -0.427199,-0.860421 -0.524774,-0.482993 -1.621497,-0.66347 -2.569892,-0.422902 -0.463528,0.117577 -0.604723,0.124341 -0.849582,0.0407 C 37.753,38.025258 36.602609,37.493654 35.358089,36.89909 l -2.262761,-1.081025 0,-0.398932 0,-0.398932 3.322877,-1.622154 c 1.827583,-0.892185 3.436406,-1.644199 3.575161,-1.671143 0.138755,-0.02694 0.511446,0.01202 0.8282,0.08659 1.292621,0.304312 2.593232,-0.115468 2.908756,-0.938817 0.05289,-0.138027 0.08011,2.018434 0.0835,6.614718 l 0.005,6.819508 -2.417939,0.08855 c -1.378088,-0.0029 -2.503663,-0.05038 -2.411581,-0.08899 z M 13.751228,43.255017 c -0.04346,-0.08405 -0.118342,-0.498747 -0.166411,-0.921555 -0.142233,-1.251054 -0.156611,-1.282412 -0.947325,-2.066109 -0.576351,-0.571236 -0.712186,-0.751179 -0.712186,-0.943438 0,-0.130664 0.05209,-0.282318 0.115754,-0.337008 0.210087,-0.180472 1.036605,-0.201384 1.705889,-0.04316 0.521499,0.123286 0.694768,0.132048 1.069756,0.0541 0.576141,-0.119764 1.588121,-0.569589 3.440842,-1.52945 l 1.485376,-0.769546 0.130647,0.538354 c 0.07186,0.296094 0.200389,0.67985 0.285626,0.85279 0.08524,0.172941 0.154978,0.346706 0.154978,0.386145 0,0.03944 -0.955266,0.593752 -2.122813,1.231807 -1.167548,0.638056 -2.196064,1.243129 -2.285592,1.344607 -0.08953,0.10148 -0.350185,0.497837 -0.579238,0.880794 -0.627789,1.049608 -1.011022,1.464109 -1.360579,1.471585 -0.07464,0.0016 -0.171267,-0.06586 -0.214724,-0.149916 z m 24.686069,0.01924 c -0.419639,-0.291212 -0.656365,-0.58555 -0.966405,-1.201596 -0.515166,-1.023631 -0.721462,-1.188526 -3.034212,-2.425292 -1.129488,-0.604005 -2.062978,-1.105194 -2.074424,-1.113754 -0.01145,-0.0086 0.06367,-0.214754 0.166924,-0.458212 0.103253,-0.243459 0.235094,-0.636178 0.292976,-0.872711 0.05788,-0.236533 0.139849,-0.430059 0.182144,-0.430059 0.04229,0 1.077244,0.483691 2.299891,1.074868 2.050025,0.991234 2.266097,1.077802 2.776974,1.112577 0.340183,0.02316 0.741937,-0.0088 1.040995,-0.08277 0.645544,-0.159701 1.424775,-0.01812 1.684742,0.306108 0.165646,0.206593 -0.01551,0.476156 -0.76241,1.134456 -0.356566,0.31427 -0.669118,0.627547 -0.694558,0.69617 -0.02544,0.06862 -0.08275,0.497066 -0.127364,0.952095 -0.08327,0.849404 -0.259234,1.383653 -0.468712,1.42308 -0.06529,0.01229 -0.207744,-0.03944 -0.316561,-0.11496 z M 25.112484,40.617742 c -1.615233,-0.194096 -2.633962,-0.704532 -3.462302,-1.734795 -0.831008,-1.03358 -1.129783,-1.974964 -1.098741,-3.461926 0.04498,-2.154404 0.0087,-2.457928 -0.442218,-3.697865 -0.108337,-0.297919 -0.179305,-0.559962 -0.157706,-0.582318 0.276744,-0.28645 1.111357,2.123104 1.369062,3.952519 0.122479,0.86947 0.138285,0.913516 0.450592,1.255725 0.79665,0.872925 2.018555,1.341032 3.901093,1.494493 0.993296,0.08097 1.297985,0.07606 2.00794,-0.03237 1.231344,-0.188065 2.213786,-0.567306 2.867099,-1.106757 0.548815,-0.453165 0.612662,-0.594842 0.810719,-1.799003 0.269067,-1.635895 0.858935,-3.520149 1.173342,-3.748094 0.219894,-0.15942 0.316143,-0.149882 0.247413,0.02452 -0.491009,1.245917 -0.691699,2.128912 -0.665598,2.928497 0.01176,0.36043 0.01796,1.060813 0.01377,1.556404 -0.0129,1.526068 -0.374114,2.436267 -1.385574,3.49143 -0.805101,0.839889 -1.806663,1.287687 -3.267501,1.460902 -0.801244,0.09501 -1.563124,0.09457 -2.361393,-0.0014 z m 0.345808,-3.879809 0,-0.690031 0.35613,0.01422 0.356129,0.01422 2e-6,0.675807 2e-6,0.675807 -0.356132,0 -0.356131,0 z m 1.107964,-0.0063 0,-0.696286 0.316561,0 0.316561,0 0,0.696286 0,0.696286 -0.316561,0 -0.316561,0 z m 0.979676,0.57712 c -0.02059,-0.05553 -0.02685,-0.373972 -0.01393,-0.707659 l 0.0235,-0.606701 0.300057,-0.02563 0.300058,-0.02563 -0.02307,0.677814 -0.02307,0.677813 -0.263065,0.05547 c -0.177946,0.03752 -0.275176,0.02281 -0.300494,-0.04548 z m -2.938398,-0.017 c -0.06763,-0.02825 -0.09893,-0.249711 -0.09893,-0.700058 l 0,-0.658742 0.247313,0.0512 c 0.136023,0.02816 0.278475,0.0512 0.316561,0.0512 0.03809,0 0.06925,0.294897 0.06925,0.655328 l 0,0.655328 -0.217636,-0.0065 c -0.119699,-0.0036 -0.262152,-0.02506 -0.316561,-0.04778 z m -0.870543,-0.211709 -0.257206,-0.0854 0,-0.643478 c 0,-0.353913 0.02258,-0.643478 0.05017,-0.643478 0.02759,0 0.187854,0.0427 0.356131,0.09488 l 0.305958,0.09488 0,0.642363 c 0,0.693631 0.0015,0.691833 -0.455053,0.540233 z m 4.728631,-0.540235 0,-0.642362 0.305958,-0.09488 c 0.168277,-0.05219 0.328536,-0.09488 0.356131,-0.09488 0.0276,0 0.05017,0.291292 0.05017,0.647314 l 0,0.647316 -0.24923,0.08993 c -0.450398,0.162517 -0.463033,0.147444 -0.463029,-0.552438 z m -5.627041,0.127479 c -0.259356,-0.180568 -0.269735,-0.20821 -0.292161,-0.778202 -0.01279,-0.325041 -0.0051,-0.590984 0.0171,-0.590984 0.02219,0 0.166206,0.06212 0.320028,0.138045 l 0.279676,0.138046 0,0.640156 c 0,0.352087 -0.01254,0.640157 -0.02787,0.640157 -0.01533,0 -0.148876,-0.08425 -0.296773,-0.187218 z m 6.655865,-0.451273 0,-0.641822 0.279676,-0.138046 c 0.153822,-0.07592 0.296274,-0.138045 0.316561,-0.138045 0.02029,0 0.03689,0.275717 0.03689,0.612706 l 0,0.612704 -0.316561,0.167162 -0.316561,0.167162 z M 21.94973,35.932996 c -0.06005,-0.101371 -0.152278,-0.49764 -0.204954,-0.880597 -0.12129,-0.881789 -0.328395,-1.732641 -0.665533,-2.734221 -0.145917,-0.433493 -0.22841,-0.788168 -0.183319,-0.788168 0.04509,0 0.267427,0.198175 0.49408,0.440388 0.344944,0.368626 0.428368,0.518793 0.511961,0.921555 0.05493,0.264642 0.147501,0.539363 0.205721,0.610492 0.07824,0.09558 0.105855,0.453557 0.105855,1.372093 0,1.250083 -0.04451,1.428669 -0.263811,1.058458 z m 8.494399,-1.073915 c 0,-1.187819 0.01068,-1.279625 0.161636,-1.389065 0.09415,-0.06826 0.181468,-0.249755 0.209137,-0.434705 0.02613,-0.174635 0.110526,-0.446536 0.187559,-0.604224 0.143668,-0.29409 0.67716,-0.878298 0.741363,-0.811841 0.0197,0.02039 -0.06844,0.342047 -0.195873,0.714788 -0.298388,0.872784 -0.509979,1.76289 -0.626724,2.636449 -0.09738,0.728678 -0.211837,1.069648 -0.378172,1.126604 -0.0763,0.02612 -0.09893,-0.257048 -0.09893,-1.238006 z m -5.717885,0.789974 -0.217635,-0.03413 0,-0.731803 0,-0.731803 0.316561,0 0.316561,0 0,0.778202 c 0,0.574496 -0.02589,0.774989 -0.09893,0.765928 -0.05441,-0.0067 -0.196861,-0.02763 -0.316557,-0.04639 z m 0.732048,-0.71953 0,-0.778202 0.356131,0 0.356132,0 0,0.778202 0,0.778202 -0.356132,0 -0.356131,0 z m 1.107964,0 0,-0.778202 0.316561,0 0.316561,0 0,0.778202 0,0.778202 -0.316561,0 -0.316561,0 z m 0.949683,-0.02672 0,-0.732891 0.257206,-0.04147 c 0.141464,-0.02281 0.285447,-0.01435 0.319963,0.0188 0.03452,0.03315 0.05232,0.370168 0.03957,0.748937 l -0.02319,0.688669 -0.296776,0.02542 -0.296776,0.02542 z m -3.719593,0.525384 -0.276991,-0.103238 -0.02316,-0.679669 -0.02316,-0.67967 0.250684,0.0519 c 0.137877,0.02854 0.299653,0.0519 0.359503,0.0519 0.08427,0 0.108818,0.166314 0.108818,0.737244 0,0.405484 -0.02671,0.734439 -0.05936,0.731011 -0.03264,-0.0034 -0.184,-0.05269 -0.336346,-0.109469 z m 4.669276,-0.602538 0,-0.73577 0.247314,-0.0512 c 0.471315,-0.09757 0.464949,-0.106261 0.464949,0.634849 0,0.682783 -0.001,0.686263 -0.217636,0.731508 -0.119699,0.025 -0.279958,0.07042 -0.356132,0.10092 -0.125597,0.05029 -0.138495,-0.01306 -0.138495,-0.680307 z m -5.678314,0.145725 c -0.247813,-0.156392 -0.257206,-0.181811 -0.257206,-0.695979 0,-0.293513 0.0303,-0.533658 0.06733,-0.533658 0.03703,0 0.179484,0.04047 0.316561,0.08993 l 0.24923,0.08993 0,0.606358 c 0,0.333496 -0.02671,0.606218 -0.05936,0.606049 -0.03264,-1.74e-4 -0.175098,-0.07335 -0.316555,-0.16263 z m 6.707138,-0.446601 c 0,-0.335244 0.02671,-0.625806 0.05936,-0.645695 0.03264,-0.01989 0.175098,-0.06185 0.316561,-0.09326 l 0.257206,-0.0571 0,0.56226 c 0,0.533744 -0.01166,0.569385 -0.229846,0.702794 -0.372446,0.227726 -0.403276,0.191871 -0.403281,-0.468999 z M 18.454378,33.52124 C 17.801471,33.181801 16.35914,32.45668 15.249197,31.90986 L 13.23112,30.91564 12.558428,30.9258 c -0.369981,0.0056 -1.028824,0.02271 -1.464095,0.03806 -0.85953,0.03031 -1.384955,-0.113682 -1.384955,-0.379536 0,-0.213709 0.296122,-0.606379 0.92387,-1.225087 l 0.581791,-0.573412 0.07057,-0.823524 c 0.06852,-0.7996 0.216729,-1.351431 0.393284,-1.464376 0.14727,-0.09421 0.767866,0.247408 0.976352,0.53745 0.109101,0.151779 0.331753,0.54227 0.494782,0.867758 0.511992,1.022189 0.627029,1.101027 4.315093,2.957246 0.935834,0.471009 1.727434,0.897302 1.759112,0.947318 0.238564,0.376657 0.650625,2.352169 0.487496,2.337165 -0.03864,-0.0036 -0.604447,-0.284183 -1.25735,-0.623622 z m 14.481284,0.200023 c 0.079,-0.527901 0.345974,-1.520954 0.482214,-1.793656 0.101989,-0.20414 0.523916,-0.446651 2.669204,-1.534178 2.886096,-1.463068 2.922159,-1.490901 3.469586,-2.677742 0.441356,-0.956873 1.153109,-1.570305 1.4557,-1.254611 0.14729,0.153669 0.336509,0.940701 0.399701,1.662506 l 0.05208,0.594893 0.697122,0.750286 c 0.383416,0.412657 0.721913,0.831135 0.752212,0.92995 0.155734,0.507884 -0.933018,0.773376 -2.100657,0.512243 -0.593162,-0.132654 -0.67411,-0.133625 -1.09259,-0.01309 -0.248581,0.0716 -1.851107,0.814483 -3.561169,1.650861 -1.710062,0.836377 -3.14662,1.520686 -3.192352,1.520686 -0.05323,0 -0.06441,-0.125253 -0.03105,-0.348148 z m -8.664474,0.02751 C 23.988262,33.714006 23.555083,33.640959 23.30857,33.586442 L 22.860364,33.487323 22.804539,33.0616 C 22.619864,31.653247 21.769792,30.775851 20.001938,30.168918 18.854547,29.775 18.445432,29.496973 18.169912,28.923905 c -0.257886,-0.536392 -0.421767,-1.480622 -0.367494,-2.117387 0.02242,-0.262996 0.140116,-0.994245 0.261557,-1.624999 0.179585,-0.932756 0.221857,-1.376182 0.226462,-2.375564 0.0056,-1.217772 0.0029,-1.237148 -0.301486,-2.170774 -0.2792,-0.856324 -0.308001,-1.025025 -0.316561,-1.854192 -0.0078,-0.759576 0.01355,-0.938558 0.127877,-1.069981 0.131827,-0.151541 0.12519,-0.170051 -0.166786,-0.465157 l -0.304075,-0.307336 -0.203356,0.250152 c -0.469342,0.577343 -0.456519,2.151287 0.02913,3.575241 0.214724,0.62959 0.254471,0.873912 0.285564,1.755341 0.01987,0.563172 0.0056,1.169378 -0.03174,1.347124 l -0.06786,0.323172 -0.371924,-0.601708 c -1.131316,-1.830279 -1.646354,-4.760214 -1.177359,-6.697744 0.372468,-1.538754 1.131998,-2.902858 2.209719,-3.96862 1.276419,-1.262256 2.868612,-1.967207 5.550931,-2.457702 0.841359,-0.153852 1.290063,-0.182407 2.895047,-0.184236 1.781245,-0.002 1.963349,0.01199 2.92819,0.225352 1.970922,0.435852 3.397001,0.94561 4.223588,1.509737 0.597408,0.407718 1.647288,1.495196 2.06519,2.139149 0.487458,0.751133 0.987978,1.902472 1.197343,2.75423 0.154736,0.629511 0.180763,0.940738 0.178105,2.129815 -0.0028,1.272709 -0.02152,1.455596 -0.216975,2.124767 -0.241731,0.827604 -0.784139,1.961997 -1.189333,2.487369 L 35.3618,24.002456 35.30777,23.629529 c -0.113878,-0.786029 0.0035,-2.002469 0.273052,-2.830516 0.54272,-1.667008 0.523398,-3.106611 -0.0508,-3.785022 -0.09382,-0.110846 -0.13687,-0.118555 -0.208092,-0.03726 -0.494088,0.563949 -0.470239,0.505128 -0.323717,0.798407 0.229335,0.45904 0.125489,1.707704 -0.232972,2.801283 -0.476998,1.455207 -0.475488,2.458235 0.0075,5.01468 0.159658,0.844987 0.191935,1.208704 0.156294,1.761195 -0.04692,0.727332 -0.277596,1.556998 -0.51492,1.851997 -0.227031,0.282203 -0.71982,0.562654 -1.483998,0.844558 -1.893311,0.698438 -2.85965,1.644656 -2.946327,2.884976 l -0.03244,0.464149 -0.327397,0.09168 c -0.180068,0.05043 -0.505463,0.128618 -0.723098,0.17376 -0.506121,0.104978 -3.952865,0.168523 -4.629706,0.08535 z m 1.355463,-2.362114 0.469163,-0.471017 -0.02198,-2.066999 -0.02199,-2.066999 -0.388666,0.343938 c -0.811369,0.717995 -1.315133,1.872714 -1.339461,3.070292 -0.01574,0.774707 0.05791,1.167174 0.271856,1.448702 0.257666,0.339059 0.495782,0.279496 1.031078,-0.257917 z m 2.554914,0.10944 c 0.18908,-0.400906 0.251097,-1.318263 0.133385,-1.973029 -0.139229,-0.77446 -0.568429,-1.617548 -1.107538,-2.175565 -0.258618,-0.267689 -0.508676,-0.486705 -0.555685,-0.486705 -0.05889,0 -0.08547,0.629157 -0.08547,2.023402 l 0,2.023402 0.476927,0.480065 c 0.409341,0.412034 0.513082,0.476451 0.732048,0.454557 0.207748,-0.02077 0.283198,-0.08504 0.406333,-0.346127 z M 22.40494,27.718594 c 0.513333,-0.252136 1.533271,-1.573408 2.084932,-2.700907 0.338126,-0.691072 0.374864,-1.25742 0.120137,-1.851995 -0.227973,-0.532128 -0.605475,-0.810452 -1.098124,-0.809621 -0.39088,6.99e-4 -1.799695,0.166782 -2.731125,0.322046 -1.040683,0.173475 -1.646994,0.736853 -1.715682,1.594192 -0.03133,0.39109 0.01213,0.573272 0.34136,1.430911 0.42851,1.116255 0.80876,1.60923 1.501288,1.946346 0.466287,0.226983 1.114757,0.256881 1.497214,0.06903 z m 9.44642,-0.08602 c 0.651233,-0.335905 1.028215,-0.846572 1.461604,-1.979913 0.206754,-0.540677 0.375718,-1.070612 0.375475,-1.177636 -0.0014,-0.610633 -0.397988,-1.255108 -0.95261,-1.547978 -0.306644,-0.161925 -0.677189,-0.236641 -2.212559,-0.446133 -1.22978,-0.167795 -1.627755,-0.160736 -1.932611,0.03428 -0.65359,0.418109 -0.848119,1.584298 -0.410602,2.461527 0.512395,1.027357 1.51749,2.377348 1.987081,2.668941 0.4497,0.279242 1.127678,0.273973 1.684222,-0.01309 z M 8.0888975,19.649 8.57367,9.2423831 17.278833,8.8397357 c 4.581159,-0.026788 7.964802,0.4813107 7.573058,0.5151607 -2.06864,0.1787473 -4.340712,0.8150096 -5.732116,1.6052006 -1.589382,0.902625 -3.118495,2.72097 -3.797746,4.544104 -0.446137,1.197448 -0.56712,1.978203 -0.522167,3.369786 0.04104,1.270447 0.160389,2.006805 0.497887,3.07185 0.295684,0.933089 0.929532,2.188122 1.419654,2.810944 l 0.439311,0.558254 -0.13006,0.858511 c -0.105797,0.698342 -0.114172,0.980721 -0.04489,1.513556 0.119288,0.917471 0.293606,1.48438 0.602539,1.959555 0.146203,0.224876 0.250086,0.408865 0.230851,0.408865 -0.121898,0 -3.216708,-1.664254 -3.413442,-1.835601 -0.133168,-0.115984 -0.391547,-0.508165 -0.574177,-0.871513 -0.408103,-0.81194 -0.702186,-1.166807 -1.223373,-1.476231 -0.574068,-0.34082 -1.120752,-0.336975 -1.503172,0.01057 -0.357655,0.325039 -0.581766,0.952101 -0.648697,1.815051 l -0.05262,0.678445 -0.6083008,0.61437 c -0.3345646,0.337904 -0.6857245,0.78025 -0.7803543,0.982992 L 8.83896,30.342228 Z M 43.623566,29.874155 C 43.540926,29.72935 43.200072,29.31465 42.866113,28.9526 l -0.607198,-0.658272 -0.0507,-0.584197 c -0.165742,-1.909981 -0.986839,-2.655488 -2.1531,-1.954885 -0.476582,0.286295 -0.964023,0.878744 -1.232406,1.497897 -0.389376,0.898286 -0.525566,1.030488 -1.677267,1.628159 -0.573533,0.297633 -1.305283,0.665091 -1.62611,0.816574 -0.536503,0.253317 -0.57282,0.260642 -0.452489,0.09126 0.213548,-0.300587 0.491643,-0.97188 0.601403,-1.451723 0.139194,-0.608527 0.141737,-1.784592 0.0056,-2.59689 l -0.112232,-0.669731 0.403829,-0.45735 c 1.938566,-2.195502 2.506046,-5.721402 1.429155,-8.879741 -0.450414,-1.320989 -1.053251,-2.282829 -2.115233,-3.374903 -0.920968,-0.947066 -1.534816,-1.372501 -2.590534,-1.795404 -1.28556,-0.514973 -3.199958,-1.0588109 -4.539483,-1.2062408 -0.332964,-0.036647 3.013675,-0.5464257 7.569047,-0.359241 l 8.100413,0.332854 0,10.4033338 c 0,5.721833 -0.01013,10.403333 -0.02251,10.403333 -0.01238,0 -0.09012,-0.118477 -0.172762,-0.263283 z"
       id="path4140"
       inkscape:connector-curvature="0"
       sodipodi:nodetypes="ccsscscccscssscscsccscscscssssscsssssccsscsssscscccscscscccccssssssscccsssscccsscssssccsscccccsscssssssssscssscccccccccccccccccccccccccccscccscssscccsccssccsssccsscsssssscssccccsscccssssssccscsccscssccccccccsccccccccccccccccccccccscccccccccccssccsscssssccssccscsscccsscssccssscsssssscscssssscssssssccscssscssccsscsssccsssscsssscsscscscsscssssccscsscccssscssssscscsssscssssssscssssscccssssssscssssssssscsscccscssssscsccsssssscssc" />
  </g>
</svg>
