<?xml version="1.0" encoding="UTF-8" standalone="no"?>
<!-- Created with Inkscape (http://www.inkscape.org/) -->

<svg
   xmlns:dc="http://purl.org/dc/elements/1.1/"
   xmlns:cc="http://creativecommons.org/ns#"
   xmlns:rdf="http://www.w3.org/1999/02/22-rdf-syntax-ns#"
   xmlns:svg="http://www.w3.org/2000/svg"
   xmlns="http://www.w3.org/2000/svg"
   xmlns:sodipodi="http://sodipodi.sourceforge.net/DTD/sodipodi-0.dtd"
   xmlns:inkscape="http://www.inkscape.org/namespaces/inkscape"
   width="15mm"
   height="15mm"
   viewBox="0 0 53.149606 53.149606"
   id="svg3388"
   version="1.1"
   inkscape:version="0.91 r13725"
   sodipodi:docname="ro-hq-sova.svg">
  <defs
     id="defs3390" />
  <sodipodi:namedview
     id="base"
     pagecolor="#ffffff"
     bordercolor="#666666"
     borderopacity="1.0"
     inkscape:pageopacity="0.0"
     inkscape:pageshadow="2"
     inkscape:zoom="7.9999995"
     inkscape:cx="-27.253064"
     inkscape:cy="30.217577"
     inkscape:document-units="px"
     inkscape:current-layer="layer1"
     showgrid="false"
     inkscape:window-width="1920"
     inkscape:window-height="1005"
     inkscape:window-x="-9"
     inkscape:window-y="-9"
     inkscape:window-maximized="1"
     inkscape:showpageshadow="false" />
  <metadata
     id="metadata3393">
    <rdf:RDF>
      <cc:Work
         rdf:about="">
        <dc:format>image/svg+xml</dc:format>
        <dc:type
           rdf:resource="http://purl.org/dc/dcmitype/StillImage" />
        <dc:title />
      </cc:Work>
    </rdf:RDF>
  </metadata>
  <g
     inkscape:label="Layer 1"
     inkscape:groupmode="layer"
     id="layer1">
    <rect
       style="fill:#bb5c1f;fill-opacity:1;stroke:#000000;stroke-width:0.54189903"
       id="BACKGROUND"
       width="52.607708"
       height="52.607708"
       x="0.27094951"
       y="0.2709488"
       ry="0" />
    <rect
       style="fill:#000000;fill-opacity:1"
       id="rect4396"
       width="52.452999"
       height="7.7840652"
       x="0.248"
       y="43.449539"
       inkscape:transform-center-x="-0.35714286"
       inkscape:transform-center-y="-1.25" />
    <text
       xml:space="preserve"
       style="font-style:normal;font-variant:normal;font-weight:normal;font-stretch:normal;font-size:8.71537507px;line-height:100%;font-family:'Microsoft Sans Serif';-inkscape-font-specification:'Microsoft Sans Serif, Normal';text-align:center;letter-spacing:0px;word-spacing:0px;writing-mode:lr;text-anchor:middle;fill:#ffffff;fill-opacity:1;stroke:none;"
       x="26.4653"
       y="50.185955"
       id="123"
       sodipodi:linespacing="100%"
       transform="scale(0.99485382,1.0051728)"><tspan
         y="50.185955"
         x="26.4653"
         sodipodi:role="line"
         id="NAME">Commander</tspan></text>
    <rect
       style="fill:#ffff00;stroke:#000000;stroke-width:0.06757551"
       id="rect3442"
       width="8.9324245"
       height="19.143423"
       x="10.844788"
       y="2.9283955" />
    <rect
       style="fill:#0000ff;stroke:#000000;stroke-width:0.06757574"
       id="rect3442-2"
       width="8.9324245"
       height="19.14356"
       x="1.9147878"
       y="2.9283941" />
    <rect
       style="fill:#ff0000;stroke:#000000;stroke-width:0.06757548"
       id="rect3442-6"
       width="8.9324245"
       height="19.143423"
       x="19.844788"
       y="2.9283955" />
    <g
       id="ICON"
       transform="matrix(0.54550502,0,0,0.54550502,20.459827,3.5243063)">
      <path
         style="fill:#d0d0d0"
         d="M 0.00640542,62.324997 0.01281085,51.449998 1.1314054,50.665528 c 0.9316548,-0.653367 1.5924617,-0.820863 3.9540811,-1.002252 1.5595176,-0.119781 3.9578072,-0.543021 5.3295325,-0.940533 1.371726,-0.397509 2.998257,-0.722955 3.614514,-0.72321 3.665327,-0.0015 4.8754,-2.892513 1.851461,-4.423326 -2.597654,-1.315014 -2.594361,-1.297257 -2.016566,-10.876208 0.02488,-0.4125 -0.05678,-1.102146 -0.181461,-1.532544 -0.183975,-0.635061 -0.05092,-0.974298 0.705967,-1.8 2.381521,-2.598025 2.077828,-5.179904 -0.706507,-6.006462 C 10.488453,22.41283 9.9241441,21.103992 12.113093,19.72114 13.850926,18.623277 16.2,16.083748 16.2,15.302878 16.2,14.550877 15.119345,12.369054 13.525413,9.9029297 7.0549232,-0.10817519 23.63862,-3.7149085 39.758423,4.1975995 c 7.926384,3.8907173 10.532649,6.0386685 14.699985,12.1149875 1.592076,2.321379 1.638438,2.443705 1.640013,4.32731 0.0037,4.382423 -2.250531,6.49272 -7.462128,6.985786 -4.272375,0.404207 -4.857321,0.867941 -5.265402,4.174316 -0.141045,1.142784 -0.461034,1.972776 -1.040934,2.7 -2.066622,2.591642 -3.161658,6.646256 -2.254122,8.34638 1.587741,2.974377 7.622781,7.213884 11.374164,7.990143 0.495,0.102429 2.35125,0.88023 4.125,1.728447 l 3.225,1.54221 0,9.54641 0,9.546408 -29.4,0 -29.399999,0 0.00640542,-10.875 z"
         id="path3352"
         inkscape:connector-curvature="0" />
      <path
         style="fill:#aeaeae"
         d="M 0,62.58615 0,51.971212 1.0716088,51.153856 c 0.8299869,-0.633063 1.5909681,-0.877644 3.3750001,-1.08474 3.0810378,-0.357657 6.0976521,-0.894579 6.6669261,-1.186632 0.254945,-0.130794 1.219543,-0.307635 2.143552,-0.392982 4.961235,-0.458241 6.576923,-3.118119 3.066128,-5.047707 -2.575572,-1.415577 -3.305336,-4.665363 -2.202448,-9.80795 0.237459,-1.107231 0.22951,-1.6662 -0.03061,-2.152227 -0.293729,-0.548838 -0.246495,-0.785742 0.287925,-1.444083 2.649298,-3.263614 2.384525,-6.149629 -0.637263,-6.946131 C 10.584379,22.259407 10.403763,21.440996 13.05,19.961137 14.1225,19.361361 15,18.700197 15,18.491885 c 0,-0.208312 0.23625,-0.645964 0.525,-0.972561 1.815448,-2.0534 1.766316,-1.669408 0.502865,-3.930203 C 15.401102,12.467604 14.373429,10.75282 13.744148,9.7784888 11.428702,6.193431 12.723595,2.3965213 16.780299,0.87582524 24.181899,-1.8987386 41.144486,3.0665936 48.833117,10.25841 c 9.749214,9.119246 9.262479,16.38561 -1.151334,17.188086 -1.41252,0.108848 -2.698137,0.289164 -2.85693,0.400703 -0.703761,0.49434 -1.387626,2.036045 -1.662321,3.747537 -0.197307,1.229331 -0.533727,2.108298 -0.997146,2.605263 -1.088775,1.167585 -1.85922,2.942237 -2.429532,5.596223 l -0.523626,2.436711 0.980694,1.45311 c 2.111487,3.128631 7.084791,6.525714 11.107077,7.586841 0.7425,0.195879 2.73375,0.979179 4.425,1.740666 l 3.075,1.384521 0,9.395918 0,9.395919 -29.4,0.0056 L 0,73.201068 0,62.586129 Z m 25.8,-21.3116 c 0.4125,-0.132408 1.168137,-0.637353 1.679193,-1.122099 0.511057,-0.484749 1.253557,-0.922704 1.65,-0.973233 1.51004,-0.192471 2.670806,-0.885675 2.670806,-1.594992 0,-0.697995 0.349626,-0.840054 1.758099,-0.714342 0.389451,0.03476 0.952935,-0.158376 1.252185,-0.429191 0.506883,-0.458721 0.605415,-0.447048 1.440981,0.170711 l 0.896895,0.663102 1.378161,-0.989717 c 1.950171,-1.400508 4.073679,-5.084646 4.073679,-7.067551 0,-1.625181 -1.0047,-2.385959 -2.940885,-2.226895 -0.379986,0.03122 -0.90081,-0.117466 -1.157388,-0.330408 -0.256578,-0.212941 -1.025682,-0.392289 -1.709118,-0.398551 -1.039746,-0.0095 -1.257657,-0.116977 -1.334778,-0.658172 -0.111858,-0.784958 -0.568896,-0.907691 -4.257831,-1.143399 -1.5675,-0.100157 -3.421976,-0.252594 -4.121058,-0.33875 l -1.271058,-0.156645 0.183558,0.91779 c 0.122062,0.610308 0.06456,0.917791 -0.171647,0.917791 -0.195362,0 -0.27177,0.135 -0.169794,0.3 0.107158,0.173386 -0.178029,0.3 -0.675727,0.3 -1.009862,0 -2.088144,0.90238 -2.356654,1.972209 -0.251505,1.002077 -1.188072,0.251027 -1.469373,-1.178317 -0.340225,-1.728754 -0.802044,-2.593892 -1.384642,-2.593892 -0.309983,0 -0.563604,0.104403 -0.563604,0.232008 0,0.127604 -0.673458,0.971354 -1.496573,1.875 -2.771564,3.042723 -3.141994,4.346358 -1.327451,4.671615 0.480713,0.08617 1.279024,0.358275 1.774024,0.604686 0.847582,0.421926 0.935263,0.407793 1.505447,-0.242643 0.332997,-0.379866 1.007997,-0.892947 1.5,-1.140177 0.492004,-0.24723 1.0041,-0.62132 1.137991,-0.83131 C 22.546711,29.371954 23.1,29.534421 23.1,30.006017 c 0,0.148836 -0.30375,0.553686 -0.675,0.89967 -0.561678,0.523449 -0.663106,0.901305 -0.604154,2.250675 0.05807,1.329288 -0.0095,1.590777 -0.375,1.45053 C 21.20063,34.512794 21,34.238105 21,33.996473 21,33.120296 20.133643,32.58836 19.314495,32.96159 c -0.499682,0.22767 -0.929563,0.244419 -1.292195,0.05034 -0.70052,-0.374907 -0.922748,-0.130305 -0.920403,1.013067 0.0024,1.174734 1.400248,2.111412 2.5172,1.686747 1.103236,-0.419448 2.737929,1.378118 2.470273,2.7164 -0.208978,1.044891 -0.686071,1.771851 -1.162837,1.771851 -0.175761,0 -0.154516,-0.175299 0.0513,-0.423291 0.256645,-0.30924 0.261032,-0.479082 0.01628,-0.630345 -0.184261,-0.11388 -0.258704,-0.40593 -0.165429,-0.648999 0.219924,-0.573114 -0.49173,-1.271289 -1.628004,-1.59717 -1.043043,-0.299139 -1.056014,-0.270777 -0.42988,0.940035 0.258942,0.500736 0.431701,1.364292 0.383909,1.91901 -0.04779,0.554718 0.0035,1.098969 0.113973,1.209444 0.56968,0.569682 5.055042,0.779733 6.531315,0.305868 z m 12.899999,-8.381846 c 0,-0.251511 0.14988,-0.549924 0.333063,-0.663138 0.195003,-0.120519 0.264999,-0.625278 0.168861,-1.217706 -0.117036,-0.721218 -0.05041,-1.011861 0.231963,-1.011861 0.555657,0 0.788271,1.505664 0.367365,2.377848 -0.411288,0.852249 -1.101252,1.174821 -1.101252,0.514857 z m 0.45,-4.392705 c -0.101976,-0.165 -0.04244,-0.3 0.132294,-0.3 0.174738,0 0.317706,0.135 0.317706,0.3 0,0.165 -0.05953,0.3 -0.132294,0.3 -0.07276,0 -0.21573,-0.135 -0.317706,-0.3 z m -3.45,-0.732295 c 0,-0.257238 0.135,-0.467705 0.3,-0.467705 0.165,0 0.3,0.127032 0.3,0.282295 0,0.155262 -0.135,0.365729 -0.3,0.467705 -0.165,0.101976 -0.3,-0.02506 -0.3,-0.282295 z m 5.7,-4.967705 c 0,-0.165 -0.142968,-0.3 -0.317706,-0.3 -0.174738,0 -0.23427,0.135 -0.132294,0.3 0.101976,0.165 0.244944,0.3 0.317706,0.3 0.07276,0 0.132294,-0.135 0.132294,-0.3 z m -10.8,-2.176158 c -0.4125,-0.162664 -1.053546,-0.437277 -1.424547,-0.61025 -0.371002,-0.172973 -0.756133,-0.232911 -0.855847,-0.133197 -0.09971,0.09971 -0.538668,0.04034 -0.975452,-0.131939 -1.661208,-0.655229 -3.850675,-0.494702 -3.70419,0.271582 0.133564,0.698698 1.560037,1.02994 1.560037,0.362257 0,-0.180756 0.161646,-0.215389 0.375,-0.08034 0.394319,0.249589 2.549047,0.524098 4.574999,0.582847 1.081065,0.03135 1.125666,0.0055 0.45,-0.260956 z m -6.662795,-6.316114 c 0.07965,-0.304568 0.472923,-0.678508 0.873946,-0.830977 0.539366,-0.205066 0.68143,-0.42752 0.545843,-0.854718 -0.120603,-0.379984 7.8e-4,-0.682583 0.354857,-0.884742 0.493504,-0.281751 0.458059,-0.388098 -0.427235,-1.281881 -0.530962,-0.5360519 -1.067052,-0.8729729 -1.191312,-0.7487129 -0.12426,0.12426 -0.03602,0.3432979 0.196094,0.4867509 0.362285,0.223904 0.361696,0.333511 -0.0042,0.774349 -0.234404,0.282438 -0.44141,0.663978 -0.460015,0.847864 -0.01861,0.183887 -0.05439,0.560232 -0.07952,0.836322 -0.02513,0.27609 -0.394725,0.916782 -0.821319,1.42376 L 22.148718,14.99752 22.97054,14.9295 c 0.509391,-0.04216 0.876875,-0.278539 0.966633,-0.621777 z M 22.8,10.443013 c 0,-0.398278 -0.97361,-0.173121 -1.117272,0.258381 -0.07442,0.223531 0.107567,0.29267 0.50014,0.19001 C 22.522291,10.802643 22.8,10.600867 22.8,10.443013 Z"
         id="path3350"
         inkscape:connector-curvature="0" />
      <path
         style="fill:#909090"
         d="M 0,62.73615 0,52.271212 1.125,51.41209 c 0.8950696,-0.683529 1.6461754,-0.927975 3.6749999,-1.196019 1.4025,-0.185295 3.25875,-0.439605 4.1249999,-0.565137 C 10.273781,49.455481 10.5,49.492885 10.5,49.911349 c 0,0.268758 0.135,0.488649 0.3,0.488649 0.165,0 0.3,-0.265251 0.3,-0.589446 0,-0.73188 0.850127,-1.210032 2.155277,-1.212228 2.21735,-0.0037 5.644723,-1.904778 5.644723,-3.130941 0,-0.552564 -1.176917,-1.514589 -2.919905,-2.386764 -1.906847,-0.954168 -2.006857,-1.253994 -1.910783,-5.728428 0.039,-1.816205 0.08935,-4.145942 0.111893,-5.177192 0.04376,-2.001642 0.199253,-2.279046 0.672656,-1.2 0.162876,0.37125 0.608144,0.71922 0.989483,0.773268 0.898735,0.12738 1.045482,0.569844 0.699582,2.109333 -0.27408,1.219845 -0.253924,1.273299 0.662194,1.756083 l 0.94488,0.497937 -0.919652,0.271713 -0.919651,0.271715 0.844651,0.9042 c 0.891663,0.954528 1.096274,1.514136 0.469652,1.284486 -0.791443,-0.290055 -1.153914,0.319791 -0.949578,1.597638 0.194921,1.218972 0.560569,1.541787 1.924578,1.699143 0.2475,0.02856 0.72,0.156567 1.05,0.284478 0.33,0.127911 0.791324,0.29154 1.025165,0.363621 0.32405,0.09989 0.341887,0.214332 0.075,0.481218 -0.55015,0.550152 -0.411808,0.88065 0.324835,0.776031 0.436996,-0.06206 0.64575,-0.273003 0.592044,-0.598242 -0.12235,-0.740943 0.348849,-0.908511 2.818833,-1.002438 1.226434,-0.04664 2.422921,-0.245007 2.65886,-0.440817 0.235939,-0.195813 0.553665,-0.278961 0.706058,-0.184779 0.324294,0.200427 2.431441,-0.869235 5.060395,-2.568828 1.023654,-0.661782 2.002404,-1.115967 2.175,-1.009296 0.187185,0.115689 0.313809,-0.115827 0.313809,-0.573759 0,-0.85194 0.489483,-0.98403 1.340514,-0.36174 0.521787,0.38154 0.525237,0.448737 0.05734,1.116753 C 36.524034,38.813647 36.3,39.368713 36.3,39.656194 c 0,0.686982 -0.898626,1.143804 -2.25,1.143804 -1.571067,0 -2.343306,0.487395 -2.12847,1.343373 0.117255,0.467181 0.02355,0.751875 -0.286602,0.870897 -0.356811,0.136923 -0.389997,0.309129 -0.147054,0.763074 0.394785,0.737661 -0.115395,1.139268 -0.763731,0.601197 -0.302418,-0.250986 -0.548661,-0.274023 -0.752303,-0.07038 -0.400096,0.400095 -1.778759,0.12288 -1.97858,-0.397845 -0.207919,-0.541827 -1.885745,-0.510372 -2.625598,0.04922 -0.392837,0.297126 -0.44653,0.44046 -0.165,0.44046 0.324597,0 0.337338,0.08 0.05734,0.36 -0.198,0.198 -0.36,0.649578 -0.36,1.003503 0,0.353928 -0.27,0.88785 -0.6,1.186497 -1.42997,1.294104 1.583509,4.197762 4.186916,4.034328 0.419696,-0.02634 0.904714,-0.0336 1.077817,-0.01611 0.462725,0.04673 0.961592,1.712811 1.177283,3.931788 0.26793,2.756364 0.466026,3.630438 0.778959,3.437037 0.149682,-0.09251 0.191754,0.04131 0.09349,0.297381 -0.09827,0.256071 -0.04126,0.465582 0.126672,0.465582 0.318666,0 1.55886,-2.334357 1.55886,-2.934162 0,-0.1896 0.255525,-0.481479 0.567831,-0.648621 0.84093,-0.450057 2.732169,-4.293012 2.732169,-5.551707 0,-0.747126 0.134466,-1.065516 0.45,-1.065516 0.249999,0 0.45,-0.266667 0.45,-0.6 0,-0.33 0.123054,-0.6 0.273456,-0.6 0.150399,0 0.238779,-0.23625 0.196401,-0.525 -0.133131,-0.907077 -0.929835,-0.620319 -0.833502,0.3 0.0475,0.45375 -0.05375,0.825 -0.225,0.825 -0.171246,0 -0.311355,-0.2025 -0.311355,-0.45 0,-0.623223 -0.525597,-0.566358 -0.693201,0.075 -0.126795,0.48519 -0.139836,0.483849 -0.171999,-0.0177 -0.01914,-0.298488 -0.1698,-0.45927 -0.3348,-0.357294 -0.170148,0.105156 -0.3,-0.146886 -0.3,-0.582294 0,-0.563124 0.15708,-0.767706 0.589446,-0.767706 0.705693,0 1.27077,-0.917157 0.917376,-1.48896 -0.138219,-0.223647 -0.195657,-0.553872 -0.127635,-0.733836 0.06802,-0.179961 0.167676,-0.867204 0.221457,-1.527204 0.208194,-2.554902 1.101849,-4.736829 2.5803,-6.299999 1.571952,-1.662033 3.619056,-5.366643 3.619056,-6.549346 0,-1.868843 -1.761525,-3.541955 -3.162936,-3.004184 -0.437187,0.167764 -0.448845,0.114248 -0.09763,-0.44813 0.842223,-1.348611 -0.01095,-1.605395 -6.241434,-1.878502 -3.106398,-0.136166 -6.234053,-0.330203 -6.950347,-0.431193 -1.204754,-0.169858 -1.288023,-0.138471 -1.111144,0.418825 0.161808,0.509811 0.03916,0.617055 -0.797648,0.697483 l -0.988855,0.09504 0.9,0.512989 0.9,0.512988 -0.801924,0.01201 c -0.480198,0.0072 -1.164326,0.374416 -1.705242,0.915332 -1.014777,1.014776 -1.200455,0.901719 -1.692834,-1.030745 -0.215852,-0.847162 -0.567863,-1.326168 -1.254961,-1.70771 l -0.954961,-0.530286 -0.183843,0.80771 c -0.101114,0.44424 -0.726353,1.41521 -1.389421,2.15771 l -1.205578,1.35 0.185363,-1.408993 c 0.28489,-2.165513 -0.294108,-3.009008 -2.5302,-3.686042 -3.023211,-0.915354 -3.173997,-1.75925 -0.511518,-2.862786 1.129,-0.467944 1.705639,-0.893252 1.817986,-1.340881 0.0905,-0.360561 0.570214,-1.115855 1.066043,-1.678431 1.283119,-1.455853 1.149031,-1.897972 -2.142522,-7.064394 -4.8855312,-7.668328 4.492633,-12.0196603 17.983852,-8.3442466 3.167871,0.8630235 11.651112,4.8991389 13.293381,6.3246606 0.260493,0.2261127 0.614937,0.4111137 0.787656,0.4111137 0.172719,0 1.272519,0.859454 2.443998,1.9098973 9.70356,8.700995 9.380118,16.048189 -0.748725,17.007903 -1.776741,0.168347 -3.246621,0.334461 -3.266397,0.369142 -0.01977,0.03468 -0.328692,0.550339 -0.686475,1.145907 -0.357783,0.595568 -0.764562,1.91679 -0.903954,2.936049 -0.195624,1.430427 -0.457356,2.073105 -1.147296,2.81715 -2.214303,2.387951 -3.124776,7.057967 -1.782906,9.144911 1.422099,2.211723 7.031697,6.669039 8.393082,6.669039 0.244497,0 0.624084,0.179547 0.843531,0.398994 0.219444,0.219444 0.90918,0.481782 1.532745,0.582975 0.623562,0.10119 2.647407,0.838311 4.497435,1.638048 l 3.363684,1.454064 0.07927,9.357914 0.07927,9.357912 -29.404268,0.0056 L 0,73.201089 0,62.73615 Z m 41.607896,8.744556 c -0.07606,-0.291891 -0.143298,-0.125709 -0.149412,0.369291 -0.0061,0.495 0.05612,0.733818 0.138297,0.530709 0.08218,-0.203109 0.08718,-0.608109 0.01113,-0.9 z M 37.349999,50.099998 c 0.101976,-0.165 0.04244,-0.3 -0.132294,-0.3 -0.174738,0 -0.317706,0.135 -0.317706,0.3 0,0.165 0.05953,0.3 0.132294,0.3 0.07276,0 0.21573,-0.135 0.317706,-0.3 z m 4.35,-27.267902 c 0,-0.569847 -0.684879,-1.047219 -1.020669,-0.711427 -0.43047,0.430468 -0.151347,1.27933 0.420669,1.27933 0.388695,0 0.6,-0.2 0.6,-0.567903 z m -7.8,-1.499574 c 0,-0.270804 -1.438515,-0.77977 -1.901679,-0.672841 -0.138426,0.03196 -1.285926,-0.303855 -2.55,-0.74625 C 28.184244,19.471036 26.4075,19.080823 25.5,19.04629 c -0.9075,-0.03453 -2.15625,-0.1641 -2.775,-0.287926 -1.37504,-0.275178 -1.488476,0.172896 -0.169783,0.670647 1.448116,0.546603 0.768468,0.81501 -1.796948,0.709653 -1.269548,-0.05214 -2.195769,0.01908 -2.058269,0.15827 0.1375,0.139185 0.61,0.273285 1.05,0.297997 0.44,0.02471 1.8125,0.134673 3.05,0.244355 8.867585,0.785955 11.099999,0.885153 11.099999,0.493236 z M 32.348012,19.38457 c -0.275577,-0.201505 -0.477864,-0.623756 -0.449529,-0.938336 0.0414,-0.45969 -0.331257,-0.681772 -1.898484,-1.131373 C 28.9275,17.007186 27.81375,16.68223 27.525,16.592736 c -0.964591,-0.29896 -0.539421,0.38926 0.566191,0.916489 0.673476,0.321158 1.409017,0.450547 1.921441,0.338 1.03491,-0.227305 1.503678,0.379532 0.730122,0.94517 -0.507186,0.370862 -0.475986,0.415958 0.410409,0.593237 0.527628,0.105526 1.037532,0.318409 1.133118,0.473075 0.09559,0.154666 0.261318,0.193691 0.368286,0.08672 0.106968,-0.106968 -0.03098,-0.359355 -0.306555,-0.56086 z M 27.6,18.049999 c 0,-0.422698 -0.337918,-0.616618 -0.77933,-0.447233 -0.626083,0.240251 -0.508546,0.697233 0.17933,0.697233 0.33,0 0.6,-0.1125 0.6,-0.25 z m -1.28125,-1.73125 c -0.09969,-0.09969 -0.358438,-0.110345 -0.575,-0.02369 -0.23932,0.09577 -0.168233,0.166855 0.18125,0.18125 0.316249,0.01303 0.493437,-0.05788 0.39375,-0.157566 z m -2.819621,-1.041186 c 0.79913,-0.221903 1.099237,-0.449106 0.985323,-0.745961 -0.103023,-0.268474 0.179114,-0.604202 0.760341,-0.904766 0.645246,-0.33367 0.829113,-0.57293 0.60925,-0.792793 C 25.63418,12.61418 25.688241,12.291597 26.033175,11.765161 26.518429,11.02457 26.504768,10.991265 25.264156,9.8903186 24.166708,8.9164184 24.024664,8.6516771 24.180777,7.8711144 24.38622,6.8438964 24.273021,6.7346871 22.696218,6.4388769 21.58149,6.2297529 21.558926,6.2423718 21.944266,6.8593983 c 0.244791,0.3919734 0.590692,0.5747223 0.90125,0.4761552 0.632692,-0.2008086 1.011696,0.3635385 0.587449,0.8747256 -0.226238,0.2725995 -0.219177,0.4835087 0.02434,0.7270238 0.257369,0.2573694 0.199402,0.3897327 -0.232138,0.5300652 C 21.795003,9.9324425 21.3,10.329409 21.3,11.011248 c 0,0.625796 0.07383,0.670348 0.623442,0.376206 1.643224,-0.879427 2.103522,1.286147 0.576558,2.712545 -1.499297,1.400553 -1.176023,1.781561 0.999129,1.177564 z M 21,13.007348 c 0,-0.635496 -0.07657,-0.68748 -0.6,-0.407349 -0.905592,0.484658 -0.744267,1.65165 0.179329,1.297233 C 20.810698,13.808448 21,13.408 21,13.007348 Z M 20.7,10.2 c 0,-0.165 -0.05953,-0.3000004 -0.132295,-0.3000004 -0.07276,0 -0.21573,0.1350004 -0.317705,0.3000004 -0.101976,0.165 -0.04244,0.3 0.132295,0.3 C 20.557032,10.5 20.7,10.365 20.7,10.2 Z m 13.799999,41.699998 c 0,-0.165 0.27,-0.3 0.6,-0.3 0.33,0 0.6,0.135 0.6,0.3 0,0.165 -0.27,0.3 -0.6,0.3 -0.33,0 -0.6,-0.135 -0.6,-0.3 z m 1.223685,-1.674999 c 0.0144,-0.349485 0.08548,-0.42057 0.181248,-0.181251 0.08666,0.216561 0.076,0.475311 -0.02367,0.575001 -0.09969,0.09969 -0.170592,-0.0775 -0.157566,-0.39375 z m -9.460873,-4.604271 c -0.09493,-0.1536 -0.0354,-0.364068 0.132295,-0.467706 0.167692,-0.103638 0.304894,0.02203 0.304894,0.27927 0,0.526959 -0.180017,0.604548 -0.437189,0.188436 z m -6.011147,-8.718891 c -0.49703,-0.549212 -0.500419,-0.601838 -0.03875,-0.601838 0.278251,0 0.585852,0.208323 0.683558,0.462938 0.279345,0.727959 -0.04792,0.798456 -0.644813,0.1389 z M 17.55,32.399999 c -0.101976,-0.165 0.02506,-0.3 0.282295,-0.3 0.257237,0 0.467705,0.135 0.467705,0.3 0,0.165 -0.127033,0.3 -0.282295,0.3 -0.155263,0 -0.36573,-0.135 -0.467705,-0.3 z"
         id="path3348"
         inkscape:connector-curvature="0" />
      <path
         style="fill:#6e6e6e"
         d="M 0,62.737053 C 0,52.339537 0.00420769,52.268875 0.63316265,52.1044 1.0904637,51.984814 1.3084954,52.10008 1.4181521,52.519411 c 0.1598421,0.611238 0.4307249,0.730308 0.8089552,0.355587 0.124909,-0.12375 0.5031189,-0.225 0.8404664,-0.225 0.6694329,0 1.3995768,-0.882849 1.0331718,-1.249254 -0.125418,-0.125418 -0.4803804,-0.07044 -0.7888056,0.122175 -0.4389731,0.274143 -0.634654,0.261189 -0.900924,-0.05965 -0.4940692,-0.595317 -0.1594988,-0.707712 3.5621586,-1.196694 1.8364614,-0.241287 3.4645031,-0.516258 3.6178709,-0.611043 0.1533678,-0.09479 0.4297636,0.109644 0.6142136,0.454293 0.417904,0.780861 0.97369,0.627015 1.199651,-0.33207 0.151095,-0.641322 0.389004,-0.751929 2.003116,-0.931275 4.944995,-0.549444 6.940042,-3.379176 3.691974,-5.23662 -3.169495,-1.81251 -3.099164,-1.658889 -2.912815,-6.362214 0.194738,-4.915031 0.340457,-5.541398 1.225004,-5.265626 0.899481,0.280425 1.129853,0.774279 0.622634,1.334748 -0.610291,0.674364 -0.540781,1.677273 0.165177,2.38323 0.466667,0.466668 0.5,0.6 0.15,0.6 -0.642841,0 -0.555796,0.522269 0.15,0.899999 0.839056,0.449049 0.748636,0.977274 -0.3,1.752564 -1.623985,1.200663 -0.05189,3.647436 2.343544,3.647436 0.851709,0 1.50442,0.855939 0.937165,1.228959 -0.620498,0.408033 0.662684,1.422918 2.087066,1.650684 1.040572,0.166395 1.095861,0.233385 1.095861,1.327761 0,0.961902 0.213287,1.361595 1.289581,2.416629 1.306352,1.280547 1.296169,1.759908 -0.03763,1.771374 -0.538335,0.0046 -1.039837,0.780339 -0.714697,1.105479 0.56217,0.56217 2.069464,0.350784 2.696475,-0.378162 l 0.662043,-0.769668 0.781625,0.614826 c 0.77688,0.611094 0.784868,0.611244 1.315835,0.02454 0.999107,-1.104 1.650679,0.505977 2.097439,5.182587 0.185013,1.936662 0.165084,2.025 -0.456795,2.025 -0.598666,0 -0.633222,0.101142 -0.435612,1.275 0.451587,2.682554 0.514764,2.664176 2.388123,-0.694707 0.960228,-1.721661 2.108988,-3.670293 2.552802,-4.330293 3.491631,-5.192433 5.222748,-10.340472 3.308865,-9.839982 -1.085736,0.283926 -0.406392,-6.141933 0.868584,-8.215872 1.030317,-1.675964 1.923315,-1.908965 1.230828,-0.321147 -0.306312,0.702351 -0.720084,2.307405 -0.919494,3.566784 l -0.362562,2.289786 1.203075,1.610214 c 2.040942,2.73162 7.026732,6.560208 8.543061,6.560208 0.26115,0 0.523773,0.146862 0.583608,0.326361 0.05983,0.179499 0.736065,0.44355 1.502742,0.586782 0.766674,0.143229 2.88897,0.887592 4.716213,1.654134 l 3.322257,1.393719 0,9.274247 0,9.274248 -8.325,-0.07975 -8.325,-0.07975 -0.169428,-1.269429 c -0.09319,-0.698184 -0.25323,-1.353231 -0.355656,-1.455654 -0.221976,-0.221976 -0.609333,1.656936 -0.471279,2.285991 0.08374,0.381552 -2.6064,0.44919 -20.528636,0.516159 L 0,73.204131 0,62.737053 Z M 29.833268,57.32707 c 0.239592,-0.387669 -0.142321,-1.256886 -0.464704,-1.057644 -0.357232,0.220782 -0.34578,1.330572 0.01373,1.330572 0.155263,0 0.358201,-0.122817 0.450974,-0.272928 z M 44.999999,57.36 c 0,-0.132 -0.1269,-0.36825 -0.282,-0.525 -0.155103,-0.15675 -0.323853,-0.958785 -0.375,-1.782303 -0.074,-1.191438 -0.209556,-1.519458 -0.663576,-1.605774 -0.313818,-0.05966 -0.843993,-0.363198 -1.178169,-0.674529 -0.334176,-0.311331 -0.667371,-0.506277 -0.740436,-0.433215 -0.280488,0.280488 0.293337,2.300433 0.697572,2.455554 0.23391,0.08976 0.513483,0.633309 0.621276,1.207893 0.199995,1.066065 1.920333,2.282076 1.920333,1.357374 z M 13.90981,54.666787 c -0.03166,-0.702993 0.0683,-0.864039 0.470957,-0.758742 0.522358,0.136599 1.4468,-0.680481 1.129211,-0.998067 C 15.254216,52.654213 13.5,53.489164 13.5,53.866663 c 0,0.176109 -0.281764,0.622635 -0.626143,0.992283 -0.35514,0.381198 -0.54831,0.874914 -0.446313,1.140711 0.321176,0.836973 1.530992,-0.250908 1.482266,-1.33287 z m 44.372602,0.983211 c 0.05133,-0.303624 -0.852891,-0.810681 -2.131947,-1.195527 -0.608067,-0.182958 -0.68652,-0.118557 -0.6,0.492525 0.07439,0.525399 0.263349,0.680427 0.747957,0.613647 0.356634,-0.04915 0.740469,0.05958 0.852972,0.241611 0.241167,0.390219 1.057893,0.280275 1.131018,-0.152256 z m -14.53524,-3.550767 c 0.116352,-0.599958 -0.756879,-1.009527 -1.202433,-0.563973 -0.219903,0.219903 -0.19119,0.454527 0.09517,0.777588 0.495951,0.559521 0.975258,0.467052 1.107267,-0.213615 z M 35.813096,37.962007 c -0.102972,-0.268338 -0.122364,-0.552741 -0.0431,-0.63201 0.254052,-0.254052 1.159326,0.232026 1.048929,0.563214 -0.18021,0.540636 -0.808284,0.583593 -1.005831,0.0688 z m 5.286903,-3.419687 c 0,-0.520743 1.511502,-3.430821 1.689516,-3.252807 0.345666,0.345666 -0.302409,2.311956 -0.968136,2.937375 -0.396759,0.372735 -0.72138,0.51468 -0.72138,0.315432 z m 1.697211,-6.33127 c -0.130503,-0.652512 -0.499542,-1.053094 -1.3875,-1.506097 -0.66534,-0.339432 -1.209711,-0.795981 -1.209711,-1.014555 0,-1.18271 -1.01454,-1.448801 -5.9076,-1.549432 -2.60832,-0.05364 -5.809182,-0.190674 -7.113028,-0.304513 -2.076843,-0.18133 -2.348367,-0.148969 -2.190999,0.261127 0.139229,0.362825 -0.0657,0.488834 -0.911166,0.560263 -1.05115,0.08881 -1.071078,0.111756 -0.548287,0.631442 0.29838,0.296607 0.492688,0.567063 0.431795,0.601014 -0.06089,0.03395 -0.543998,0.365021 -1.073566,0.735714 C 21.734026,27.433185 21.6,27.450916 21.6,26.796298 21.6,25.62236 20.885998,24.386944 19.982749,23.998018 19.469737,23.777122 18.94875,23.540951 18.825,23.473194 18.70125,23.405437 18.6,23.67701 18.6,24.07669 c 0,0.698365 -1.410871,2.889823 -1.875,2.912376 -0.12375,0.006 -0.225,-0.575644 -0.225,-1.292571 0,-1.624129 -0.53693,-2.153529 -3.068194,-3.025167 -2.678161,-0.922221 -2.464522,-1.432083 1.265976,-3.021329 0.411936,-0.175491 0.747618,-0.611272 0.808813,-1.05 0.05754,-0.4125 0.279328,-0.885 0.49287,-1.05 0.213542,-0.165 0.62474,-0.705 0.913772,-1.2 l 0.525514,-0.9 -1.527645,-2.653085 c -0.840204,-1.459196 -1.861423,-3.1442845 -2.269375,-3.74464 -3.608028,-5.3096896 3.111777,-9.89724848 11.219238,-7.6592875 0.886033,0.2445781 1.966033,0.4168371 2.4,0.3827978 C 27.694936,1.741745 28.2525,1.79025 28.5,1.8835733 c 0.766608,0.2890602 2.823119,0.6437782 3.374999,0.5821381 0.28875,-0.032251 0.525,0.058311 0.525,0.2012478 0,0.1429371 0.84375,0.5595332 1.875,0.925769 1.03125,0.366236 2.187531,0.815207 2.569512,0.9977135 0.546762,0.2612373 0.758361,0.2390475 0.99465,-0.1043061 0.232554,-0.3379239 0.261909,-0.2983866 0.130362,0.1755744 -0.141882,0.5111943 0.101367,0.7310919 1.480347,1.3382331 0.907572,0.3995876 1.650129,0.8113985 1.650129,0.9151352 0,0.210813 1.374771,0.8849214 1.804701,0.8849214 0.152058,0 0.190263,-0.224646 0.0849,-0.4992135 -0.133665,-0.3483198 -0.0793,-0.4298265 0.179865,-0.2696547 0.204291,0.1262571 0.303837,0.4057191 0.221214,0.6210267 -0.207612,0.5410272 0.880809,1.4613479 1.463724,1.2376622 0.262215,-0.1006215 0.398463,-0.056268 0.302772,0.098564 -0.09569,0.1548315 0.09092,0.423285 0.414696,0.5965638 C 46.431722,10.045125 46.561994,9.976399 46.180622,9.263797 45.68426,8.3363366 46.270442,8.70961 48.586724,10.795963 49.321928,11.458183 50.009015,12 50.113589,12 c 0.200511,0 2.624979,3.024151 3.843036,4.793596 3.779787,5.490819 1.078236,9.810882 -6.489171,10.376862 -2.614371,0.195534 -2.819589,0.260133 -3.39543,1.068826 -0.776463,1.090445 -1.052301,1.084336 -1.274814,-0.02824 z m -0.85293,-5.327033 c 0.07154,-0.500668 -0.145581,-0.76738 -0.9,-1.10557 -0.546855,-0.245144 -1.331781,-0.648531 -1.744281,-0.896415 -0.4125,-0.247883 -1.6275,-0.819299 -2.7,-1.269812 -1.0725,-0.450512 -2.18625,-1.018486 -2.475,-1.262164 -0.28875,-0.243677 -0.525,-0.312928 -0.525,-0.153892 0,0.592561 0.785649,1.248945 1.929405,1.611953 3.286263,1.043005 5.429451,2.372883 4.625148,2.86997 -0.238617,0.147473 -0.170829,0.341182 0.219198,0.626376 0.76797,0.561554 1.45656,0.377212 1.57053,-0.420446 z m -8.044281,-1.288612 c 0.500031,-0.328248 -0.02469,-0.881275 -0.845217,-0.890812 -0.233985,-0.0027 -0.332736,-0.218772 -0.242061,-0.529594 0.316224,-1.083986 -0.773826,-2.605213 -2.064546,-2.881186 -0.658995,-0.140903 -1.753688,-0.448854 -2.432647,-0.684335 -0.67896,-0.235481 -1.92771,-0.510251 -2.775,-0.6106 -1.556822,-0.184383 -1.940581,-0.481171 -1.059402,-0.819311 0.280149,-0.107503 0.407859,-0.375555 0.30573,-0.6417 -0.1171,-0.305157 0.08241,-0.555093 0.600264,-0.751981 0.635269,-0.241529 0.741795,-0.429837 0.588554,-1.040396 C 25.86808,12.316799 25.918484,12 26.094284,12 26.82696,12 26.346691,10.515349 25.323361,9.6168536 24.612777,8.9929529 24.309092,8.5090203 24.430164,8.193513 24.866794,7.0556709 22.842496,5.6999998 20.70683,5.6999998 c -0.518845,0 -0.223385,1.0486394 0.298077,1.0579292 C 21.735526,6.7709448 22.2,7.1964258 22.2,7.8526941 22.2,8.3222796 22.056436,8.432436 21.6,8.313075 20.97938,8.1507792 20.771277,8.5232313 21.3,8.8499996 21.907569,9.2254982 21.632052,9.9506054 20.962546,9.7381121 20.562606,9.6111764 20.22898,9.6874784 20.06714,9.942896 c -0.443641,0.700159 -0.299359,1.109357 0.33286,0.944028 0.889066,-0.232496 0.779328,0.84895 -0.169895,1.674289 -0.906867,0.788511 -0.822627,1.388786 0.194895,1.388786 0.546039,0 0.750264,-0.185131 0.827352,-0.75 C 21.482288,11.515117 23.1,10.740512 23.1,12.315294 c 0,0.669667 -0.293284,1.183978 -1.092875,1.9165 -1.168764,1.07073 -0.896112,1.668205 0.761271,1.668205 1.049301,0 3.944757,1.011149 3.831328,1.337973 -0.05956,0.171615 -0.432617,0.287388 -0.82901,0.257273 C 25.374321,17.465131 24.105,17.361528 22.95,17.265017 c -2.539273,-0.21218 -1.829364,0.296593 0.820271,0.587866 1.735589,0.190792 2.453017,0.603516 1.610842,0.926689 -0.251304,0.09643 -1.10361,0.04757 -1.894015,-0.108596 -1.692701,-0.334432 -4.79695,-0.133658 -3.837098,0.248172 0.33,0.131274 0.945447,0.248169 1.367661,0.259766 2.590179,0.07115 1.58797,0.769736 -1.079141,0.752215 -2.948982,-0.01937 -4.017305,0.288049 -2.014795,0.579779 2.575915,0.375264 4.496621,0.593884 5.626275,0.640399 2.386996,0.09829 7.202879,0.511711 7.325,0.628821 0.253968,0.243548 2.589897,0.100905 3.024999,-0.184723 z m -3,-1.391027 c -0.2475,-0.08154 -0.72,-0.257993 -1.05,-0.392121 -0.33,-0.134127 -1.205882,-0.426468 -1.946405,-0.649647 -0.880092,-0.265241 -1.148578,-0.443876 -0.77521,-0.51578 0.580553,-0.111805 2.595234,0.39003 3.542544,0.882408 0.286512,0.148919 0.725262,0.270761 0.975,0.270761 0.249738,0 0.454071,0.135 0.454071,0.3 0,0.314939 -0.443721,0.353535 -1.2,0.104379 z m -0.9,-1.904379 c 0,-0.165 0.135,-0.3 0.3,-0.3 0.165,0 0.3,0.135 0.3,0.3 0,0.165 -0.135,0.3 -0.3,0.3 -0.165,0 -0.3,-0.135 -0.3,-0.3 z m 5.7,2.571973 c 0,-0.07042 -0.405,-0.330068 -0.9,-0.577007 -0.949104,-0.473476 -1.274478,-0.142893 -0.375,0.381004 0.536676,0.312585 1.275,0.426086 1.275,0.196003 z M 19.5,14.849999 c 0,-0.2475 -0.2025,-0.45 -0.45,-0.45 -0.2475,0 -0.45,0.2025 -0.45,0.45 0,0.2475 0.2025,0.45 0.45,0.45 0.2475,0 0.45,-0.2025 0.45,-0.45 z M 31.349999,10.5 c 0.101976,-0.165 0.04244,-0.3 -0.132294,-0.3 -0.174738,0 -0.317706,0.135 -0.317706,0.3 0,0.165 0.05953,0.3 0.132294,0.3 0.07276,0 0.21573,-0.135 0.317706,-0.3 z m -1.2,-0.6029473 c 0.462687,-0.2010957 0.342675,-0.2477625 -0.524398,-0.2039145 -0.618419,0.031274 -1.124669,0.1581114 -1.125,0.2818614 -7.8e-4,0.2941314 0.890189,0.2520254 1.649398,-0.077947 z m 4.011732,-7.0961688 c -0.37662,-0.4565509 -0.347772,-0.4658775 0.338268,-0.1093635 1.005735,0.5226495 1.081443,0.6084795 0.536733,0.6084795 -0.254796,0 -0.648546,-0.2246022 -0.875001,-0.499116 z"
         id="path3346"
         inkscape:connector-curvature="0" />
      <path
         style="fill:#4d4d4d"
         d="m 0,62.856258 c 0,-10.86932 0.08910469,-11.540216 1.3169272,-9.91553 0.7113748,0.94131 2.8719352,0.05555 3.0067573,-1.23267 0.085754,-0.819384 0.1897908,-0.874827 2.308059,-1.230042 1.2200409,-0.204591 2.3988632,-0.441156 2.6196053,-0.525696 0.2207418,-0.08454 0.6384645,0.139113 0.9282722,0.49701 0.673497,0.831732 1.445863,0.558555 1.573743,-0.556614 0.09129,-0.796137 0.196132,-0.852399 1.896636,-1.017867 2.205153,-0.214575 3.310057,-0.765168 4.763135,-2.373549 1.41947,-1.571184 2.813369,-1.361856 3.583298,0.538116 0.247523,0.610821 0.929331,1.570722 1.515131,2.133117 1.262129,1.211703 1.166952,1.655004 -0.230012,1.071315 -1.043084,-0.435828 -1.581061,-0.295722 -1.098255,0.286023 0.230728,0.27801 0.46878,1.22097 0.592033,2.345127 0.01357,0.12375 0.218072,0.225 0.454453,0.225 0.582673,0 0.915598,1.083663 0.806457,2.625 -0.05491,0.775446 0.03785,1.275 0.236739,1.275 0.358645,0 0.398654,-0.165912 0.478136,-1.982772 0.112254,-2.565972 2.156164,-4.18431 2.676794,-2.119443 0.15285,0.606219 0.37257,1.102215 0.488267,1.102215 0.410643,0 0.94845,-0.898869 0.787991,-1.317021 -0.08963,-0.233562 0.02063,-0.674031 0.245011,-0.978819 0.458759,-0.623148 0.488271,-0.578577 1.023564,1.54584 0.436157,1.730982 0.758816,5.446488 0.447605,5.15433 -0.143931,-0.13512 -0.281388,-0.637311 -0.30546,-1.115979 -0.07949,-1.580493 -0.381288,-2.042232 -0.886313,-1.356012 -0.497684,0.676242 -0.560095,1.716141 -0.128878,2.147358 0.61324,0.613239 0.5213,5.082443 -0.102362,4.975799 -0.725641,-0.124083 -1.464454,0.85215 -1.035796,1.368654 0.526438,0.634317 1.004699,0.423315 1.528044,-0.674151 0.275391,-0.5775 0.62382,-1.05 0.774291,-1.05 0.307416,0 0.931365,-0.97797 4.593621,-7.199999 4.428654,-7.524111 4.858416,-8.553438 4.356432,-10.43412 -0.39588,-1.48317 -0.04373,-2.019795 0.633843,-0.96588 1.401825,2.180442 7.485195,6.9 8.893896,6.9 0.216777,0 0.464085,0.182274 0.549576,0.405054 0.08606,0.224283 0.803301,0.482862 1.607097,0.57939 1.781451,0.213942 5.132271,1.68762 4.59387,2.020371 -0.664503,0.410685 -0.08932,1.795185 0.745803,1.795185 0.399618,0 0.816774,0.145938 0.927012,0.324309 0.110238,0.178368 0.523206,0.243297 0.917703,0.144285 l 0.717273,-0.180024 0,8.555714 0,8.555715 -8.210985,0 -8.210985,0 -0.155103,-1.376088 c -0.204552,-1.814787 -0.691512,-2.30862 -1.132566,-1.148559 -0.182565,0.480183 -0.277008,1.160403 -0.209871,1.511604 0.17781,0.930159 -0.817818,0.975087 -22.205489,1.002036 L 0,73.212522 0,62.856258 Z m 28.2,-0.48495 c 0,-0.571746 -1.232864,-2.086409 -1.542483,-1.895054 -0.176617,0.109155 -0.08785,0.413982 0.219436,0.753527 0.283821,0.313617 0.411086,0.570216 0.282809,0.570216 -0.128276,0 -0.06517,0.2025 0.140238,0.45 0.437802,0.52752 0.9,0.589821 0.9,0.121311 z m 17.5424,-5.251814 c 0.498087,-0.760179 0.489357,-0.803517 -0.335229,-1.664199 -0.713598,-0.744837 -0.776751,-0.930681 -0.401904,-1.182714 0.376701,-0.253278 0.341478,-0.37143 -0.230268,-0.772392 -0.373224,-0.261741 -0.675,-0.787602 -0.675,-1.176228 0,-1.121436 -1.019364,-1.475475 -2.051379,-0.712473 -0.95691,0.707472 -0.797919,2.529495 0.318747,3.652803 0.284553,0.286245 0.60564,0.872142 0.713526,1.301994 0.178869,0.712665 0.94074,1.266174 1.809603,1.314696 0.187272,0.01047 0.57063,-0.332211 0.851904,-0.761487 z M 27.75,56.399998 c 0,-0.219999 -0.16875,-0.456249 -0.375,-0.525 -0.223077,-0.07436 -0.375,0.138333 -0.375,0.525 0,0.386667 0.151923,0.599358 0.375,0.525 0.20625,-0.06875 0.375,-0.305001 0.375,-0.525 z M 14.010994,55.631263 c 0.296453,-0.422805 0.842756,-1.151043 1.214006,-1.618308 0.791691,-0.996441 0.911468,-1.967892 0.209418,-1.698489 -0.273604,0.104991 -0.387978,0.05309 -0.277377,-0.125859 0.103511,-0.167487 0.414273,-0.267192 0.690581,-0.221565 0.283427,0.0468 0.502378,-0.113166 0.502378,-0.367044 0,-0.267897 -0.333856,-0.488415 -0.825,-0.544926 -0.802216,-0.09231 -0.870505,-0.0096 -0.945694,1.144926 -0.01612,0.2475 -0.333056,0.583263 -0.704306,0.746139 -0.37125,0.162876 -0.675,0.448419 -0.675,0.634542 0,0.186123 -0.27,0.681654 -0.6,1.10118 -0.827509,1.052007 -0.774784,1.718139 0.135994,1.718139 0.449613,0 0.945727,-0.299121 1.275,-0.768735 z M 2.85,50.999998 c 0.1019756,-0.165 0.2449427,-0.3 0.317705,-0.3 0.072762,0 0.1322949,0.135 0.1322949,0.3 0,0.165 -0.1429674,0.3 -0.3177051,0.3 -0.1747377,0 -0.2342705,-0.135 -0.1322948,-0.3 z m 14.1,-7.713639 c -2.363342,-1.190655 -2.445783,-1.318854 -2.676472,-4.161966 -0.193205,-2.381148 0.277149,-7.031741 0.709972,-7.019801 0.682809,0.01884 0.927172,0.543753 0.593776,1.275477 -0.216138,0.474369 -0.261845,1.10475 -0.117666,1.622808 0.129668,0.465918 0.207875,1.071216 0.173794,1.345107 -0.03408,0.273893 0.235491,0.706334 0.59905,0.96098 l 0.661016,0.462993 -0.946735,0.884385 c -1.644188,1.535901 -0.993866,3.135255 1.603265,3.942945 1.492365,0.464115 1.782952,0.717861 1.287714,1.124457 -0.282947,0.232302 -0.793042,0.114111 -1.887714,-0.437385 z m 21.352541,-2.111361 c 0.09898,-1.11375 0.370362,-2.3625 0.603066,-2.775 0.45552,-0.807465 0.444327,-0.399318 -0.09462,3.45 -0.297144,2.122266 -0.708507,1.576146 -0.508443,-0.675 z m 3.097458,-7.073231 c 0,-0.696828 1.02507,-2.127015 1.139121,-1.589313 0.06562,0.309351 -0.163845,0.845601 -0.50991,1.191669 -0.346065,0.346065 -0.629211,0.525006 -0.629211,0.397644 z m 1.550646,-6.060416 C 42.760529,27.624095 42.137348,27.006792 41.565794,26.669567 40.99424,26.332342 40.449671,25.814038 40.355642,25.51778 39.932867,24.185737 39.181298,23.922529 35.934869,23.969577 34.238189,23.994166 31.094999,23.875814 28.95,23.706572 25.585353,23.4411 25.004279,23.46071 24.716927,23.84943 c -0.18319,0.247813 -0.66694,0.450569 -1.075,0.450569 -1.074189,0 -1.265983,0.353844 -0.503528,0.928965 l 0.66543,0.501934 -0.910102,0.470632 C 21.950457,26.689315 21.3,26.099383 21.3,24.756099 c 0,-0.228617 -0.30375,-0.508232 -0.675,-0.621368 -0.37125,-0.113135 -0.902744,-0.405457 -1.181096,-0.649605 -0.658459,-0.577543 -1.143811,-0.25621 -1.144271,0.757578 -2.01e-4,0.444012 -0.337701,1.199543 -0.75,1.678957 L 16.8,26.793322 l 0,-1.056204 c 0,-1.575936 -0.92397,-2.530736 -3.092422,-3.195606 -2.450933,-0.751481 -2.541888,-1.298492 -0.352137,-2.117783 0.928805,-0.347511 1.798499,-0.564 1.932655,-0.481087 0.519463,0.321046 1.010676,-0.712151 0.583367,-1.227028 C 15.527408,18.301053 15.565357,18.153576 16.13473,17.692527 16.500628,17.39624 16.8,17.051093 16.8,16.925534 c 0,-0.12556 0.211062,-0.461512 0.469027,-0.74656 0.456254,-0.504154 -1.176514,-3.891428 -3.460481,-7.1789744 -2.716043,-3.9094765 2.760606,-9.89624362 7.027798,-7.6823976 0.528597,0.2742393 1.050013,0.3528568 1.339567,0.2019758 0.275597,-0.1436086 1.10211,-0.068504 1.974089,0.1793842 0.825,0.2345328 2.1075,0.4743646 2.85,0.5329595 4.295951,0.3390182 13.499999,3.8618649 13.499999,5.1671213 0,0.2205261 0.30375,0.406812 0.675,0.4139685 0.37125,0.00716 1.173474,0.3109065 1.78272,0.675 2.00004,1.1952515 5.94228,3.9263087 5.94228,4.1166227 0,0.277056 1.930173,2.395365 2.18262,2.395365 0.428982,0 0.205302,-0.724186 -0.433803,-1.404481 -0.358152,-0.381234 -0.570318,-0.774018 -0.471483,-0.872854 0.18405,-0.18405 0.309249,-0.05183 2.156337,2.277335 0.588822,0.7425 1.212405,1.521377 1.385739,1.730838 2.516916,3.041502 1.609677,8.229535 -1.66926,9.545625 -0.99807,0.400603 -5.097567,0.984297 -7.131582,1.015408 -0.292287,0.0045 -0.685206,0.345629 -0.873153,0.758129 -0.430962,0.945858 -0.660693,0.944043 -1.094769,-0.0086 z m -0.874473,-4.716352 c 0.36669,-1.089844 -0.872898,-1.99041 -5.245029,-3.810533 -1.259442,-0.524307 -2.450706,-1.14705 -2.647251,-1.383876 -0.594729,-0.716602 -0.945156,-0.492463 -0.733893,0.469409 0.262614,1.195673 -0.231303,1.149932 -0.770859,-0.07139 -0.42897,-0.971001 -1.997412,-1.565739 -7.280616,-2.760739 -0.6925,-0.156635 -0.785698,-0.27185 -0.499173,-0.617092 0.193767,-0.233474 0.277414,-0.545671 0.185883,-0.693771 -0.09153,-0.1481 0.181592,-0.427838 0.60694,-0.621639 0.590096,-0.268866 0.733024,-0.506609 0.603148,-1.003258 -0.09362,-0.35799 -0.02497,-0.82589 0.152535,-1.039778 0.177512,-0.213888 0.258083,-0.727162 0.179047,-1.140611 -0.174063,-0.91055 0.107342,-0.933896 1.738564,-0.144235 2.214788,1.072161 6.273875,1.605682 4.66874,0.613653 -0.247998,-0.15327 -0.322032,-0.4869 -0.196095,-0.883688 0.168624,-0.5312894 0.08016,-0.6374534 -0.531165,-0.6374534 -0.403416,0 -0.901542,-0.2025 -1.106949,-0.45 -0.205407,-0.2475 -0.629832,-0.45 -0.943164,-0.45 -0.313335,0 -0.717187,-0.323702 -0.897451,-0.7193378 -0.423373,-0.9292017 -2.483123,-1.0431372 -2.190502,-0.1211679 0.143372,0.4517247 -0.0042,0.5405058 -0.898666,0.5405058 -0.588619,0 -1.070216,0.135 -1.070216,0.2999999 0,0.165 -0.150746,0.3 -0.33499,0.3 -0.19835,0 -0.263954,-0.2716386 -0.160838,-0.6659552 0.401381,-1.5348831 -1.496293,-2.9340446 -3.979427,-2.9340446 -0.5289,0 -0.669087,1.1852678 -0.216594,1.8312917 0.245622,0.3506742 0.380066,0.810936 0.298765,1.0228038 -0.0813,0.2118678 -0.0036,0.4743365 0.172631,0.5832641 C 21.44941,9.1277507 21.3708,9.6083375 20.883994,9.4215323 20.468225,9.2619869 19.2,10.730376 19.2,11.371311 c 0,0.411189 0.50174,0.430382 0.75,0.02869 0.277636,-0.449226 0.75,-0.361401 0.75,0.139444 0,0.241695 -0.260858,0.579052 -0.579683,0.749682 -0.318825,0.17063 -0.67597,0.613612 -0.793655,0.984403 -0.117685,0.370792 -0.418762,0.823914 -0.669061,1.006937 -0.661409,0.483633 -0.222791,1.384692 0.616057,1.265574 0.451857,-0.06416 0.647083,-0.270294 0.588191,-0.621041 -0.05228,-0.311358 0.100322,-0.525 0.375,-0.525 0.261666,0 0.463151,0.258532 0.463151,0.594285 0,0.404957 0.262828,0.651256 0.825,0.773115 4.37997,0.949421 6.891384,2.011271 3.6,1.522115 -3.272505,-0.48635 -5.025,-0.569567 -5.025,-0.238612 0,0.185716 0.3375,0.422373 0.75,0.525904 C 22.053992,17.87899 21.715006,18.3 20.267705,18.3 18.764273,18.3 18.18143,18.783515 19.335657,19.073207 20.575872,19.384481 19.887891,19.8 18.132295,19.8 17.234532,19.8 16.5,19.927033 16.5,20.082295 c 0,0.465931 0.414397,0.590438 2.581042,0.775479 1.137927,0.09718 2.743958,0.241003 3.568958,0.319597 0.825,0.07859 2.7825,0.211179 4.35,0.294635 1.5675,0.08346 3.343529,0.298805 3.946733,0.478555 1.310535,0.390529 3.134538,0.10832 3.498036,-0.541215 0.285489,-0.510143 1.905981,0.01226 4.85523,1.565208 1.493727,0.786531 2.583174,0.924056 2.776173,0.350446 z m -3.976173,-1.585397 c -3.944733,-1.803902 -5.166252,-2.859133 -1.575,-1.360589 3.031353,1.264912 3.675,1.592276 3.675,1.869141 0,0.384858 -0.311019,0.309539 -2.1,-0.508552 z m -5.1,-1.339603 c 0,-0.165 0.135,-0.3 0.3,-0.3 0.165,0 0.3,0.135 0.3,0.3 0,0.165 -0.135,0.3 -0.3,0.3 -0.165,0 -0.3,-0.135 -0.3,-0.3 z M 23.7,18.423327 22.65,17.992301 23.6625,18.14615 c 0.556875,0.08462 1.206092,0.153849 1.442705,0.153849 0.236612,0 0.34677,0.135 0.244795,0.3 -0.229544,0.37141 -0.344946,0.359054 -1.65,-0.176672 z M 21.754594,13.245416 C 21.759695,12.362126 22.086646,11.7 22.517705,11.7 c 0.515581,0 0.307576,1.765359 -0.242705,2.059861 -0.43899,0.23494 -0.524248,0.150659 -0.520406,-0.514445 z m -0.13091,-5.6204162 c 0.01439,-0.3494829 0.08548,-0.42057 0.18125,-0.1812501 0.08666,0.2165625 0.076,0.4753125 -0.02369,0.5750001 -0.09969,0.099687 -0.170592,-0.0775 -0.157566,-0.39375 z m 13.776315,5.0471642 c 0,-0.328055 -1.225515,-1.046648 -1.432314,-0.839851 -0.09564,0.09564 0.08626,0.370698 0.404214,0.611245 0.643929,0.487161 1.0281,0.572584 1.0281,0.228606 z M 34.349999,11.1 c 0.101976,-0.165 0.04244,-0.3 -0.132294,-0.3 -0.174738,0 -0.317706,0.135 -0.317706,0.3 0,0.165 0.05953,0.3 0.132294,0.3 0.07276,0 0.21573,-0.135 0.317706,-0.3 z m -7.71875,-5.0437502 c 0.06531,-0.1959375 -0.095,-0.35625 -0.35625,-0.35625 -0.261249,0 -0.474999,0.21375 -0.474999,0.4749998 0,0.5297781 0.645827,0.437517 0.831249,-0.1187498 z m -1.415403,-0.80625 c -0.02352,-0.4452867 -0.694686,-0.3634815 -0.850397,0.1036509 -0.08411,0.2523363 0.05303,0.3647961 0.365846,0.3 0.275219,-0.057008 0.493266,-0.2386509 0.484551,-0.4036509 z"
         id="path3344"
         inkscape:connector-curvature="0" />
      <path
         style="fill:#292929"
         d="m 0,62.849997 c 0,-5.527499 0.09062001,-10.049999 0.2013778,-10.049999 0.11075779,0 0.43470643,0.211161 0.71988585,0.469242 0.69036175,0.624771 2.56808395,0.280659 3.40852975,-0.624642 0.5493453,-0.591741 0.9286929,-0.670389 3.3202065,-0.688371 3.9351991,-0.02958 5.0831781,-0.199704 5.1969971,-0.770118 0.05652,-0.283269 -0.09996,-0.486111 -0.375,-0.486111 -0.303464,0 -0.471997,-0.267798 -0.471997,-0.75 0,-0.649329 0.13363,-0.75 0.995549,-0.75 1.931612,0 3.894332,-0.827946 5.361824,-2.261808 1.565196,-1.529328 2.419488,-1.420035 3.377247,0.432066 0.222174,0.429636 0.687773,1.038012 1.034666,1.351947 0.900428,0.814875 0.782953,1.158906 -0.313496,0.918084 -0.940151,-0.20649 -0.943298,-0.203046 -0.732216,0.801165 0.116597,0.5547 0.334428,1.732749 0.484071,2.617884 0.149642,0.885135 0.538718,2.167635 0.864614,2.85 1.014694,2.124579 1.1313,2.995701 0.368591,2.753628 -0.764082,-0.242511 -0.864154,0.526902 -0.278999,2.145117 0.723982,2.002136 1.163652,0.919796 1.790658,-4.408083 0.580214,-4.930263 1.682325,-4.812168 1.39986,0.15 -0.01879,0.33 -0.175234,0.778332 -0.347666,0.996294 -0.172432,0.217959 -0.331486,1.464165 -0.353452,2.769342 -0.02197,1.305176 -0.132958,2.466068 -0.246648,2.579759 -0.113689,0.113691 0.0068,0.532518 0.267688,0.930729 0.26855,0.40986 0.440327,1.20129 0.395879,1.823946 -0.08598,1.20444 0.264711,2.749929 0.62399,2.749929 0.280187,0 5.40039,-7.544612 6.457383,-9.514949 0.423411,-0.789276 1.161492,-2.04255 1.640178,-2.78505 2.971542,-4.609212 4.803237,-8.221851 5.031483,-9.923541 l 0.163893,-1.221921 1.608924,1.588938 c 0.884907,0.873915 2.519511,2.142621 3.632451,2.819343 1.584462,0.963435 2.044128,1.404753 2.118465,2.03391 0.111531,0.943929 0.507549,1.177281 2.852979,1.681095 2.531994,0.543888 4.888866,1.656831 5.083314,2.400402 0.110544,0.422721 0.406023,0.621774 0.922977,0.621774 0.418209,0 0.850578,0.145938 0.960816,0.324309 0.110238,0.178368 0.523206,0.243297 0.917703,0.144285 l 0.717273,-0.180024 0,8.255714 0,8.255715 -8.25,0 -8.25,0 -0.0046,-1.275 c -0.007,-1.939764 -0.433275,-2.370381 -1.336416,-1.35 -0.645645,0.729453 -0.941433,0.825 -2.554017,0.825 -1.937661,0 -2.546016,0.457101 -1.801803,1.353819 0.327057,0.394086 -1.788156,0.446181 -18.11644,0.446181 l -18.486733,0 0,-10.05 z m 43.049999,6.45 c 0.101976,-0.165 -0.02505,-0.3 -0.282294,-0.3 -0.257238,0 -0.467706,0.135 -0.467706,0.3 0,0.165 0.127032,0.3 0.282294,0.3 0.155262,0 0.36573,-0.135 0.467706,-0.3 z m 2.55,-0.417903 c 0,-0.284589 -0.898014,-0.428016 -1.058097,-0.168996 -0.09752,0.157794 0.100653,0.286899 0.440391,0.286899 0.339738,0 0.617706,-0.05306 0.617706,-0.117903 z m 1.5,-0.182097 c 0.363888,-0.235161 0.320832,-0.29169 -0.225,-0.295407 -0.37125,-0.0025 -0.675,0.130407 -0.675,0.295407 0,0.375876 0.318372,0.375876 0.9,0 z m 2.1,0 c 0,-0.165 -0.27,-0.3 -0.6,-0.3 -0.33,0 -0.6,0.135 -0.6,0.3 0,0.165 0.27,0.3 0.6,0.3 0.33,0 0.6,-0.135 0.6,-0.3 z M 45.813074,57.599998 c 0.0863,-0.33 0.276159,-0.6 0.421914,-0.6 0.481221,0 0.27567,-0.797361 -0.351981,-1.365378 -0.404058,-0.365667 -0.561036,-0.781326 -0.454854,-1.204392 0.105006,-0.418374 -0.04758,-0.835815 -0.433005,-1.184622 -0.327333,-0.296229 -0.595149,-0.760677 -0.595149,-1.032105 0,-1.237875 -1.901013,-1.66212 -2.833038,-0.632244 -0.633345,0.699837 -0.410223,2.737596 0.385413,3.519954 0.273693,0.269127 0.643935,0.907704 0.822759,1.419054 0.525201,1.501833 2.723265,2.28306 3.037941,1.079733 z M 14.038652,55.850755 c 1.67993,-1.953399 1.933457,-2.318832 2.375908,-3.424629 0.430231,-1.075251 0.427704,-1.212435 -0.03078,-1.670922 -0.645874,-0.645876 -2.081129,0.04962 -2.229728,1.080477 -0.05277,0.366099 -0.356523,0.805086 -0.675,0.975531 C 13.160572,52.981654 12.9,53.318857 12.9,53.560552 c 0,0.241695 -0.259783,0.699228 -0.577297,1.016742 -1.088708,1.088709 -0.834883,2.608569 0.377544,2.260662 0.357364,-0.102546 0.959646,-0.546786 1.338405,-0.987201 z m 23.161347,16.809242 c 0,-0.373866 0.677715,-0.96 1.11,-0.96 0.2145,0 0.39,0.27 0.39,0.6 0,0.440001 -0.200001,0.6 -0.75,0.6 -0.4125,0 -0.75,-0.108 -0.75,-0.24 z M 28.086487,57.974998 c 0.271249,-1.13067 0.321195,-1.140009 0.475463,-0.08891 0.0928,0.632286 0.0097,0.913908 -0.269624,0.913908 -0.288443,0 -0.347232,-0.235623 -0.205839,-0.825 z M 28.8,55.433227 c 0,-0.24213 0.27,-0.684582 0.599999,-0.983229 0.586531,-0.530802 0.6,-0.523989 0.6,0.303504 0,0.465573 -0.08883,0.757668 -0.197397,0.649098 -0.108568,-0.108567 -0.378568,-0.04704 -0.6,0.136734 C 28.896906,55.793041 28.8,55.767499 28.8,55.433227 Z M 17.232339,43.033447 C 16.683247,42.593536 16.692819,42.58729 17.4,42.924085 c 0.918309,0.437343 1.088501,0.575913 0.707338,0.575913 -0.160963,0 -0.554713,-0.209946 -0.874999,-0.466551 z M 14.871428,41.828569 C 14.18567,41.142811 14.293029,40.910197 15,41.549998 c 0.33,0.298647 0.6,0.589569 0.6,0.646497 0,0.222942 -0.278185,0.08246 -0.728572,-0.367926 z m -0.284186,-3.041328 c -0.264806,-0.264807 -0.192949,-3.716264 0.09238,-4.437242 0.180259,-0.455484 0.291658,-0.202581 0.462506,1.05 0.12378,0.9075 0.333232,1.784999 0.46545,1.949999 0.268045,0.334506 -0.724698,1.732881 -1.020336,1.437243 z M 15,32.982293 c 0,-0.339738 0.129104,-0.537915 0.286898,-0.440391 0.157793,0.09752 0.21085,0.375489 0.117903,0.617706 C 15.166833,33.779741 15,33.706664 15,32.982293 Z m 28.066949,-5.328887 c -0.09542,-0.300626 -0.712011,-0.849264 -1.370217,-1.219196 -0.658203,-0.369931 -1.196733,-0.841207 -1.196733,-1.047279 0,-0.469325 -1.629036,-2.057895 -1.866651,-1.820281 -0.272004,0.272004 -8.502507,0.167163 -11.183348,-0.142454 -2.072532,-0.239361 -2.475627,-0.209031 -2.954263,0.222289 -0.304844,0.274709 -0.8657,0.458659 -1.246346,0.408778 -0.932999,-0.122264 -1.225292,0.453123 -0.587944,1.157385 0.467663,0.516762 0.472084,0.593315 0.04375,0.75768 C 22.024582,26.231506 21.6,25.877209 21.6,25.048081 c 0,-0.556731 -0.32555,-0.880022 -1.459909,-1.449777 -1.583548,-0.795372 -2.330921,-0.660438 -2.06091,0.372083 0.0997,0.381247 -0.05774,0.899056 -0.397,1.305708 -0.560436,0.671766 -0.562251,0.671891 -0.572201,0.03936 C 17.093095,24.241912 15.967053,23.16756 14.168171,22.508689 13.223177,22.162568 12.2475,21.805525 12,21.715259 c -0.31176,-0.113702 -0.09287,-0.349053 0.712533,-0.766113 1.23109,-0.637493 1.395742,-0.635967 6.337467,0.0587 1.32,0.185556 3.075,0.376276 3.9,0.423823 3.155983,0.181885 9.838262,0.787465 10.035689,0.909482 0.113685,0.07026 0.640881,-0.136291 1.171542,-0.459005 l 0.964839,-0.586754 2.10222,0.894575 c 1.156221,0.492016 2.396295,1.100552 2.755716,1.352302 0.835476,0.585189 1.988499,0.588867 2.211762,0.0071 0.263847,-0.687575 -0.148497,-1.94933 -0.637047,-1.94933 -0.238614,0 -0.877293,-0.378837 -1.419282,-0.841861 -0.541992,-0.463024 -1.59294,-1.029765 -2.33544,-1.259426 -0.7425,-0.22966 -1.65375,-0.608849 -2.025,-0.842642 -0.37125,-0.233792 -0.675,-0.336792 -0.675,-0.228887 0,0.107904 -0.295455,-0.07907 -0.656568,-0.415497 -0.741222,-0.690554 -1.020636,-0.75308 -1.30551,-0.292144 -0.132108,0.213757 -0.361431,0.172753 -0.692706,-0.123858 C 31.967276,17.167793 29.896102,16.498206 26.925,15.8111 c -1.330622,-0.307723 -2.235723,-1.711061 -1.103572,-1.711061 0.662716,0 1.260193,-0.890173 0.893796,-1.331655 -0.236235,-0.284646 -0.24559,-0.475971 -0.02979,-0.609341 C 27.146637,11.873962 27.6,12.25006 27.6,12.917705 c 0,0.655428 0.314229,0.748065 0.820427,0.241867 0.253902,-0.253902 0.220996,-0.522702 -0.129471,-1.057581 -0.466825,-0.712464 -0.464422,-0.715073 0.367393,-0.398817 0.460511,0.175086 1.052022,0.291474 1.314471,0.258641 1.342733,-0.167981 8.451356,2.274306 9.177179,3.152974 0.165,0.199746 0.7725,0.546126 1.35,0.769733 0.5775,0.223607 2.02875,1.058337 3.225,1.854954 2.346339,1.562496 2.512209,1.592326 1.539669,0.276896 -0.349434,-0.472633 -0.553419,-0.99187 -0.453303,-1.15386 0.249705,-0.404034 -0.602841,-1.064995 -1.031766,-0.799905 -0.190674,0.117844 -0.43284,0.09297 -0.53814,-0.05528 -0.105303,-0.148248 -0.56271,-0.432649 -1.01646,-0.632003 -0.940293,-0.413116 -1.071231,-0.917949 -0.3,-1.15664 0.28875,-0.08937 0.754992,-0.284865 1.036092,-0.434441 0.315456,-0.167858 0.580611,-0.159475 0.692706,0.0219 0.321948,0.520922 0.691338,0.31574 1.17423,-0.652235 0.529005,-1.060416 0.573033,-1.248825 0.246972,-1.056838 -0.12375,0.07287 -0.5625,0.0027 -0.975,-0.155921 l -0.75,-0.288403 0.9,-0.379206 c 0.909858,-0.383362 2.55,-0.104995 2.55,0.432789 0,0.136199 0.333735,0.644257 0.741636,1.129018 0.407898,0.48476 0.644148,0.989262 0.525,1.121115 -0.119151,0.131853 -0.04693,0.142032 0.160482,0.02262 0.220269,-0.126812 0.451974,-0.02204 0.557097,0.251902 0.09899,0.257958 0.339687,0.469014 0.534888,0.469014 0.760566,0 4.380897,3.950135 4.380897,4.779984 0,0.176009 0.125112,0.320016 0.278028,0.320016 0.580083,0 1.186929,1.776152 0.922209,2.699173 -0.858726,2.994201 -2.630469,4.005354 -7.665837,4.374974 -2.339058,0.171697 -2.948508,0.316709 -3.230802,0.768735 -0.43902,0.70298 -0.715884,0.706091 -0.936648,0.01052 z m -0.76695,-2.753407 c 0,-0.165 -0.135,-0.3 -0.3,-0.3 -0.165,0 -0.3,0.135 -0.3,0.3 0,0.165 0.135,0.3 0.3,0.3 0.165,0 0.3,-0.135 0.3,-0.3 z M 24.750347,22.499437 c 0.225336,-0.364601 -1.272175,-0.983161 -1.716052,-0.70883 -0.184029,0.113736 -0.01738,0.360065 0.400175,0.591515 0.874905,0.484957 1.077499,0.503019 1.315877,0.117315 z m 12.954585,-7.255688 c -0.09577,-0.23932 -0.166854,-0.168232 -0.181248,0.18125 -0.01302,0.31625 0.05788,0.493438 0.157566,0.39375 0.09969,-0.09969 0.110343,-0.358437 0.02367,-0.575 z m 9.095067,-2.19375 c 0,-0.2475 -0.120558,-0.45 -0.267903,-0.45 -0.147348,0 -0.345609,0.2025 -0.440586,0.45 -0.105186,0.274114 -6e-4,0.45 0.267903,0.45 0.242322,0 0.440586,-0.2025 0.440586,-0.45 z m -9.147876,8.253436 c -0.105102,-0.170058 0.01533,-0.220352 0.282294,-0.117903 0.519726,0.199437 0.614817,0.414467 0.183288,0.414467 -0.155262,0 -0.364776,-0.133454 -0.465582,-0.296564 z M 16.95,19.199999 c 0.235193,-0.380551 1.361139,-0.380551 1.95,0 0.329022,0.212631 0.10247,0.292048 -0.842705,0.295406 C 17.27088,19.4982 16.837206,19.382504 16.95,19.199999 Z M 15.9,18.374906 c 0,-0.189801 0.16875,-0.453051 0.375,-0.585 0.20625,-0.131948 0.680902,-0.676101 1.054782,-1.209228 l 0.679783,-0.96932 -1.691816,-2.93044 c -0.930498,-1.611743 -1.941603,-3.2479935 -2.246898,-3.6361137 -1.787455,-2.2723808 0.08857,-7.4943336 2.525068,-7.0285679 0.403563,0.077146 0.811131,0.015061 0.905707,-0.1379663 0.328381,-0.5313319 1.940639,-0.072293 1.788565,0.5092372 -0.09386,0.3589329 0.07356,0.585335 0.51898,0.7018158 0.745507,0.1949544 0.732999,1.5945572 -0.03061,3.4254427 -0.369954,0.8870256 -0.347019,1.0236927 0.284627,1.6960488 0.548023,0.5833436 0.604608,0.7826567 0.279706,0.9852335 -0.787441,0.4909722 -1.361075,1.7709919 -1.361075,3.0371349 0,0.763413 -0.197932,1.497876 -0.490909,1.821612 -0.759301,0.839019 -0.139132,2.048003 0.921938,1.797266 0.497557,-0.117577 3.857961,0.434175 4.287153,0.703916 0.295731,0.185863 -0.189404,0.226676 -1.415137,0.119051 -2.240974,-0.196768 -2.869579,-0.01455 -2.623587,0.760499 0.160208,0.504771 0.0089,0.564472 -1.43106,0.564472 -0.885619,0 -1.772216,0.162 -1.970216,0.36 -0.262721,0.262721 -0.36,0.266749 -0.36,0.01491 z m 24.449999,-4.874907 c -0.101976,-0.165 0.08459,-0.3 0.414591,-0.3 0.33,0 0.683433,0.135 0.785409,0.3 0.101976,0.165 -0.08459,0.3 -0.414591,0.3 -0.33,0 -0.683433,-0.135 -0.785409,-0.3 z M 19.806016,11.84275 c 0.208716,-0.251488 0.441265,-0.395469 0.516774,-0.31996 0.20805,0.20805 -0.214662,0.777209 -0.577229,0.777209 -0.198928,0 -0.176169,-0.172134 0.06046,-0.457249 z m 21.789319,0.252587 c -0.518247,-0.518249 -0.136572,-0.99391 0.779664,-0.971653 0.53625,0.01303 0.7725,0.09606 0.525,0.18451 -0.2475,0.08845 -0.598347,0.345698 -0.779664,0.571653 -0.181314,0.225954 -0.417564,0.322925 -0.525,0.21549 z"
         id="path3342"
         inkscape:connector-curvature="0" />
      <path
         style="fill:#1e1e1e"
         d="M 12.657295,72.645093 C 11.790575,72.400986 11.760098,71.89827 12.6,71.699997 c 0.874246,-0.206382 0.784081,-0.729351 -0.14576,-0.845418 -1.044675,-0.130401 -0.640076,-0.654582 0.505252,-0.654582 l 0.924082,0 -0.183814,-1.552026 c -0.131744,-1.112367 -0.09193,-1.460145 0.140537,-1.227678 0.178393,0.178395 0.395788,1.214307 0.4831,2.302029 0.137579,1.713942 0.237565,1.977675 0.749772,1.977675 0.586429,0 0.587373,-0.03693 0.03514,-1.374999 -0.07904,-0.19152 0.240816,-0.325002 0.77878,-0.325002 0.5021,0 0.91291,0.159078 0.91291,0.353505 0,0.707358 1.114257,1.347072 2.423622,1.391445 0.858406,0.0291 1.041106,0.08849 0.517831,0.168339 -0.553725,0.0845 -0.756343,0.259434 -0.642904,0.555051 0.12493,0.325563 -0.09597,0.431661 -0.898748,0.431661 -1.377224,0 -1.707965,-0.524391 -0.430497,-0.682557 0.539383,-0.06678 0.0062,-0.143025 -1.184889,-0.169431 -1.813916,-0.04021 -2.137543,0.02505 -1.992903,0.401988 0.185948,0.484575 -0.618355,0.565701 -1.934217,0.195096 z M 21,72.299997 c 0,-0.500355 0.186835,-0.593442 1.125,-0.560508 l 1.125,0.03949 -1.05,0.221016 c -0.903844,0.190251 -0.778567,0.230676 0.9,0.290412 2.168614,0.07717 1.532131,0.5244 -0.825,0.579684 C 21.190032,72.895539 21,72.81057 21,72.299997 Z m 4.5,0.264636 c 0,-0.145551 0.54,-0.264636 1.2,-0.264636 0.66,0 1.2,0.126537 1.2,0.281196 0,0.154659 -0.54,0.273744 -1.2,0.264636 -0.66,-0.0091 -1.2,-0.135648 -1.2,-0.281196 z m 3.453734,0.04141 c -0.08859,-0.143349 0.07682,-0.322689 0.367593,-0.398538 0.402316,-0.104943 0.367343,-0.14622 -0.146327,-0.172704 -0.87286,-0.045 -0.851449,-0.379068 0.0965,-1.50564 0.823863,-0.979104 0.755802,-1.52916 -0.189206,-1.52916 -0.352816,0 -0.584105,-0.206898 -0.586888,-0.525 -0.0039,-0.447774 -0.04663,-0.458808 -0.290387,-0.075 -0.182004,0.286578 -0.180335,0.486315 0.0046,0.549999 0.383765,0.132156 0.375489,0.950001 -0.0096,0.950001 -0.165,0 -0.304294,-0.16875 -0.309541,-0.375 -0.0058,-0.229017 -0.164684,-0.170625 -0.408073,0.15 C 27.057628,70.234545 26.4,70.384269 26.4,69.921426 c 0,-0.153216 0.221917,-0.50049 0.49315,-0.771723 0.601828,-0.601827 1.488915,-1.909341 2.645772,-3.899706 1.150825,-1.979988 1.638919,-2.471262 1.951987,-1.964709 0.188703,0.305328 0.270012,0.300009 0.402585,-0.02634 0.112734,-0.277512 0.233076,-0.188151 0.374439,0.278049 0.193164,0.637017 0.247023,0.651963 0.740409,0.205455 0.68502,-0.619932 0.967434,-0.188415 0.840552,1.284321 -0.102474,1.189401 0.879573,1.61496 1.776105,0.769659 0.53034,-0.500043 0.46689,-0.696435 -0.225,-0.696435 -0.666069,0 -0.861132,-1.062957 -0.233454,-1.272183 0.287007,-0.09567 0.288807,-0.375474 0.0083,-1.289487 -0.322089,-1.049463 -0.295347,-1.234266 0.264888,-1.830608 0.342726,-0.364818 0.533529,-0.808299 0.424005,-0.985512 -0.25116,-0.406398 -1.063719,-0.423363 -1.063719,-0.02221 0,0.165 -0.2025,0.3 -0.45,0.3 -0.504417,0 -0.613497,-0.763545 -0.15,-1.05 0.165,-0.101976 0.301053,-0.413694 0.30234,-0.692706 0.0027,-0.572313 1.402818,-1.353456 1.665162,-0.928974 0.09235,0.149424 0.08447,0.40668 -0.01749,0.57168 -0.101976,0.165 0.04079,0.3 0.317268,0.3 0.374424,0 0.466098,-0.191358 0.359307,-0.75 -0.157749,-0.825216 0.485643,-1.072068 0.781914,-0.3 0.106764,0.278226 0.563058,0.45 1.195362,0.45 0.562476,0 1.178634,0.187911 1.369242,0.417582 0.564474,0.680148 1.476369,0.803967 1.31274,0.178245 -0.07596,-0.290463 0.01521,-0.622866 0.202599,-0.738678 0.249321,-0.154089 0.237087,-0.335415 -0.04562,-0.676053 -0.212478,-0.25602 -0.405996,-0.856668 -0.430041,-1.334778 l -0.04372,-0.869286 0.715473,0.969768 c 0.39351,0.533373 0.715473,1.197009 0.715473,1.474749 0,1.237599 2.6277,1.920126 3.494571,0.907692 0.502218,-0.586545 1.520067,-0.919239 1.192929,-0.389916 -0.381609,0.617457 0.363738,1.079202 1.157931,0.717342 0.433623,-0.197571 0.701667,-0.499557 0.595659,-0.671085 -0.106008,-0.171525 -0.03299,-0.504354 0.162258,-0.739617 0.513513,-0.618744 -0.19155,-2.052198 -1.338741,-2.721786 -0.503034,-0.293607 -1.092594,-0.781419 -1.310133,-1.084023 -0.217539,-0.302607 -0.527847,-0.468417 -0.689568,-0.368466 -0.181869,0.112401 -0.145428,0.363192 0.09553,0.657411 0.308301,0.376455 0.217467,0.363684 -0.435432,-0.06121 -0.842124,-0.548043 -1.062645,-1.185609 -0.525,-1.517892 0.165,-0.101976 0.3,-0.06116 0.3,0.09069 0,0.151857 0.328167,0.213372 0.729261,0.136698 0.473145,-0.09045 0.967128,0.0822 1.406568,0.491601 0.372519,0.347055 0.893283,0.631008 1.157256,0.631008 0.561216,0 3.516606,1.009692 3.80784,1.300926 0.109491,0.109491 0.441879,0.199074 0.738636,0.199074 0.29676,0 1.00083,0.405 1.564605,0.9 0.563772,0.495 1.253115,0.9 1.531866,0.9 0.832401,0 1.35609,0.690288 0.868932,1.145364 -0.699768,0.653679 -0.454734,0.927027 0.568056,0.633693 0.535161,-0.15348 1.007661,-0.279057 1.05,-0.279057 0.04234,0 0.07698,0.3375 0.07698,0.75 0,0.820989 -0.793977,1.036023 -1.44,0.39 -0.279999,-0.279999 -0.36,-0.204813 -0.36,0.338343 0,0.646713 -0.08872,0.684156 -1.2,0.506454 -1.02642,-0.16413 -1.2,-0.11382 -1.2,0.347817 0,0.79712 -1.102164,0.773207 -1.312812,-0.02847 -0.09453,-0.359772 -0.04032,-0.699132 0.120468,-0.754131 0.160788,-0.055 0.292344,-0.292395 0.292344,-0.527544 0,-0.44259 -1.089912,-0.02877 -1.536849,0.583518 -0.102765,0.140784 -0.484563,0.09664 -0.848442,-0.0981 -0.768837,-0.411474 -1.514721,-0.2142 -1.514721,0.400605 0,0.46227 -0.707604,0.858681 -1.623687,0.909615 -0.315528,0.01755 -0.62958,0.197802 -0.697893,0.400577 -0.08631,0.256203 0.225999,0.347727 1.023687,0.3 0.998838,-0.05976 1.1349,0.0092 1.047822,0.531318 -0.149814,0.898227 -0.624147,1.277127 -0.946284,0.755901 -0.233031,-0.377052 -0.298116,-0.369381 -0.460701,0.05431 -0.419463,1.093101 -1.849779,0.685524 -2.316891,-0.660213 -0.125274,-0.360906 -0.203496,-0.33477 -0.3951,0.132009 -0.15225,0.370911 -0.110511,0.624804 0.115074,0.699999 0.470712,0.156906 0.454563,0.668487 -0.02103,0.666144 -0.20625,-9e-4 -0.758352,-0.201789 -1.226895,-0.446163 -0.637692,-0.332595 -1.00227,-0.363834 -1.449954,-0.124239 -0.465732,0.249252 -0.725301,0.204924 -1.173108,-0.200334 -0.778065,-0.704145 -0.723018,-1.027416 0.17496,-1.027416 0.466668,0 0.75,-0.170001 0.75,-0.45 0,-0.2475 -0.113331,-0.449999 -0.251844,-0.449999 -0.138516,0 -0.411882,-0.351237 -0.607479,-0.780528 -0.285474,-0.626544 -0.439149,-0.711213 -0.778977,-0.42918 -0.31635,0.262545 -0.582699,0.266061 -1.053855,0.01392 -0.346779,-0.185589 -0.901887,-0.251304 -1.233573,-0.146031 -0.331686,0.105273 -0.787068,0.0387 -1.01196,-0.147948 -0.527136,-0.437484 -0.87324,0.06767 -0.61146,0.892467 0.14634,0.461076 0.05215,0.597315 -0.412932,0.597315 -0.79728,0 -0.973713,0.346037 -0.749082,1.469186 0.163428,0.817149 0.30798,0.930813 1.183755,0.930813 0.627621,0 1.103613,0.18945 1.283466,0.510828 0.244344,0.436614 0.357318,0.451539 0.777624,0.102714 0.372468,-0.30912 0.575985,-0.323874 0.839031,-0.06083 0.263049,0.263034 0.223581,0.347271 -0.162714,0.347271 -0.2805,0 -0.51,0.197751 -0.51,0.439446 0,0.241695 -0.28047,0.589548 -0.623268,0.773007 -0.356958,0.191037 -0.553257,0.516009 -0.459414,0.760554 0.09012,0.234846 0.0073,0.426993 -0.184071,0.426993 -0.191358,0 -0.107562,0.175758 0.186213,0.39057 0.293775,0.214815 0.506082,0.586065 0.471795,0.825 -0.121485,0.84654 0.01443,1.18443 0.476451,1.18443 0.27648,0 0.380397,-0.141264 0.254166,-0.34551 -0.353127,-0.571374 0.63777,-1.033731 1.947708,-0.908808 1.318314,0.125721 1.607202,0.494298 0.63042,0.804318 -0.33,0.104739 -0.6,0.396474 -0.6,0.648303 0,0.251826 -0.27,0.528474 -0.6,0.614772 -0.33,0.0863 -0.6,0.256227 -0.6,0.377625 0,0.121398 -0.64125,0.235722 -1.425,0.254058 -2.21091,0.05172 -2.45406,0.116655 -2.64087,0.705243 -0.09601,0.302499 -0.308433,0.549999 -0.47205,0.549999 -0.16362,0 -0.213465,-0.135954 -0.110769,-0.302118 0.102693,-0.166167 -0.05809,-0.392568 -0.357297,-0.503118 -0.299208,-0.11055 -0.645264,-0.345846 -0.769014,-0.522882 -0.311901,-0.446199 -0.869703,0.424143 -0.706986,1.103118 0.103101,0.430224 -0.07221,0.520602 -0.9711,0.500634 l -1.096914,-0.02436 0.832083,-0.36855 c 0.960738,-0.425541 0.780327,-0.782724 -0.395349,-0.782724 -0.971994,0 -1.917906,0.880956 -0.998466,0.929904 0.421713,0.02244 0.374784,0.08978 -0.188268,0.270096 -0.627909,0.201093 -0.534309,0.245061 0.575001,0.270096 0.728748,0.01644 1.234614,0.120288 1.124145,0.23076 -0.309,0.308997 -3.4632,0.400011 -3.645411,0.105186 z m 1.271265,-1.281042 c -0.06875,-0.20625 -0.305,-0.375 -0.525,-0.375 -0.219999,0 -0.456249,0.16875 -0.524999,0.375 -0.07436,0.223077 0.138333,0.375 0.524999,0.375 0.386667,0 0.599358,-0.151923 0.525,-0.375 z m 2.658072,-1.90842 c 0.451086,-0.56418 0.911445,-0.524178 1.150971,0.100011 0.160104,0.417231 0.247008,0.437673 0.451818,0.106287 0.148101,-0.239631 0.468405,-0.327873 0.770016,-0.212133 0.417825,0.160332 0.483288,0.07142 0.342834,-0.465675 -0.09548,-0.365118 -0.02772,-0.839622 0.150579,-1.054458 0.509637,-0.614076 -0.173589,-0.463374 -0.94929,0.209388 -0.810672,0.703092 -1.2,0.763041 -1.2,0.184776 0,-0.620442 -2.547954,-0.465393 -3.208599,0.195252 -0.468209,0.46821 -0.471264,0.519972 -0.03069,0.519972 0.269106,0 0.55116,-0.16875 0.626787,-0.375 0.10785,-0.294138 0.220809,-0.296541 0.523851,-0.01116 0.310587,0.292497 0.229692,0.423414 -0.4125,0.667575 -0.439368,0.167046 -0.798852,0.448182 -0.798852,0.624741 0,0.448731 2.160216,0.03929 2.583072,-0.489588 z m 4.712634,0.05067 c 0.519918,-0.394125 0.514602,-0.423543 -0.112455,-0.622563 -0.658443,-0.208983 -1.302852,0.319095 -0.995751,0.815991 0.20607,0.333429 0.475143,0.286464 1.108206,-0.193428 z m 3.341481,-0.787977 c -0.09493,-0.153597 -0.333381,-0.268611 -0.529893,-0.255585 -0.255732,0.01695 -0.250167,0.06687 0.01956,0.175623 0.207279,0.08356 0.28767,0.296265 0.178647,0.472668 -0.118146,0.191163 -0.05633,0.233034 0.153024,0.103647 0.193185,-0.119394 0.273579,-0.342753 0.178647,-0.496353 z m -10.187187,-2.67927 c 0.101976,-0.165 0.04244,-0.3 -0.132294,-0.3 -0.174738,0 -0.317706,0.135 -0.317706,0.3 0,0.165 0.05953,0.3 0.132294,0.3 0.07276,0 0.21573,-0.135 0.317706,-0.3 z m 2.475141,-0.225 c 0.07246,-0.217623 -0.130008,-0.375 -0.482436,-0.375 -0.656073,0 -1.05093,0.391776 -0.724179,0.718527 0.301851,0.301851 1.063974,0.08487 1.206615,-0.343527 z m 4.424859,0.225 c 0.101976,-0.165 -0.100524,-0.3 -0.45,-0.3 -0.349476,0 -0.551976,0.135 -0.45,0.3 0.101976,0.165 0.304476,0.3 0.45,0.3 0.145524,0 0.348024,-0.135 0.45,-0.3 z M 46.325462,61.3179 c 0.703995,-0.270147 0.604248,-1.317902 -0.125463,-1.317902 -0.440001,0 -0.6,0.200001 -0.6,0.75 0,0.81662 0.02544,0.836531 0.725463,0.567902 z m 5.983026,-3.867902 c -0.09498,-0.2475 -0.289002,-0.45 -0.431169,-0.45 -0.14217,0 -0.180783,0.2025 -0.08581,0.45 0.09498,0.2475 0.289002,0.45 0.431169,0.45 0.14217,0 0.180783,-0.2025 0.08581,-0.45 z m -1.608489,-3.15 c 0,-0.165 -0.135,-0.3 -0.3,-0.3 -0.165,0 -0.3,0.135 -0.3,0.3 0,0.165 0.135,0.3 0.3,0.3 0.165,0 0.3,-0.135 0.3,-0.3 z m -16.95,18.299999 c -0.108465,-0.1755 0.202785,-0.3 0.75,-0.3 0.547215,0 0.858465,0.1245 0.75,0.3 -0.101976,0.165 -0.439476,0.3 -0.75,0.3 -0.310524,0 -0.648024,-0.135 -0.75,-0.3 z m 17.55,-0.0416 c 0,-0.142119 0.3375,-0.258399 0.75,-0.258399 0.4125,0 0.75,0.05176 0.75,0.115026 0,0.06327 -0.3375,0.179544 -0.75,0.258399 -0.4125,0.07886 -0.75,0.02709 -0.75,-0.115026 z m 2.364474,0.134307 c -0.01953,-0.133488 -0.01953,-0.343956 0,-0.467706 0.01953,-0.12375 -0.538224,-0.243384 -1.239474,-0.265854 -0.721308,-0.0231 -0.974361,-0.0983 -0.582711,-0.173133 1.078266,-0.206025 0.585801,-0.836013 -0.653514,-0.836013 -0.613812,0 -1.22349,-0.182889 -1.363275,-0.408945 -0.195567,-0.316275 -0.281334,-0.323553 -0.37848,-0.03212 -0.0958,0.287403 -0.385611,0.253449 -1.221234,-0.143082 -1.071603,-0.508509 -1.915782,-0.415977 -1.553457,0.170274 0.100164,0.162069 -0.315651,0.08669 -0.924033,-0.167508 -1.052862,-0.439914 -1.113672,-0.433428 -1.262214,0.134601 -0.08583,0.328227 -0.289758,0.596778 -0.453168,0.596778 -0.16341,0 -0.219402,-0.2025 -0.124425,-0.45 0.110976,-0.289203 -0.0062,-0.45 -0.327903,-0.45 -0.304485,0 -0.388941,-0.103647 -0.215586,-0.264585 0.543267,-0.504348 4.590864,-0.600075 4.990923,-0.118032 0.313419,0.377646 0.405273,0.378825 0.678294,0.0087 0.537894,-0.729186 1.4607,-1.033866 2.850834,-0.941247 0.734277,0.04892 1.510527,-0.05669 1.725,-0.234681 0.412896,-0.342675 0.486804,-0.190872 0.40683,0.835578 -0.03139,0.402906 0.163554,0.691464 0.532287,0.78789 0.696702,0.18219 0.56088,1.726368 -0.151845,1.726368 -0.238005,0 -0.355065,0.125673 -0.260136,0.27927 0.09493,0.1536 0.0354,0.364068 -0.132294,0.467706 -0.167691,0.103638 -0.32088,0.07922 -0.340419,-0.05427 z m 0.716235,-1.189488 c -0.203109,-0.08218 -0.608109,-0.08718 -0.9,-0.01113 -0.291891,0.07606 -0.125709,0.143298 0.369291,0.149412 0.495,0.0061 0.733818,-0.05612 0.530709,-0.138297 z m 2.319291,1.106196 c 0,-0.159819 0.2025,-0.212877 0.45,-0.117903 0.2475,0.09498 0.45,0.225738 0.45,0.290586 0,0.06485 -0.2025,0.117903 -0.45,0.117903 -0.2475,0 -0.45,-0.130764 -0.45,-0.290586 z m 1.581798,-3.624558 c 0.01434,-2.153859 0.136797,-3.984543 0.272133,-4.068189 0.135339,-0.08364 0.246069,1.602924 0.246069,3.747924 0,2.145 -0.12246,3.975684 -0.272133,4.068186 -0.158025,0.09766 -0.261204,-1.473879 -0.246069,-3.747921 z M 0.13766444,71.980038 c -0.31798026,-0.514503 -0.0332229,-0.564987 0.59514612,-0.105513 0.48662564,0.35583 0.50172264,0.425472 0.0922334,0.425472 -0.26929857,0 -0.57861937,-0.143982 -0.68737953,-0.319959 z M 23.780709,71.7921 c 0.29189,-0.07606 0.69689,-0.07106 0.9,0.01113 0.20311,0.08218 -0.03571,0.144411 -0.530709,0.138297 -0.495,-0.0061 -0.661181,-0.07335 -0.369291,-0.149412 z m 2.477412,-0.105243 c 0.106443,-0.17223 0.03038,-0.50973 -0.169028,-0.75 -0.234377,-0.282408 -0.249523,-0.43686 -0.04284,-0.43686 0.175847,0 0.497543,0.253875 0.714879,0.564165 0.217335,0.31029 0.663741,0.63213 0.992011,0.7152 0.344097,0.08707 0.11294,0.165771 -0.545851,0.185835 -0.724567,0.02208 -1.071888,-0.07979 -0.949173,-0.27834 z m 16.423877,-0.593343 c -0.02514,-0.333567 0.08114,-0.528099 0.236157,-0.432297 0.340998,0.21075 0.377415,1.03878 0.04568,1.03878 -0.129885,0 -0.256716,-0.272919 -0.281841,-0.606483 z M 23.14394,70.889169 c -0.23355,-0.41733 -0.368665,-0.442119 -0.738199,-0.135432 -0.548153,0.454926 -0.891003,0.03154 -0.608683,-0.751668 0.258135,-0.716109 1.170944,-1.599441 1.665398,-1.611612 0.251556,-0.0062 0.203323,-0.149385 -0.137456,-0.408075 C 23.03625,67.76319 22.8,67.373733 22.8,67.116924 c 0,-0.256809 -0.16875,-0.528801 -0.375,-0.604428 -0.294846,-0.108108 -0.296948,-0.220359 -0.0098,-0.525165 0.29664,-0.314916 0.401182,-0.293805 0.557096,0.1125 0.105562,0.275091 0.420488,0.500166 0.699834,0.500166 0.813391,0 1.227904,0.63426 1.227904,1.878858 0,1.029588 -0.0753,1.148388 -0.675,1.065 -0.587897,-0.08175 -0.669292,0.03196 -0.630766,0.881142 0.05006,1.103289 -0.04043,1.196562 -0.450294,0.464172 z M 17.822299,70.755177 C 17.552622,70.31883 18.177833,70.270461 19.05,70.660197 l 0.9,0.402174 -0.997808,-0.04674 C 18.403399,70.989921 17.894947,70.87272 17.822299,70.755174 Z M 0.05848462,69.749997 c 0.0061139,-0.495 0.07334957,-0.661182 0.14941259,-0.369291 0.076063,0.291891 0.0710607,0.696891 -0.0111162,0.9 -0.0821769,0.203109 -0.1444103,-0.03571 -0.13829639,-0.530709 z M 55.381466,69.950913 c -0.09596,-0.155268 0.166803,-0.347547 0.58392,-0.427284 0.47838,-0.09145 0.717132,-0.02103 0.646644,0.190698 -0.145086,0.435804 -1.005234,0.601173 -1.230564,0.236586 z M 20.775,69.129459 C 20.56875,68.907183 20.4,68.523831 20.4,68.277567 c 0,-0.246267 -0.23625,-0.581055 -0.525,-0.743979 -0.434148,-0.244962 -0.456611,-0.36435 -0.129804,-0.689907 0.326243,-0.324996 0.457849,-0.308952 0.754286,0.09195 0.1975,0.267099 0.795911,0.581574 1.329804,0.698838 1.138699,0.250101 1.234284,0.605619 0.295714,1.099887 -0.37125,0.195507 -0.7425,0.455316 -0.825,0.577356 -0.0825,0.12204 -0.31875,0.04003 -0.525,-0.18225 z m 0.429934,-1.085712 c -0.09577,-0.239319 -0.166855,-0.168234 -0.18125,0.181251 -0.01303,0.316248 0.05788,0.493437 0.157566,0.39375 0.09969,-0.09969 0.110345,-0.35844 0.02369,-0.575001 z m -3.052811,0.959685 c -0.105101,-0.170058 0.01532,-0.22035 0.282295,-0.117903 0.256728,0.09852 0.465582,0.02174 0.465582,-0.171141 0,-0.19239 0.149413,-0.25746 0.332029,-0.144597 0.231459,0.143049 0.208741,0.283323 -0.075,0.463113 -0.53442,0.338625 -0.781896,0.331365 -1.004906,-0.02946 z m 38.760951,-0.603435 c 0.0863,-0.33 0.276159,-0.6 0.421914,-0.6 0.145755,0 0.265011,0.27 0.265011,0.6 0,0.33 -0.189861,0.6 -0.421914,0.6 -0.274215,0 -0.366987,-0.210042 -0.265011,-0.6 z m -56.88728818,-0.765 c 0.02548341,-1.171101 0.02891022,-1.17453 0.29219014,-0.292191 0.16474329,0.552111 0.15490332,1.004313 -0.0257858,1.185 C 0.10260328,68.717394 0.00905475,68.403882 0.02578582,67.634997 Z M 43.953023,67.795104 c 0.103638,-0.167691 0.314106,-0.227226 0.467706,-0.132294 0.416112,0.257169 0.338523,0.437187 -0.188436,0.437187 -0.257238,0 -0.382908,-0.137202 -0.27927,-0.304893 z m 1.796976,0.0049 c 0.101976,-0.165 -0.02505,-0.3 -0.282294,-0.3 -1.132809,0 0.450855,-1.184958 1.617102,-1.209981 1.012008,-0.02172 2.016198,-1.201089 1.403898,-1.648815 -0.301833,-0.220704 -0.454368,-0.554061 -0.338964,-0.740787 0.150897,-0.244155 0.348903,-0.220449 0.705042,0.08441 0.922197,0.789414 1.094895,0.761304 1.161483,-0.189054 0.04034,-0.575739 0.333774,-1.149903 0.75,-1.467516 0.376053,-0.286959 0.897522,-0.72567 1.158819,-0.974913 0.566652,-0.540515 1.018431,-0.237747 0.527646,0.35361 -0.281961,0.339744 -0.215619,0.364869 0.377604,0.142998 0.395814,-0.148038 0.987507,-0.173238 1.314873,-0.056 1.163277,0.416598 2.014686,-0.114054 1.311399,-0.81734 -0.257859,-0.257859 -0.133161,-0.396159 0.500613,-0.555228 0.661851,-0.166113 0.956895,-0.07243 1.367046,0.434091 0.318027,0.392747 0.709743,0.574274 0.999384,0.463127 0.314775,-0.120792 0.476349,-0.01734 0.476349,0.305019 0,0.370044 -0.180393,0.442539 -0.747204,0.300276 -0.566106,-0.142083 -0.789942,-0.05258 -0.923532,0.369285 -0.09698,0.306252 -0.354447,0.894321 -0.572151,1.306821 -0.333537,0.631986 -0.327309,0.813228 0.03959,1.151829 0.239475,0.221004 0.387009,0.547035 0.327849,0.724512 -0.139473,0.418416 -1.71078,0.488652 -1.958673,0.08755 -0.10464,-0.169311 -0.266283,0.01422 -0.359205,0.407832 -0.253524,1.073949 -7.506675,2.557395 -7.506675,1.535298 0,-0.168861 -0.2025,-0.30702 -0.45,-0.30702 -0.2475,0 -0.45,0.2025 -0.45,0.45 0,0.2475 -0.142968,0.45 -0.317706,0.45 -0.174738,0 -0.23427,-0.135 -0.132294,-0.3 z m 4.29,-1.26 c 0.556008,-0.556008 0.43014,-0.84 -0.372294,-0.84 -0.872589,0 -1.313442,0.560124 -0.731142,0.928947 0.547866,0.347013 0.677964,0.336525 1.103436,-0.08895 z m 2.61,-3.0807 0.9,-0.737721 -0.75,-0.04633 c -1.626246,-0.100467 -2.30508,0.257613 -1.999251,1.05459 0.25473,0.663813 0.808143,0.582849 1.849251,-0.270534 z m 3.524793,-0.316461 c 0.07961,-0.416436 0.02784,-0.829404 -0.115026,-0.917703 -0.142872,-0.0883 -0.259767,0.06256 -0.259767,0.335244 0,0.272685 -0.29652,0.573333 -0.658935,0.668106 -0.628941,0.164472 -0.632355,0.182718 -0.075,0.40083 0.895293,0.350358 0.953652,0.32475 1.108728,-0.486477 z m -0.674793,4.029075 c 0,-0.149553 0.27,-0.271914 0.6,-0.271914 0.33,0 0.6,0.05176 0.6,0.115011 0,0.06326 -0.27,0.185616 -0.6,0.271914 -0.33,0.0863 -0.6,0.03454 -0.6,-0.115011 z M 43.549844,66.937152 c -0.319206,-0.202344 -0.29907,-0.292446 0.09954,-0.445407 0.698037,-0.267861 0.750618,-0.249768 0.750618,0.258252 0,0.505035 -0.25881,0.562008 -0.850155,0.187155 z m -4.249845,-0.281316 c 0,-0.157242 0.342852,-0.351432 0.761889,-0.431538 0.480819,-0.09191 0.721167,-0.02181 0.651504,0.190029 -0.136941,0.416403 -1.413393,0.634515 -1.413393,0.241509 z m 5.805549,-1.113495 c -0.129315,-0.336993 -0.277986,-0.372702 -0.563877,-0.135435 -0.271593,0.225405 -0.447066,0.227067 -0.583977,0.0055 -0.107649,-0.17418 -0.01842,-0.380238 0.198291,-0.457911 0.814272,-0.291855 2.189055,0.268077 1.881201,0.766191 -0.262359,0.424506 -0.735015,0.334005 -0.931638,-0.178386 z M 23.1,65.267703 c 0,-0.257238 0.135,-0.467706 0.3,-0.467706 0.165,0 0.3,0.127032 0.3,0.282294 0,0.155262 -0.135,0.36573 -0.3,0.467706 -0.165,0.101976 -0.3,-0.02505 -0.3,-0.282294 z M 0,64.332291 c 0,-0.422238 0.12232619,-0.692103 0.27183598,-0.5997 0.14950978,0.0924 0.20126455,0.437868 0.11501059,0.767706 C 0.17098265,65.325762 0,65.251506 0,64.332291 Z m 21,0.467706 c 0,-0.165 0.01153,-0.386157 0.02562,-0.49146 0.01409,-0.1053 -0.150748,-0.300462 -0.366312,-0.433686 C 20.443747,63.741624 20.375754,63.524244 20.508216,63.391782 20.780467,63.119529 21.6,64.107033 21.6,64.707336 c 0,0.215964 -0.135,0.392661 -0.3,0.392661 -0.165,0 -0.3,-0.135 -0.3,-0.3 z m 19.199999,-0.0177 c 0,-0.174738 0.135,-0.23427 0.3,-0.132294 0.165,0.101976 0.3,0.244944 0.3,0.317706 0,0.07276 -0.135,0.132294 -0.3,0.132294 -0.165,0 -0.3,-0.142968 -0.3,-0.317706 z m 6.3,0.03541 c 0,-0.155262 0.135,-0.36573 0.3,-0.467706 0.165,-0.101976 0.3,0.02505 0.3,0.282294 0,0.257238 -0.135,0.467706 -0.3,0.467706 -0.165,0 -0.3,-0.127032 -0.3,-0.282294 z M 22.369288,63.212064 c 0.112659,-0.295866 0.280407,-0.462366 0.372773,-0.369999 0.09237,0.09237 1.9e-4,0.334437 -0.204835,0.537939 -0.296285,0.294078 -0.330744,0.25962 -0.167938,-0.16794 z m 16.930711,-0.202485 c 0,-0.159732 -0.356775,-0.477351 -0.792831,-0.705825 -0.966666,-0.506487 -0.402207,-1.042467 0.596436,-0.566346 0.355518,0.1695 0.916395,0.397566 1.246395,0.506811 0.592434,0.196125 0.592656,0.204036 0.01767,0.627204 -0.6774,0.498528 -1.06767,0.54903 -1.06767,0.138156 z M 18,62.432094 c 0,-0.182655 0.135,-0.332097 0.3,-0.332097 0.165,0 0.3,-0.2025 0.3,-0.45 0,-0.2475 -0.128546,-0.45 -0.285658,-0.45 -0.314312,0 -0.231583,-1.805792 0.107893,-2.355074 0.26234,-0.424476 0.286867,-0.426075 -1.153126,0.07513 -1.015119,0.353325 -1.241929,0.349983 -1.615714,-0.02379 -0.30643,-0.306429 -0.52877,-0.340878 -0.752986,-0.116661 -0.224215,0.224214 -0.145756,0.445404 0.265715,0.749088 0.444912,0.328368 0.500847,0.515196 0.235015,0.784986 C 14.979499,60.741583 14.4,60.442705 14.4,59.797321 c 0,-0.335127 -0.209533,-0.427215 -0.740922,-0.325632 -0.420242,0.08033 -0.665341,0.01935 -0.566294,-0.140916 0.100264,-0.162231 -0.277841,-0.24357 -0.88791,-0.19101 -1.556733,0.134121 -2.2436772,-0.594459 -2.025413,-2.148168 0.185207,-1.318398 0.713839,-1.739799 0.863549,-0.688383 0.18642,1.309233 3.35699,1.111014 3.35699,-0.209871 0,-0.160962 0.510839,-0.819042 1.135199,-1.462401 0.62436,-0.643359 1.088422,-1.310079 1.03125,-1.481595 -0.05717,-0.171516 0.171143,-0.586938 0.507366,-0.923163 L 17.68513,51.614866 16.983164,50.857432 C 15.866713,49.652761 13.8,50.390911 13.8,51.994333 c 0,0.278115 -0.135,0.505665 -0.3,0.505665 -0.460114,0 -1.5,1.143876 -1.5,1.65 0,0.716241 -0.866254,0.52269 -1.628917,-0.363957 L 9.6709456,52.972081 10.84179,52.447879 c 0.643964,-0.288312 1.367363,-0.448791 1.607553,-0.356622 0.640954,0.245958 1.263974,-1.222749 0.770773,-1.817019 -0.312509,-0.376551 -0.103975,-0.518904 1.380894,-0.942651 0.961944,-0.274518 2.185278,-0.763416 2.718519,-1.086441 0.53324,-0.323028 1.129932,-0.488187 1.325981,-0.36702 0.237915,0.147039 0.296345,0.06366 0.175703,-0.250728 -0.315596,-0.822432 0.746307,-1.522782 1.449745,-0.956142 0.41126,0.331281 0.470383,0.51168 0.204042,0.622587 -0.20625,0.08589 -0.375,0.339438 -0.375,0.563451 0,0.605043 0.628668,0.881469 0.923665,0.40614 0.20536,-0.3309 0.393306,-0.270441 0.941458,0.30285 0.376682,0.39396 0.528309,0.629772 0.336949,0.524028 C 21.758407,48.789889 21,49.207387 21,49.807096 c 0,0.298596 -0.109979,0.587901 -0.244396,0.642903 -0.134418,0.055 -0.147875,0.437499 -0.0299,0.849999 l 0.214492,0.75 0.0644,-0.75 c 0.06773,-0.788673 0.423206,0.404355 0.804149,2.698797 0.09577,0.576837 0.370675,1.348761 0.610897,1.715385 0.240222,0.366627 0.380688,0.834828 0.312147,1.040454 -0.06854,0.205623 -0.316688,-0.06005 -0.551438,-0.590388 -0.530031,-1.197423 -0.993327,-1.261575 -0.738705,-0.102285 0.137823,0.627504 0.0627,0.910548 -0.276163,1.040583 C 20.909467,57.200788 20.7,57.416167 20.7,57.581167 c 0,0.165 0.192146,0.226266 0.426992,0.136149 0.242258,-0.09296 0.566739,0.09727 0.75,0.439692 0.404261,0.755367 0.418313,1.337301 0.02644,1.095114 -0.170058,-0.105102 -0.220352,0.01533 -0.117903,0.282294 0.09826,0.256071 0.28849,0.465582 0.422727,0.465582 0.237904,0 0.689662,1.56131 0.58448,2.020004 -0.02901,0.126498 -0.18845,0.191508 -0.354318,0.144468 -0.165868,-0.04704 -0.489868,0.07074 -0.72,0.261735 -0.372671,0.309288 -0.531868,0.18747 -0.468247,-0.358311 0.02366,-0.203019 -1.908572,0.134916 -2.725175,0.476616 -0.316127,0.132279 -0.525,0.08755 -0.525,-0.112416 z m 2.1,-0.932097 c 0,-0.165 -0.135,-0.3 -0.3,-0.3 -0.165,0 -0.3,0.135 -0.3,0.3 0,0.165 0.135,0.3 0.3,0.3 0.165,0 0.3,-0.135 0.3,-0.3 z m 0.6,-1.667705 c 0,-0.237762 -0.135,-0.432294 -0.3,-0.432294 -0.165,0 -0.3,0.277968 -0.3,0.617706 0,0.339738 0.135,0.53427 0.3,0.432294 0.165,-0.101976 0.3,-0.379944 0.3,-0.617706 z m -6.15,-1.932294 c -0.101976,-0.165 -0.312443,-0.3 -0.467705,-0.3 -0.155263,0 -0.282295,0.135 -0.282295,0.3 0,0.165 0.210467,0.3 0.467705,0.3 0.257238,0 0.38427,-0.135 0.282295,-0.3 z m 3.45,-0.15 c 0,-0.2475 0.135,-0.45 0.3,-0.45 0.165,0 0.295145,-0.30375 0.289211,-0.675 -0.0103,-0.644466 -0.04342,-0.635076 -0.732147,0.207534 -0.690415,0.84468 -0.743692,1.367466 -0.139359,1.367466 0.155262,0 0.282295,-0.2025 0.282295,-0.45 z m -1.675229,-0.342432 c 0.158,-0.411744 0.1141,-0.430302 -0.267904,-0.113268 -0.520573,0.432039 -0.574752,0.6057 -0.188964,0.6057 0.147347,0 0.352937,-0.221595 0.456868,-0.492432 z M 15.15,56.999998 c -0.101976,-0.165 -0.312443,-0.3 -0.467705,-0.3 -0.155263,0 -0.282295,0.135 -0.282295,0.3 0,0.165 0.210467,0.3 0.467705,0.3 0.257238,0 0.38427,-0.135 0.282295,-0.3 z m 3.45,-3.167706 c 0,-0.257238 -0.137202,-0.382908 -0.304894,-0.27927 -0.167691,0.103638 -0.227224,0.314106 -0.132295,0.467706 C 18.419983,54.43684 18.6,54.359251 18.6,53.832292 Z m 15.299999,8.549999 c 0,-0.174738 0.135,-0.23427 0.3,-0.132294 0.165,0.101976 0.3,0.244944 0.3,0.317706 0,0.07276 -0.135,0.132294 -0.3,0.132294 -0.165,0 -0.3,-0.142968 -0.3,-0.317706 z m 2.44635,-0.147885 c 0.05701,-0.294078 0.285294,-0.595173 0.5073,-0.669099 0.258189,-0.08597 0.3663,0.05828 0.3,0.400281 -0.05701,0.294078 -0.285294,0.595173 -0.5073,0.669099 -0.258189,0.08597 -0.3663,-0.05828 -0.3,-0.400281 z M 32.46317,61.938585 c -0.22524,-0.255378 -0.256569,-0.438588 -0.075,-0.438588 0.171507,0 0.311829,-0.21189 0.311829,-0.470865 0,-0.316709 0.220986,-0.439478 0.675,-0.374999 0.37125,0.05272 0.675,0.298365 0.675,0.545864 0,0.293994 -0.233202,0.417597 -0.672669,0.356538 -0.505491,-0.07024 -0.627993,0.02295 -0.492903,0.375 0.221949,0.578391 0.08468,0.580689 -0.421257,0.0071 z m -7.804686,-0.588588 c 0.0061,-0.494999 0.07335,-0.661181 0.149413,-0.36929 0.07606,0.29189 0.07106,0.69689 -0.01112,0.899999 -0.08218,0.203109 -0.144412,-0.03571 -0.138298,-0.530709 z m -8.908484,-0.15 c -0.101976,-0.165 -0.04244,-0.299999 0.132295,-0.299999 0.174737,0 0.317705,0.134999 0.317705,0.299999 0,0.165 -0.05953,0.3 -0.132295,0.3 -0.07276,0 -0.21573,-0.135 -0.317705,-0.3 z m 22.049999,-0.599999 c 0,-0.165 0.210468,-0.3 0.467706,-0.3 0.257238,0 0.38427,0.135 0.282294,0.3 -0.101976,0.165 -0.312444,0.3 -0.467706,0.3 -0.155262,0 -0.282294,-0.135 -0.282294,-0.3 z m 20.4,-0.6 c 0,-0.165 0.135,-0.3 0.3,-0.3 0.165,0 0.3,0.135 0.3,0.3 0,0.165 -0.135,0.3 -0.3,0.3 -0.165,0 -0.3,-0.135 -0.3,-0.3 z m -32.810296,-4.35 c 0.106499,-0.99 0.242384,-1.85625 0.301966,-1.925001 0.260977,-0.301134 0.069,2.870619 -0.198229,3.275001 -0.203563,0.308043 -0.236288,-0.117831 -0.103737,-1.35 z m 13.010296,1.104438 c 0,-0.362565 0.56916,-0.785277 0.77721,-0.57723 0.07551,0.07551 -0.06847,0.308058 -0.319959,0.516774 -0.285117,0.236625 -0.457251,0.259386 -0.457251,0.06046 z m 8.4,-0.01902 c 0,-0.165 0.135,-0.383433 0.3,-0.485409 0.165,-0.101976 0.3,-0.05041 0.3,0.114591 0,0.165 -0.135,0.383433 -0.3,0.485409 -0.165,0.101976 -0.3,0.05041 -0.3,-0.114591 z M 0.0348004,54.824998 c 0.01914021,-0.70125 0.09685729,-1.037097 0.17270459,-0.746328 0.0758473,0.290772 0.23825966,0.46665 0.36091637,0.390846 0.12265668,-0.07581 0.1646172,0.26004 0.0932456,0.746325 C 0.46405181,56.56228 -0.00464161,56.270056 0.0348004,54.824998 Z M 2.7,55.799998 c 0,-0.165 0.135,-0.3 0.2999999,-0.3 0.165,0 0.3,0.135 0.3,0.3 0,0.165 -0.135,0.3 -0.3,0.3 C 2.835,56.099998 2.7,55.964998 2.7,55.799998 Z m 45.202766,-0.120669 c -0.187536,-0.488715 0.06443,-0.835014 0.439077,-0.603471 0.340779,0.210615 0.333036,1.02414 -0.0097,1.02414 -0.147348,0 -0.340545,-0.189303 -0.42933,-0.420669 z M 1.3973749,54.765277 c -0.1112763,-0.289983 -0.022652,-0.379401 0.2661803,-0.268566 0.2381492,0.09139 0.3583067,0.287013 0.2670166,0.434721 C 1.700644,55.303465 1.5907566,55.26922 1.3973749,54.765277 Z M 8.3,54.999997 c -0.1100001,-0.109998 -0.2000001,-0.339498 -0.2000001,-0.51 0,-0.18798 0.1397313,-0.170268 0.3549999,0.045 0.1952502,0.195252 0.2852502,0.424752 0.2000001,0.51 -0.08525,0.08525 -0.2450001,0.065 -0.3549999,-0.045 z m 37.299999,-0.232293 c 0,-0.257238 0.135,-0.467706 0.3,-0.467706 0.165,0 0.3,0.127032 0.3,0.282294 0,0.155262 -0.135,0.36573 -0.3,0.467706 -0.165,0.101976 -0.3,-0.02505 -0.3,-0.282294 z M 3.4658357,54.325621 c -0.096592,-0.156291 -0.047749,-0.363195 0.1085412,-0.459786 0.1562901,-0.09659 0.3631944,-0.04775 0.4597872,0.10854 0.096592,0.156291 0.047749,0.363195 -0.1085412,0.459786 -0.1562901,0.09659 -0.3631944,0.04775 -0.4597872,-0.10854 z m 5.9841641,-0.02562 c 0.1019757,-0.165 0.3124428,-0.3 0.4677051,-0.3 0.1552621,0 0.2822951,0.135 0.2822951,0.3 0,0.165 -0.2104676,0.3 -0.4677053,0.3 -0.2572377,0 -0.3842706,-0.135 -0.2822949,-0.3 z M 40.419635,53.356786 c -0.315117,-0.549057 -0.44748,-1.189821 -0.336846,-1.630632 0.115551,-0.460386 0.05292,-0.726156 -0.171132,-0.726156 -0.194883,0 -0.310389,-0.302763 -0.257523,-0.675 0.06292,-0.443046 0.302046,-0.675 0.695865,-0.675 0.333903,0 0.687942,-0.266097 0.798291,-0.6 0.190656,-0.5769 0.206442,-0.574014 0.409989,0.075 0.121101,0.38613 0.453498,0.675 0.776709,0.675 0.310755,0 0.565011,0.2025 0.565011,0.45 0,0.2475 -0.17013,0.45 -0.378066,0.45 -0.990177,0 -2.003691,1.462794 -1.672257,2.413554 0.429417,1.231827 0.208911,1.356546 -0.430041,0.243234 z m 3.866019,-2.299098 c -0.252465,-0.408498 0.358155,-1.134975 0.67677,-0.805182 0.184287,0.190752 0.14064,0.430971 -0.121647,0.669504 -0.224982,0.204609 -0.474789,0.265662 -0.555123,0.135678 z m -0.60984,-24.994774 c -0.56202,-0.951425 -0.456276,-1.466526 0.191934,-0.934938 0.492855,0.404183 1.491864,0.563878 1.904487,0.30444 0.177231,-0.111435 1.489986,-0.24224 2.917233,-0.290677 l 2.594997,-0.08807 0.194235,-0.884352 0.194238,-0.884352 0.401205,0.882516 0.401202,0.882517 -0.181053,-0.868266 c -0.168987,-0.81039 -0.127695,-0.858065 0.619485,-0.715233 0.440298,0.08417 0.872787,0.03614 0.961086,-0.106734 0.0883,-0.142872 0.315687,-0.259767 0.505302,-0.259767 0.189618,0 -0.254613,0.610715 -0.987177,1.357144 -1.556784,1.586247 -2.688735,1.971389 -6.232515,2.120588 -1.369239,0.05765 -2.593221,0.168899 -2.719956,0.247226 -0.126735,0.07833 -0.470853,-0.264592 -0.764703,-0.762043 z m -1.847244,0.208514 c -0.317694,-0.232305 -0.483018,-0.516982 -0.367386,-0.632615 0.115635,-0.115633 0.435243,0.01476 0.710244,0.289757 0.647634,0.647634 0.405327,0.889942 -0.342858,0.342858 z m 3.621429,-1.671429 c -0.244653,-0.395854 0.114063,-0.957621 0.47073,-0.737188 0.364383,0.225202 0.362016,1.037188 -0.003,1.037188 -0.155262,0 -0.36573,-0.135 -0.467706,-0.3 z m 1.413645,-0.309573 c -0.527262,-0.844278 -0.446622,-1.282105 0.204762,-1.111764 0.395988,0.103553 0.670296,-0.07498 0.904305,-0.588576 0.329733,-0.723682 1.106214,-0.827546 1.047288,-0.140087 -0.0165,0.1925 -0.05025,0.6875 -0.075,1.1 -0.04611,0.768488 -0.645,1.081861 -0.645,0.3375 0,-0.24 -0.313635,-0.4125 -0.75,-0.4125 -0.823887,0 -0.937125,0.217876 -0.395001,0.76 0.195252,0.19525 0.29139,0.41861 0.213645,0.496356 -0.07775,0.07775 -0.304998,-0.120672 -0.504999,-0.440929 z m 2.640948,-0.515427 c 0.0036,-0.642881 0.06879,-0.725662 0.295407,-0.375 0.159948,0.2475 0.294948,0.315 0.3,0.15 0.005,-0.165 0.133212,-0.103946 0.284799,0.135676 0.331461,0.52396 0.138267,0.914324 -0.452505,0.914324 -0.272706,0 -0.430599,-0.304558 -0.427701,-0.825 z M 17.1,23.919484 c 0,-0.209283 -0.37125,-0.610691 -0.825,-0.892017 -0.608532,-0.377291 -0.687247,-0.513597 -0.3,-0.519485 0.28875,-0.0044 0.525,-0.112801 0.525,-0.240911 0,-0.12811 -0.513778,-0.183931 -1.141727,-0.124046 -1.047387,0.09988 -2.23921,-0.562089 -1.800981,-1.000318 0.686701,-0.686702 4.737175,-0.08446 4.752249,0.706588 0.0087,0.455938 0.04517,0.453766 0.408072,-0.02429 0.461092,-0.607412 1.840624,-0.700757 2.19248,-0.148353 0.267027,0.419225 2.091795,1.123351 2.911206,1.123351 0.891423,0 0.34549,0.721969 -0.709016,0.937639 C 22.029442,23.959106 20.552282,23.57648 19.723781,22.859923 19.030541,22.260347 17.7,22.808431 17.7,23.693567 c 0,0.333538 -0.135,0.606432 -0.3,0.606432 -0.165,0 -0.3,-0.171232 -0.3,-0.380515 z m 25.349999,0.08051 c 0.101976,-0.165 0.312444,-0.3 0.467706,-0.3 0.155262,0 0.282294,0.135 0.282294,0.3 0,0.165 -0.210468,0.3 -0.467706,0.3 -0.257238,0 -0.38427,-0.135 -0.282294,-0.3 z M 31.748963,23.559627 C 31.654403,23.475256 26.820698,23.081375 25.725,23.068756 25.416193,23.0652 25.2,22.833954 25.2,22.507204 c 0,-0.535871 4.882865,-0.662222 5.715077,-0.147887 0.646422,0.399511 3.398349,0.201707 3.742545,-0.269008 0.382389,-0.522949 0.902772,-0.692541 0.594501,-0.193746 -0.105102,0.170058 0.01533,0.220352 0.282294,0.117903 0.256728,-0.09851 0.465582,-0.02174 0.465582,0.171141 0,0.192391 0.119493,0.275952 0.265539,0.18569 0.366882,-0.226746 2.134461,0.420004 2.134461,0.78099 0,0.161476 -0.50625,0.27019 -1.125,0.241585 -0.61875,-0.02861 -1.1925,-0.02441 -1.275,0.0093 -0.259428,0.106058 -4.147155,0.249129 -4.251036,0.156441 z m 10.851036,-1.180529 c 0,-0.231496 -0.50625,-0.829383 -1.125,-1.328637 -0.90372,-0.729191 -1.051239,-0.982747 -0.75,-1.289099 0.302496,-0.307628 0.375,-0.282756 0.375,0.128637 0,0.300257 0.233382,0.51 0.567477,0.51 0.355113,0 0.637923,0.28067 0.755715,0.75 0.103533,0.4125 0.320667,0.75 0.482523,0.75 0.161856,0 0.294285,0.2025 0.294285,0.45 0,0.2475 -0.135,0.45 -0.3,0.45 -0.165,0 -0.3,-0.189406 -0.3,-0.420901 z M 12.774884,21.640264 c -0.129231,-0.209101 -0.153947,-0.461202 -0.05493,-0.560224 0.268488,-0.268489 0.56123,0.126391 0.416216,0.561433 -0.101617,0.304852 -0.17228,0.304616 -0.361291,-0.0012 z m 32.620452,-0.535602 c 0.107436,-0.107435 -0.0024,-0.343685 -0.244404,-0.525 -0.307689,-0.230669 -0.352713,-0.464793 -0.149931,-0.779663 0.25188,-0.391103 0.290412,-0.385866 0.294405,0.04001 0.0024,0.269505 0.308343,0.573252 0.679593,0.674992 0.563082,0.154311 0.600387,0.233963 0.225,0.480396 -0.503319,0.330416 -1.107912,0.412513 -0.804663,0.109264 z m 3.054663,-0.104663 c -0.101976,-0.165 0.02505,-0.3 0.282294,-0.3 0.257238,0 0.467706,0.135 0.467706,0.3 0,0.165 -0.127032,0.3 -0.282294,0.3 -0.155262,0 -0.36573,-0.135 -0.467706,-0.3 z m -1.026315,-1.075 c 0.0144,-0.349483 0.08548,-0.42057 0.181248,-0.18125 0.08666,0.216563 0.07601,0.475313 -0.02367,0.575 -0.09969,0.09969 -0.170592,-0.0775 -0.157566,-0.39375 z m 2.213979,-0.144959 c -0.322881,-0.522433 0.04486,-0.633072 0.456318,-0.137291 0.236625,0.285116 0.259386,0.45725 0.06046,0.45725 -0.175464,0 -0.408012,-0.143982 -0.516774,-0.319959 z M 41.78648,19.201697 c 0.09894,-0.378361 0.01002,-0.601698 -0.239568,-0.601698 -0.524256,0 -0.72948,-0.625999 -0.409566,-1.249316 0.325899,-0.634979 2.270484,0.204546 2.90844,1.255644 0.492066,0.81073 0.4659,0.834891 -1.120002,1.03415 -1.186503,0.149078 -1.283286,0.111804 -1.139304,-0.43878 z m 0.507501,-1.058948 c -0.208716,-0.251487 -0.457584,-0.379146 -0.553044,-0.283688 -0.09546,0.09546 0.02502,0.299154 0.26775,0.452656 0.635091,0.401644 0.718074,0.352498 0.285294,-0.168968 z m 4.210611,0.896536 c 0.0082,-0.516461 0.556641,-1.178053 0.786237,-0.948455 0.122901,0.1229 -0.0048,0.451669 -0.283686,0.730598 -0.278931,0.278928 -0.505077,0.376964 -0.502551,0.217857 z M 16.209743,12.018206 c -0.222358,-0.415481 -0.212125,-0.643128 0.0358,-0.796352 0.216135,-0.133579 0.265879,-0.08304 0.131797,0.133912 -0.120551,0.195055 -0.0089,0.427708 0.253647,0.528449 0.513176,0.196924 0.643343,0.715784 0.17957,0.715784 -0.159195,0 -0.42956,-0.261807 -0.600812,-0.581793 z M 15.375,10.05125 C 14.890878,9.5013824 14.902553,9.3999995 15.45,9.3999995 c 0.2475,0 0.45,0.2475 0.45,0.5500002 0,0.6508683 -0.03513,0.6576433 -0.525,0.1012503 z"
         id="path3340"
         inkscape:connector-curvature="0" />
    </g>
    <text
       xml:space="preserve"
       style="font-style:normal;font-weight:normal;font-size:11.6813755px;line-height:125%;font-family:'Microsoft Sans Serif';letter-spacing:0px;word-spacing:0px;fill:#000000;fill-opacity:1;stroke:none;-inkscape-font-specification:'Microsoft Sans Serif, Normal';font-stretch:normal;font-variant:normal;text-anchor:start;text-align:start;writing-mode:lr;"
       x="6.42591"
       y="35.23333"
       id="text3388"
       sodipodi:linespacing="125%"
       transform="scale(0.9999738,1.0000262)"><tspan
         sodipodi:role="line"
         id="ARMY"
         x="6.42591"
         y="35.23333"
         style="font-size:11.6813755px;fill:#ffffff;-inkscape-font-specification:'Microsoft Sans Serif, Normal';font-family:'Microsoft Sans Serif';font-weight:normal;font-style:normal;font-stretch:normal;font-variant:normal;text-anchor:start;text-align:start;writing-mode:lr;line-height:125%;">ARMY</tspan></text>
  </g>
</svg>
